Monoto-Light.ufo
<glyph name="exclam" format="2">
  <advance width="620"/>
  <unicode hex="0021"/>
  <outline>
    <contour>
      <point x="290" y="174" type="line"/>
      <point x="314" y="174" type="line"/>
      <point x="316" y="714" type="line"/>
      <point x="288" y="714" type="line"/>
    </contour>
    <contour>
      <point x="300" y="-12" type="curve" smooth="yes"/>
      <point x="330" y="-12"/>
      <point x="332" y="4"/>
      <point x="332" y="23" type="curve" smooth="yes"/>
      <point x="332" y="41"/>
      <point x="330" y="58"/>
      <point x="300" y="58" type="curve" smooth="yes"/>
      <point x="275" y="58"/>
      <point x="270" y="41"/>
      <point x="270" y="23" type="curve" smooth="yes"/>
      <point x="270" y="4"/>
      <point x="275" y="-12"/>
    </contour>
  </outline>
</glyph>
<glyph name="quotedbl" format="2">
  <advance width="620"/>
  <unicode hex="0022"/>
  <outline>
    <contour>
      <point x="373" y="456" type="line"/>
      <point x="394" y="456" type="line"/>
      <point x="398" y="714" type="line"/>
      <point x="370" y="714" type="line"/>
    </contour>
    <contour>
      <point x="208" y="456" type="line"/>
      <point x="229" y="456" type="line"/>
      <point x="232" y="714" type="line"/>
      <point x="204" y="714" type="line"/>
    </contour>
  </outline>
</glyph>
<glyph name="numbersign" format="2">
  <advance width="620"/>
  <unicode hex="0023"/>
  <outline>
    <contour>
      <point x="109" y="0" type="line"/>
      <point x="134" y="0" type="line"/>
      <point x="175" y="231" type="line"/>
      <point x="347" y="231" type="line"/>
      <point x="306" y="0" type="line"/>
      <point x="332" y="0" type="line"/>
      <point x="373" y="231" type="line"/>
      <point x="514" y="231" type="line"/>
      <point x="514" y="255" type="line"/>
      <point x="376" y="255" type="line"/>
      <point x="414" y="471" type="line"/>
      <point x="552" y="471" type="line"/>
      <point x="552" y="495" type="line"/>
      <point x="416" y="495" type="line"/>
      <point x="454" y="714" type="line"/>
      <point x="429" y="714" type="line"/>
      <point x="390" y="495" type="line"/>
      <point x="220" y="495" type="line"/>
      <point x="257" y="714" type="line"/>
      <point x="232" y="714" type="line"/>
      <point x="194" y="495" type="line"/>
      <point x="50" y="495" type="line"/>
      <point x="50" y="471" type="line"/>
      <point x="190" y="471" type="line"/>
      <point x="152" y="255" type="line"/>
      <point x="15" y="255" type="line"/>
      <point x="15" y="231" type="line"/>
      <point x="149" y="231" type="line"/>
    </contour>
    <contour>
      <point x="178" y="255" type="line"/>
      <point x="216" y="471" type="line"/>
      <point x="388" y="471" type="line"/>
      <point x="351" y="255" type="line"/>
    </contour>
  </outline>
</glyph>
<glyph name="dollar" format="2">
  <advance width="620"/>
  <unicode hex="0024"/>
  <outline>
    <contour>
      <point x="297" y="-58" type="line"/>
      <point x="322" y="-58" type="line"/>
      <point x="322" y="24" type="line"/>
      <point x="447" y="31"/>
      <point x="532" y="87"/>
      <point x="532" y="187" type="curve" smooth="yes"/>
      <point x="532" y="286"/>
      <point x="449" y="326"/>
      <point x="322" y="371" type="curve"/>
      <point x="322" y="670" type="line"/>
      <point x="371" y="670"/>
      <point x="427" y="659"/>
      <point x="485" y="636" type="curve"/>
      <point x="498" y="659" type="line"/>
      <point x="440" y="683"/>
      <point x="381" y="695"/>
      <point x="322" y="696" type="curve"/>
      <point x="322" y="760" type="line"/>
      <point x="297" y="760" type="line"/>
      <point x="297" y="695" type="line"/>
      <point x="181" y="689"/>
      <point x="94" y="633"/>
      <point x="94" y="537" type="curve" smooth="yes"/>
      <point x="94" y="433"/>
      <point x="184" y="394"/>
      <point x="297" y="354" type="curve"/>
      <point x="297" y="49" type="line"/>
      <point x="221" y="50"/>
      <point x="146" y="65"/>
      <point x="97" y="83" type="curve"/>
      <point x="97" y="54" type="line"/>
      <point x="142" y="40"/>
      <point x="210" y="25"/>
      <point x="297" y="24" type="curve"/>
    </contour>
    <contour>
      <point x="322" y="50" type="curve"/>
      <point x="322" y="343" type="line"/>
      <point x="437" y="301"/>
      <point x="506" y="268"/>
      <point x="506" y="187" type="curve" smooth="yes"/>
      <point x="506" y="99"/>
      <point x="427" y="55"/>
    </contour>
    <contour>
      <point x="297" y="381" type="line"/>
      <point x="202" y="414"/>
      <point x="122" y="449"/>
      <point x="122" y="538" type="curve" smooth="yes"/>
      <point x="122" y="621"/>
      <point x="200" y="665"/>
      <point x="297" y="670" type="curve"/>
    </contour>
  </outline>
</glyph>
<glyph name="percent" format="2">
  <advance width="620"/>
  <unicode hex="0025"/>
  <outline>
    <contour>
      <point x="60" y="111" type="line"/>
      <point x="95" y="111" type="line"/>
      <point x="532" y="602" type="line"/>
      <point x="497" y="602" type="line"/>
    </contour>
    <contour>
      <point x="455" y="-9" type="curve" smooth="yes"/>
      <point x="563" y="-9"/>
      <point x="612" y="63"/>
      <point x="612" y="163" type="curve" smooth="yes"/>
      <point x="612" y="258"/>
      <point x="563" y="330"/>
      <point x="455" y="330" type="curve" smooth="yes"/>
      <point x="346" y="330"/>
      <point x="296" y="258"/>
      <point x="296" y="163" type="curve" smooth="yes"/>
      <point x="296" y="63"/>
      <point x="346" y="-9"/>
    </contour>
    <contour>
      <point x="455" y="15" type="curve" smooth="yes"/>
      <point x="364" y="15"/>
      <point x="323" y="78"/>
      <point x="323" y="163" type="curve" smooth="yes"/>
      <point x="323" y="246"/>
      <point x="364" y="306"/>
      <point x="455" y="306" type="curve" smooth="yes"/>
      <point x="544" y="306"/>
      <point x="585" y="244"/>
      <point x="585" y="163" type="curve" smooth="yes"/>
      <point x="585" y="77"/>
      <point x="543" y="15"/>
    </contour>
    <contour>
      <point x="149" y="383" type="curve" smooth="yes"/>
      <point x="256" y="383"/>
      <point x="306" y="455"/>
      <point x="306" y="555" type="curve" smooth="yes"/>
      <point x="306" y="650"/>
      <point x="256" y="722"/>
      <point x="149" y="722" type="curve" smooth="yes"/>
      <point x="39" y="722"/>
      <point x="-10" y="650"/>
      <point x="-10" y="555" type="curve" smooth="yes"/>
      <point x="-10" y="455"/>
      <point x="39" y="383"/>
    </contour>
    <contour>
      <point x="149" y="407" type="curve" smooth="yes"/>
      <point x="58" y="407"/>
      <point x="17" y="470"/>
      <point x="17" y="555" type="curve" smooth="yes"/>
      <point x="17" y="638"/>
      <point x="58" y="698"/>
      <point x="149" y="698" type="curve" smooth="yes"/>
      <point x="238" y="698"/>
      <point x="279" y="636"/>
      <point x="279" y="555" type="curve" smooth="yes"/>
      <point x="279" y="469"/>
      <point x="237" y="407"/>
    </contour>
  </outline>
</glyph>
<glyph name="ampersand" format="2">
  <advance width="620"/>
  <unicode hex="0026"/>
  <outline>
    <contour>
      <point x="250" y="-10" type="curve" smooth="yes"/>
      <point x="428" y="-10"/>
      <point x="529" y="149"/>
      <point x="550" y="317" type="curve"/>
      <point x="525" y="317" type="line"/>
      <point x="509" y="174"/>
      <point x="412" y="15"/>
      <point x="250" y="15" type="curve" smooth="yes"/>
      <point x="152" y="15"/>
      <point x="85" y="75"/>
      <point x="85" y="176" type="curve" smooth="yes"/>
      <point x="85" y="271"/>
      <point x="150" y="328"/>
      <point x="242" y="379" type="curve" smooth="yes"/>
      <point x="328" y="428"/>
      <point x="405" y="483"/>
      <point x="405" y="581" type="curve" smooth="yes"/>
      <point x="405" y="675"/>
      <point x="347" y="725"/>
      <point x="265" y="725" type="curve" smooth="yes"/>
      <point x="178" y="725"/>
      <point x="120" y="670"/>
      <point x="120" y="582" type="curve" smooth="yes"/>
      <point x="120" y="513"/>
      <point x="161" y="454"/>
      <point x="223" y="382" type="curve" smooth="yes"/>
      <point x="546" y="0" type="line"/>
      <point x="577" y="0" type="line"/>
      <point x="245" y="394" type="line" smooth="yes"/>
      <point x="191" y="457"/>
      <point x="145" y="516"/>
      <point x="145" y="583" type="curve" smooth="yes"/>
      <point x="145" y="654"/>
      <point x="190" y="700"/>
      <point x="265" y="700" type="curve" smooth="yes"/>
      <point x="337" y="700"/>
      <point x="379" y="655"/>
      <point x="379" y="582" type="curve" smooth="yes"/>
      <point x="379" y="499"/>
      <point x="310" y="444"/>
      <point x="226" y="398" type="curve" smooth="yes"/>
      <point x="127" y="345"/>
      <point x="58" y="283"/>
      <point x="58" y="176" type="curve" smooth="yes"/>
      <point x="58" y="60"/>
      <point x="136" y="-10"/>
    </contour>
  </outline>
</glyph>
<glyph name="quotesingle" format="2">
  <advance width="620"/>
  <unicode hex="0027"/>
  <outline>
    <contour>
      <point x="291" y="456" type="line"/>
      <point x="311" y="456" type="line"/>
      <point x="315" y="714" type="line"/>
      <point x="287" y="714" type="line"/>
    </contour>
  </outline>
</glyph>
<glyph name="parenleft" format="2">
  <advance width="620"/>
  <unicode hex="0028"/>
  <outline>
    <contour>
      <point x="385" y="-158" type="curve"/>
      <point x="416" y="-158" type="line"/>
      <point x="299" y="-39"/>
      <point x="247" y="109"/>
      <point x="247" y="275" type="curve" smooth="yes"/>
      <point x="247" y="443"/>
      <point x="298" y="596"/>
      <point x="416" y="714" type="curve"/>
      <point x="385" y="714" type="line"/>
      <point x="282" y="606"/>
      <point x="219" y="451"/>
      <point x="219" y="274" type="curve" smooth="yes"/>
      <point x="219" y="99"/>
      <point x="282" y="-46"/>
    </contour>
  </outline>
</glyph>
<glyph name="asterisk" format="2">
  <advance width="620"/>
  <unicode hex="002A"/>
  <outline>
    <contour>
      <point x="432" y="406" type="line"/>
      <point x="452" y="422" type="line"/>
      <point x="324" y="564" type="line"/>
      <point x="521" y="616" type="line"/>
      <point x="513" y="640" type="line"/>
      <point x="318" y="581" type="line"/>
      <point x="323" y="759" type="line"/>
      <point x="296" y="759" type="line"/>
      <point x="300" y="581" type="line"/>
      <point x="105" y="639" type="line"/>
      <point x="95" y="616" type="line"/>
      <point x="294" y="564" type="line"/>
      <point x="165" y="421" type="line"/>
      <point x="186" y="406" type="line"/>
      <point x="309" y="553" type="line"/>
    </contour>
  </outline>
</glyph>
<glyph name="plus" format="2">
  <advance width="620"/>
  <unicode hex="002B"/>
  <outline>
    <contour>
      <point x="284" y="123" type="line"/>
      <point x="309" y="123" type="line"/>
      <point x="309" y="340" type="line"/>
      <point x="541" y="340" type="line"/>
      <point x="541" y="364" type="line"/>
      <point x="309" y="364" type="line"/>
      <point x="309" y="583" type="line"/>
      <point x="284" y="583" type="line"/>
      <point x="284" y="364" type="line"/>
      <point x="51" y="364" type="line"/>
      <point x="51" y="340" type="line"/>
      <point x="284" y="340" type="line"/>
    </contour>
  </outline>
</glyph>
<glyph name="comma" format="2">
  <advance width="620"/>
  <unicode hex="002C"/>
  <outline>
    <contour>
      <point x="250" y="-129" type="curve"/>
      <point x="272" y="-129" type="line"/>
      <point x="304" y="-60"/>
      <point x="328" y="30"/>
      <point x="345" y="104" type="curve"/>
      <point x="342" y="116" type="line"/>
      <point x="315" y="116" type="line"/>
      <point x="302" y="40"/>
      <point x="284" y="-32"/>
    </contour>
  </outline>
</glyph>
<glyph name="period" format="2">
  <advance width="620"/>
  <unicode hex="002E"/>
  <outline>
    <contour>
      <point x="302" y="-12" type="curve" smooth="yes"/>
      <point x="328" y="-12"/>
      <point x="333" y="4"/>
      <point x="333" y="23" type="curve" smooth="yes"/>
      <point x="333" y="41"/>
      <point x="328" y="58"/>
      <point x="302" y="58" type="curve" smooth="yes"/>
      <point x="275" y="58"/>
      <point x="269" y="41"/>
      <point x="269" y="23" type="curve" smooth="yes"/>
      <point x="269" y="4"/>
      <point x="275" y="-12"/>
    </contour>
  </outline>
</glyph>
<glyph name="slash" format="2">
  <advance width="620"/>
  <unicode hex="002F"/>
  <outline>
    <contour>
      <point x="133" y="0" type="line"/>
      <point x="162" y="0" type="line"/>
      <point x="469" y="714" type="line"/>
      <point x="440" y="714" type="line"/>
    </contour>
  </outline>
</glyph>
<glyph name="zero" format="2">
  <advance width="620"/>
  <unicode hex="0030"/>
  <outline>
    <contour>
      <point x="303" y="-8" type="curve" smooth="yes"/>
      <point x="456" y="-8"/>
      <point x="525" y="124"/>
      <point x="525" y="361" type="curve" smooth="yes"/>
      <point x="525" y="571"/>
      <point x="474" y="725"/>
      <point x="304" y="725" type="curve" smooth="yes"/>
      <point x="134" y="725"/>
      <point x="76" y="572"/>
      <point x="76" y="358" type="curve" smooth="yes"/>
      <point x="76" y="119"/>
      <point x="156" y="-8"/>
    </contour>
    <contour>
      <point x="138" y="85" type="line"/>
      <point x="483" y="592" type="line"/>
      <point x="466" y="612" type="line"/>
      <point x="131" y="119" type="line"/>
    </contour>
    <contour>
      <point x="304" y="17" type="curve" smooth="yes"/>
      <point x="170" y="17"/>
      <point x="103" y="135"/>
      <point x="103" y="359" type="curve" smooth="yes"/>
      <point x="103" y="558"/>
      <point x="152" y="700"/>
      <point x="304" y="700" type="curve" smooth="yes"/>
      <point x="457" y="700"/>
      <point x="497" y="559"/>
      <point x="497" y="360" type="curve" smooth="yes"/>
      <point x="497" y="138"/>
      <point x="442" y="17"/>
    </contour>
  </outline>
</glyph>
<glyph name="one" format="2">
  <advance width="620"/>
  <unicode hex="0031"/>
  <outline>
    <contour>
      <point x="321" y="0" type="line"/>
      <point x="348" y="0" type="line"/>
      <point x="348" y="714" type="line"/>
      <point x="324" y="714" type="line"/>
      <point x="119" y="577" type="line"/>
      <point x="136" y="557" type="line"/>
      <point x="265" y="641" type="line" smooth="yes"/>
      <point x="290" y="659"/>
      <point x="305" y="669"/>
      <point x="322" y="683" type="curve"/>
      <point x="321" y="651"/>
      <point x="321" y="616"/>
      <point x="321" y="565" type="curve" smooth="yes"/>
    </contour>
    <contour>
      <point x="175" y="0" type="line"/>
      <point x="493" y="0" type="line"/>
      <point x="493" y="20" type="line"/>
      <point x="348" y="23" type="line"/>
      <point x="321" y="23" type="line"/>
      <point x="175" y="20" type="line"/>
    </contour>
  </outline>
</glyph>
<glyph name="two" format="2">
  <advance width="620"/>
  <unicode hex="0032"/>
  <outline>
    <contour>
      <point x="90" y="0" type="line"/>
      <point x="531" y="0" type="line"/>
      <point x="531" y="25" type="line"/>
      <point x="127" y="25" type="line"/>
      <point x="127" y="27" type="line"/>
      <point x="342" y="239" type="line" smooth="yes"/>
      <point x="441" y="338"/>
      <point x="497" y="418"/>
      <point x="497" y="539" type="curve" smooth="yes"/>
      <point x="497" y="655"/>
      <point x="419" y="724"/>
      <point x="298" y="724" type="curve" smooth="yes"/>
      <point x="233" y="724"/>
      <point x="163" y="705"/>
      <point x="102" y="663" type="curve"/>
      <point x="118" y="643" type="line"/>
      <point x="170" y="680"/>
      <point x="236" y="699"/>
      <point x="296" y="699" type="curve" smooth="yes"/>
      <point x="404" y="699"/>
      <point x="470" y="644"/>
      <point x="470" y="539" type="curve" smooth="yes"/>
      <point x="470" y="427"/>
      <point x="424" y="356"/>
      <point x="325" y="256" type="curve" smooth="yes"/>
      <point x="90" y="21" type="line"/>
    </contour>
  </outline>
</glyph>
<glyph name="three" format="2">
  <advance width="620"/>
  <unicode hex="0033"/>
  <outline>
    <contour>
      <point x="280" y="-10" type="curve" smooth="yes"/>
      <point x="447" y="-10"/>
      <point x="533" y="71"/>
      <point x="533" y="191" type="curve" smooth="yes"/>
      <point x="533" y="297"/>
      <point x="466" y="356"/>
      <point x="355" y="372" type="curve"/>
      <point x="355" y="374" type="line"/>
      <point x="442" y="392"/>
      <point x="513" y="455"/>
      <point x="513" y="553" type="curve" smooth="yes"/>
      <point x="513" y="660"/>
      <point x="427" y="724"/>
      <point x="304" y="724" type="curve" smooth="yes"/>
      <point x="216" y="724"/>
      <point x="147" y="697"/>
      <point x="87" y="655" type="curve"/>
      <point x="103" y="635" type="line"/>
      <point x="168" y="677"/>
      <point x="230" y="700"/>
      <point x="304" y="700" type="curve" smooth="yes"/>
      <point x="413" y="700"/>
      <point x="486" y="649"/>
      <point x="486" y="553" type="curve" smooth="yes"/>
      <point x="486" y="439"/>
      <point x="382" y="384"/>
      <point x="271" y="384" type="curve" smooth="yes"/>
      <point x="189" y="384" type="line"/>
      <point x="189" y="359" type="line"/>
      <point x="271" y="359" type="line" smooth="yes"/>
      <point x="405" y="359"/>
      <point x="506" y="314"/>
      <point x="506" y="191" type="curve" smooth="yes"/>
      <point x="506" y="82"/>
      <point x="427" y="15"/>
      <point x="282" y="15" type="curve" smooth="yes"/>
      <point x="207" y="15"/>
      <point x="133" y="33"/>
      <point x="81" y="55" type="curve"/>
      <point x="81" y="28" type="line"/>
      <point x="136" y="6"/>
      <point x="207" y="-10"/>
    </contour>
  </outline>
</glyph>
<glyph name="four" format="2">
  <advance width="620"/>
  <unicode hex="0034"/>
  <outline>
    <contour>
      <point x="409" y="0" type="line"/>
      <point x="435" y="0" type="line"/>
      <point x="435" y="188" type="line"/>
      <point x="549" y="188" type="line"/>
      <point x="549" y="213" type="line"/>
      <point x="435" y="213" type="line"/>
      <point x="435" y="718" type="line"/>
      <point x="402" y="718" type="line"/>
      <point x="53" y="209" type="line"/>
      <point x="53" y="188" type="line"/>
      <point x="409" y="188" type="line"/>
    </contour>
    <contour>
      <point x="86" y="213" type="line"/>
      <point x="342" y="584" type="line" smooth="yes"/>
      <point x="369" y="623"/>
      <point x="385" y="647"/>
      <point x="409" y="683" type="curve"/>
      <point x="410" y="683" type="line"/>
      <point x="409" y="642"/>
      <point x="409" y="620"/>
      <point x="409" y="555" type="curve" smooth="yes"/>
      <point x="409" y="213" type="line"/>
    </contour>
  </outline>
</glyph>
<glyph name="five" format="2">
  <advance width="620"/>
  <unicode hex="0035"/>
  <outline>
    <contour>
      <point x="269" y="-10" type="curve" smooth="yes"/>
      <point x="433" y="-10"/>
      <point x="524" y="82"/>
      <point x="524" y="220" type="curve" smooth="yes"/>
      <point x="524" y="349"/>
      <point x="442" y="426"/>
      <point x="288" y="426" type="curve" smooth="yes"/>
      <point x="221" y="426"/>
      <point x="166" y="415"/>
      <point x="139" y="408" type="curve"/>
      <point x="167" y="689" type="line"/>
      <point x="482" y="689" type="line"/>
      <point x="482" y="714" type="line"/>
      <point x="144" y="714" type="line"/>
      <point x="111" y="393" type="line"/>
      <point x="131" y="378" type="line"/>
      <point x="179" y="391"/>
      <point x="232" y="401"/>
      <point x="288" y="401" type="curve" smooth="yes"/>
      <point x="433" y="401"/>
      <point x="497" y="331"/>
      <point x="497" y="219" type="curve" smooth="yes"/>
      <point x="497" y="96"/>
      <point x="416" y="15"/>
      <point x="271" y="15" type="curve" smooth="yes"/>
      <point x="201" y="15"/>
      <point x="135" y="33"/>
      <point x="88" y="57" type="curve"/>
      <point x="88" y="28" type="line"/>
      <point x="130" y="7"/>
      <point x="196" y="-10"/>
    </contour>
  </outline>
</glyph>
<glyph name="six" format="2">
  <advance width="620"/>
  <unicode hex="0036"/>
  <outline>
    <contour>
      <point x="309" y="-12" type="curve" smooth="yes"/>
      <point x="446" y="-12"/>
      <point x="524" y="83"/>
      <point x="524" y="222" type="curve" smooth="yes"/>
      <point x="524" y="352"/>
      <point x="448" y="438"/>
      <point x="313" y="438" type="curve" smooth="yes"/>
      <point x="190" y="438"/>
      <point x="125" y="376"/>
      <point x="101" y="326" type="curve"/>
      <point x="100" y="326" type="line"/>
      <point x="102" y="591"/>
      <point x="220" y="699"/>
      <point x="368" y="699" type="curve" smooth="yes"/>
      <point x="405" y="699"/>
      <point x="443" y="693"/>
      <point x="469" y="684" type="curve"/>
      <point x="469" y="711" type="line"/>
      <point x="441" y="719"/>
      <point x="405" y="724"/>
      <point x="368" y="724" type="curve" smooth="yes"/>
      <point x="208" y="724"/>
      <point x="74" y="612"/>
      <point x="74" y="312" type="curve" smooth="yes"/>
      <point x="74" y="129"/>
      <point x="135" y="-12"/>
    </contour>
    <contour>
      <point x="309" y="13" type="curve" smooth="yes"/>
      <point x="139" y="13"/>
      <point x="107" y="175"/>
      <point x="107" y="247" type="curve" smooth="yes"/>
      <point x="107" y="335"/>
      <point x="185" y="413"/>
      <point x="311" y="413" type="curve" smooth="yes"/>
      <point x="440" y="413"/>
      <point x="496" y="337"/>
      <point x="496" y="223" type="curve" smooth="yes"/>
      <point x="496" y="92"/>
      <point x="431" y="13"/>
    </contour>
  </outline>
</glyph>
<glyph name="eight" format="2">
  <advance width="620"/>
  <unicode hex="0038"/>
  <outline>
    <contour>
      <point x="287" y="-10" type="curve" smooth="yes"/>
      <point x="419" y="-10"/>
      <point x="518" y="63"/>
      <point x="518" y="178" type="curve" smooth="yes"/>
      <point x="518" y="278"/>
      <point x="447" y="333"/>
      <point x="320" y="380" type="curve"/>
      <point x="426" y="422"/>
      <point x="493" y="471"/>
      <point x="493" y="563" type="curve" smooth="yes"/>
      <point x="493" y="661"/>
      <point x="415" y="724"/>
      <point x="295" y="724" type="curve" smooth="yes"/>
      <point x="169" y="724"/>
      <point x="90" y="659"/>
      <point x="90" y="561" type="curve" smooth="yes"/>
      <point x="90" y="468"/>
      <point x="165" y="419"/>
      <point x="261" y="380" type="curve"/>
      <point x="145" y="340"/>
      <point x="66" y="280"/>
      <point x="66" y="174" type="curve" smooth="yes"/>
      <point x="66" y="66"/>
      <point x="156" y="-10"/>
    </contour>
    <contour>
      <point x="288" y="15" type="curve" smooth="yes"/>
      <point x="173" y="15"/>
      <point x="93" y="76"/>
      <point x="93" y="173" type="curve" smooth="yes"/>
      <point x="93" y="277"/>
      <point x="181" y="329"/>
      <point x="290" y="367" type="curve"/>
      <point x="438" y="313"/>
      <point x="490" y="264"/>
      <point x="490" y="178" type="curve" smooth="yes"/>
      <point x="490" y="76"/>
      <point x="406" y="15"/>
    </contour>
    <contour>
      <point x="292" y="393" type="curve"/>
      <point x="181" y="434"/>
      <point x="118" y="477"/>
      <point x="118" y="562" type="curve" smooth="yes"/>
      <point x="118" y="647"/>
      <point x="189" y="698"/>
      <point x="295" y="698" type="curve" smooth="yes"/>
      <point x="401" y="698"/>
      <point x="466" y="650"/>
      <point x="466" y="563" type="curve" smooth="yes"/>
      <point x="466" y="477"/>
      <point x="400" y="434"/>
    </contour>
  </outline>
</glyph>
<glyph name="nine" format="2">
  <advance width="620"/>
  <unicode hex="0039"/>
  <outline>
    <contour>
      <point x="227" y="-10" type="curve" smooth="yes"/>
      <point x="392" y="-10"/>
      <point x="524" y="100"/>
      <point x="524" y="406" type="curve" smooth="yes"/>
      <point x="524" y="586"/>
      <point x="463" y="725"/>
      <point x="291" y="725" type="curve" smooth="yes"/>
      <point x="153" y="725"/>
      <point x="75" y="634"/>
      <point x="75" y="492" type="curve" smooth="yes"/>
      <point x="75" y="363"/>
      <point x="149" y="276"/>
      <point x="286" y="276" type="curve" smooth="yes"/>
      <point x="407" y="276"/>
      <point x="472" y="336"/>
      <point x="498" y="385" type="curve"/>
      <point x="500" y="385" type="line"/>
      <point x="495" y="125"/>
      <point x="378" y="16"/>
      <point x="228" y="16" type="curve" smooth="yes"/>
      <point x="184" y="16"/>
      <point x="140" y="22"/>
      <point x="114" y="30" type="curve"/>
      <point x="114" y="3" type="line"/>
      <point x="142" y="-5"/>
      <point x="184" y="-10"/>
    </contour>
    <contour>
      <point x="287" y="301" type="curve" smooth="yes"/>
      <point x="163" y="301"/>
      <point x="103" y="376"/>
      <point x="103" y="491" type="curve" smooth="yes"/>
      <point x="103" y="623"/>
      <point x="169" y="700"/>
      <point x="292" y="700" type="curve" smooth="yes"/>
      <point x="459" y="700"/>
      <point x="493" y="542"/>
      <point x="493" y="463" type="curve" smooth="yes"/>
      <point x="493" y="382"/>
      <point x="416" y="301"/>
    </contour>
  </outline>
</glyph>
<glyph name="colon" format="2">
  <advance width="620"/>
  <unicode hex="003A"/>
  <outline>
    <contour>
      <point x="302" y="464" type="curve" smooth="yes"/>
      <point x="328" y="464"/>
      <point x="332" y="480"/>
      <point x="332" y="499" type="curve" smooth="yes"/>
      <point x="332" y="517"/>
      <point x="328" y="534"/>
      <point x="302" y="534" type="curve" smooth="yes"/>
      <point x="275" y="534"/>
      <point x="269" y="517"/>
      <point x="269" y="499" type="curve" smooth="yes"/>
      <point x="269" y="480"/>
      <point x="275" y="464"/>
    </contour>
    <contour>
      <point x="302" y="-12" type="curve" smooth="yes"/>
      <point x="328" y="-12"/>
      <point x="332" y="4"/>
      <point x="332" y="23" type="curve" smooth="yes"/>
      <point x="332" y="41"/>
      <point x="328" y="58"/>
      <point x="302" y="58" type="curve" smooth="yes"/>
      <point x="275" y="58"/>
      <point x="269" y="41"/>
      <point x="269" y="23" type="curve" smooth="yes"/>
      <point x="269" y="4"/>
      <point x="275" y="-12"/>
    </contour>
  </outline>
</glyph>
<glyph name="semicolon" format="2">
  <advance width="620"/>
  <unicode hex="003B"/>
  <outline>
    <contour>
      <point x="232" y="-129" type="curve"/>
      <point x="254" y="-129" type="line"/>
      <point x="285" y="-59"/>
      <point x="310" y="28"/>
      <point x="325" y="99" type="curve"/>
      <point x="322" y="111" type="line"/>
      <point x="295" y="111" type="line"/>
      <point x="282" y="34"/>
      <point x="267" y="-26"/>
    </contour>
    <contour>
      <point x="307" y="467" type="curve" smooth="yes"/>
      <point x="332" y="467"/>
      <point x="336" y="481"/>
      <point x="336" y="499" type="curve" smooth="yes"/>
      <point x="336" y="519"/>
      <point x="332" y="532"/>
      <point x="307" y="532" type="curve" smooth="yes"/>
      <point x="285" y="532"/>
      <point x="281" y="517"/>
      <point x="281" y="499" type="curve" smooth="yes"/>
      <point x="281" y="481"/>
      <point x="285" y="467"/>
    </contour>
  </outline>
</glyph>
<glyph name="equal" format="2">
  <advance width="620"/>
  <unicode hex="003D"/>
  <outline>
    <contour>
      <point x="57" y="444" type="line"/>
      <point x="545" y="444" type="line"/>
      <point x="545" y="469" type="line"/>
      <point x="57" y="469" type="line"/>
    </contour>
    <contour>
      <point x="57" y="237" type="line"/>
      <point x="545" y="237" type="line"/>
      <point x="545" y="262" type="line"/>
      <point x="57" y="262" type="line"/>
    </contour>
  </outline>
</glyph>
<glyph name="greater" format="2">
  <advance width="620"/>
  <unicode hex="003E"/>
  <outline>
    <contour>
      <point x="56" y="141" type="line"/>
      <point x="545" y="354" type="line"/>
      <point x="545" y="373" type="line"/>
      <point x="56" y="577" type="line"/>
      <point x="56" y="550" type="line"/>
      <point x="511" y="364" type="line"/>
      <point x="56" y="168" type="line"/>
    </contour>
  </outline>
</glyph>
<glyph name="question" format="2">
  <advance width="620"/>
  <unicode hex="003F"/>
  <outline>
    <contour>
      <point x="237" y="174" type="line"/>
      <point x="261" y="174" type="line"/>
      <point x="261" y="188" type="line" smooth="yes"/>
      <point x="261" y="271"/>
      <point x="280" y="307"/>
      <point x="337" y="355" type="curve" smooth="yes"/>
      <point x="415" y="411"/>
      <point x="472" y="459"/>
      <point x="472" y="558" type="curve" smooth="yes"/>
      <point x="472" y="670"/>
      <point x="395" y="724"/>
      <point x="281" y="724" type="curve" smooth="yes"/>
      <point x="226" y="724"/>
      <point x="184" y="713"/>
      <point x="129" y="692" type="curve"/>
      <point x="140" y="668" type="line"/>
      <point x="187" y="689"/>
      <point x="231" y="699"/>
      <point x="280" y="699" type="curve" smooth="yes"/>
      <point x="378" y="699"/>
      <point x="445" y="656"/>
      <point x="445" y="559" type="curve" smooth="yes"/>
      <point x="445" y="470"/>
      <point x="396" y="427"/>
      <point x="323" y="372" type="curve" smooth="yes"/>
      <point x="253" y="318"/>
      <point x="237" y="282"/>
      <point x="237" y="189" type="curve" smooth="yes"/>
    </contour>
    <contour>
      <point x="248" y="-12" type="curve" smooth="yes"/>
      <point x="276" y="-12"/>
      <point x="281" y="2"/>
      <point x="281" y="23" type="curve" smooth="yes"/>
      <point x="281" y="43"/>
      <point x="276" y="58"/>
      <point x="248" y="58" type="curve" smooth="yes"/>
      <point x="224" y="58"/>
      <point x="218" y="41"/>
      <point x="218" y="22" type="curve" smooth="yes"/>
      <point x="218" y="3"/>
      <point x="224" y="-12"/>
    </contour>
  </outline>
</glyph>
<glyph name="at" format="2">
  <advance width="620"/>
  <unicode hex="0040"/>
  <outline>
    <contour>
      <point x="328" y="-89" type="curve" smooth="yes"/>
      <point x="392" y="-89"/>
      <point x="458" y="-74"/>
      <point x="510" y="-49" type="curve"/>
      <point x="510" y="-21" type="line"/>
      <point x="451" y="-49"/>
      <point x="386" y="-64"/>
      <point x="325" y="-64" type="curve" smooth="yes"/>
      <point x="138" y="-64"/>
      <point x="25" y="72"/>
      <point x="25" y="292" type="curve" smooth="yes"/>
      <point x="25" y="545"/>
      <point x="150" y="688"/>
      <point x="323" y="688" type="curve" smooth="yes"/>
      <point x="489" y="688"/>
      <point x="576" y="559"/>
      <point x="576" y="353" type="curve" smooth="yes"/>
      <point x="576" y="232"/>
      <point x="547" y="139"/>
      <point x="481" y="139" type="curve" smooth="yes"/>
      <point x="433" y="139"/>
      <point x="416" y="180"/>
      <point x="416" y="257" type="curve" smooth="yes"/>
      <point x="416" y="285"/>
      <point x="419" y="324"/>
      <point x="420" y="348" type="curve" smooth="yes"/>
      <point x="427" y="493" type="line"/>
      <point x="394" y="506"/>
      <point x="360" y="513"/>
      <point x="332" y="513" type="curve" smooth="yes"/>
      <point x="222" y="513"/>
      <point x="160" y="419"/>
      <point x="160" y="287" type="curve" smooth="yes"/>
      <point x="160" y="179"/>
      <point x="202" y="114"/>
      <point x="279" y="114" type="curve" smooth="yes"/>
      <point x="330" y="114"/>
      <point x="374" y="144"/>
      <point x="395" y="197" type="curve"/>
      <point x="397" y="197" type="line"/>
      <point x="401" y="146"/>
      <point x="434" y="114"/>
      <point x="483" y="114" type="curve" smooth="yes"/>
      <point x="564" y="114"/>
      <point x="605" y="221"/>
      <point x="605" y="356" type="curve" smooth="yes"/>
      <point x="605" y="576"/>
      <point x="499" y="713"/>
      <point x="320" y="713" type="curve" smooth="yes"/>
      <point x="134" y="713"/>
      <point x="-3" y="562"/>
      <point x="-3" y="294" type="curve" smooth="yes"/>
      <point x="-3" y="59"/>
      <point x="119" y="-89"/>
    </contour>
    <contour>
      <point x="281" y="139" type="curve" smooth="yes"/>
      <point x="218" y="139"/>
      <point x="188" y="195"/>
      <point x="188" y="288" type="curve" smooth="yes"/>
      <point x="188" y="412"/>
      <point x="242" y="488"/>
      <point x="332" y="488" type="curve" smooth="yes"/>
      <point x="353" y="488"/>
      <point x="377" y="483"/>
      <point x="401" y="473" type="curve"/>
      <point x="391" y="323" type="line" smooth="yes"/>
      <point x="384" y="195"/>
      <point x="344" y="139"/>
    </contour>
  </outline>
</glyph>
<glyph name="A" format="2">
  <advance width="620"/>
  <unicode hex="0041"/>
  <anchor x="301" y="0" name="bottom"/>
  <anchor x="550" y="10" name="ogonek"/>
  <anchor x="301" y="714" name="top"/>
  <anchor x="589" y="714" name="topright"/>
  <outline>
    <contour>
      <point x="13" y="0" type="line"/>
      <point x="41" y="0" type="line"/>
      <point x="268" y="599" type="line" smooth="yes"/>
      <point x="279" y="628"/>
      <point x="290" y="656"/>
      <point x="300" y="686" type="curve"/>
      <point x="313" y="654"/>
      <point x="324" y="626"/>
      <point x="334" y="599" type="curve" smooth="yes"/>
      <point x="561" y="0" type="line"/>
      <point x="589" y="0" type="line"/>
      <point x="316" y="715" type="line"/>
      <point x="287" y="715" type="line"/>
    </contour>
    <contour>
      <point x="134" y="274" type="line"/>
      <point x="469" y="274" type="line"/>
      <point x="460" y="299" type="line"/>
      <point x="144" y="299" type="line"/>
    </contour>
  </outline>
</glyph>
<glyph name="B" format="2">
  <advance width="620"/>
  <unicode hex="0042"/>
  <anchor x="301" y="0" name="bottom"/>
  <anchor x="301" y="714" name="top"/>
  <anchor x="589" y="714" name="topright"/>
  <outline>
    <contour>
      <point x="110" y="0" type="line"/>
      <point x="289" y="0" type="line" smooth="yes"/>
      <point x="444" y="0"/>
      <point x="553" y="63"/>
      <point x="553" y="201" type="curve" smooth="yes"/>
      <point x="553" y="293"/>
      <point x="509" y="357"/>
      <point x="384" y="376" type="curve"/>
      <point x="384" y="377" type="line"/>
      <point x="481" y="392"/>
      <point x="534" y="460"/>
      <point x="534" y="545" type="curve" smooth="yes"/>
      <point x="534" y="658"/>
      <point x="462" y="714"/>
      <point x="282" y="714" type="curve" smooth="yes"/>
      <point x="110" y="714" type="line"/>
    </contour>
    <contour>
      <point x="136" y="25" type="line"/>
      <point x="136" y="363" type="line"/>
      <point x="284" y="363" type="line" smooth="yes"/>
      <point x="431" y="363"/>
      <point x="525" y="324"/>
      <point x="525" y="201" type="curve" smooth="yes"/>
      <point x="525" y="80"/>
      <point x="435" y="25"/>
      <point x="288" y="25" type="curve" smooth="yes"/>
    </contour>
    <contour>
      <point x="136" y="388" type="line"/>
      <point x="136" y="689" type="line"/>
      <point x="273" y="689" type="line" smooth="yes"/>
      <point x="439" y="689"/>
      <point x="507" y="645"/>
      <point x="507" y="545" type="curve" smooth="yes"/>
      <point x="507" y="441"/>
      <point x="433" y="388"/>
      <point x="286" y="388" type="curve" smooth="yes"/>
    </contour>
  </outline>
</glyph>
<glyph name="C" format="2">
  <advance width="620"/>
  <unicode hex="0043"/>
  <anchor x="358" y="0" name="bottom"/>
  <anchor x="370" y="714" name="top"/>
  <anchor x="589" y="714" name="topright"/>
  <outline>
    <contour>
      <point x="377" y="-10" type="curve" smooth="yes"/>
      <point x="451" y="-10"/>
      <point x="513" y="2"/>
      <point x="556" y="18" type="curve"/>
      <point x="556" y="45" type="line"/>
      <point x="511" y="29"/>
      <point x="449" y="15"/>
      <point x="379" y="15" type="curve" smooth="yes"/>
      <point x="190" y="15"/>
      <point x="90" y="154"/>
      <point x="90" y="356" type="curve" smooth="yes"/>
      <point x="90" y="549"/>
      <point x="193" y="699"/>
      <point x="392" y="699" type="curve" smooth="yes"/>
      <point x="439" y="699"/>
      <point x="496" y="693"/>
      <point x="555" y="667" type="curve"/>
      <point x="566" y="690" type="line"/>
      <point x="510" y="714"/>
      <point x="451" y="724"/>
      <point x="391" y="724" type="curve" smooth="yes"/>
      <point x="176" y="724"/>
      <point x="63" y="564"/>
      <point x="63" y="356" type="curve" smooth="yes"/>
      <point x="63" y="136"/>
      <point x="173" y="-10"/>
    </contour>
  </outline>
</glyph>
<glyph name="D" format="2">
  <advance width="620"/>
  <unicode hex="0044"/>
  <anchor x="246" y="0" name="bottom"/>
  <anchor x="291" y="357" name="center"/>
  <anchor x="293" y="714" name="top"/>
  <anchor x="612" y="714" name="topright"/>
  <outline>
    <contour>
      <point x="81" y="0" type="line"/>
      <point x="226" y="0" type="line" smooth="yes"/>
      <point x="448" y="0"/>
      <point x="552" y="124"/>
      <point x="552" y="362" type="curve" smooth="yes"/>
      <point x="552" y="594"/>
      <point x="452" y="714"/>
      <point x="230" y="714" type="curve" smooth="yes"/>
      <point x="81" y="714" type="line"/>
    </contour>
    <contour>
      <point x="107" y="25" type="line"/>
      <point x="107" y="689" type="line"/>
      <point x="222" y="689" type="line" smooth="yes"/>
      <point x="442" y="689"/>
      <point x="525" y="571"/>
      <point x="525" y="360" type="curve" smooth="yes"/>
      <point x="525" y="139"/>
      <point x="430" y="25"/>
      <point x="218" y="25" type="curve" smooth="yes"/>
    </contour>
  </outline>
</glyph>
<glyph name="F" format="2">
  <advance width="620"/>
  <unicode hex="0046"/>
  <anchor x="312" y="0" name="bottom"/>
  <anchor x="314" y="714" name="top"/>
  <anchor x="589" y="714" name="topright"/>
  <outline>
    <contour>
      <point x="110" y="0" type="line"/>
      <point x="136" y="0" type="line"/>
      <point x="136" y="329" type="line"/>
      <point x="485" y="329" type="line"/>
      <point x="485" y="354" type="line"/>
      <point x="136" y="354" type="line"/>
      <point x="136" y="689" type="line"/>
      <point x="505" y="689" type="line"/>
      <point x="505" y="714" type="line"/>
      <point x="110" y="714" type="line"/>
    </contour>
  </outline>
</glyph>
<glyph name="G" format="2">
  <advance width="620"/>
  <unicode hex="0047"/>
  <anchor x="335" y="0" name="bottom"/>
  <anchor x="324" y="714" name="top"/>
  <anchor x="589" y="714" name="topright"/>
  <outline>
    <contour>
      <point x="341" y="-10" type="curve" smooth="yes"/>
      <point x="404" y="-10"/>
      <point x="473" y="3"/>
      <point x="522" y="28" type="curve"/>
      <point x="522" y="351" type="line"/>
      <point x="324" y="351" type="line"/>
      <point x="324" y="326" type="line"/>
      <point x="496" y="326" type="line"/>
      <point x="496" y="44" type="line"/>
      <point x="461" y="28"/>
      <point x="404" y="15"/>
      <point x="343" y="15" type="curve" smooth="yes"/>
      <point x="166" y="15"/>
      <point x="76" y="143"/>
      <point x="76" y="356" type="curve" smooth="yes"/>
      <point x="76" y="559"/>
      <point x="159" y="699"/>
      <point x="344" y="699" type="curve" smooth="yes"/>
      <point x="386" y="699"/>
      <point x="442" y="692"/>
      <point x="493" y="661" type="curve"/>
      <point x="506" y="682" type="line"/>
      <point x="456" y="715"/>
      <point x="393" y="724"/>
      <point x="343" y="724" type="curve" smooth="yes"/>
      <point x="145" y="724"/>
      <point x="50" y="574"/>
      <point x="50" y="353" type="curve" smooth="yes"/>
      <point x="50" y="135"/>
      <point x="140" y="-10"/>
    </contour>
  </outline>
</glyph>
<glyph name="H" format="2">
  <advance width="620"/>
  <unicode hex="0048"/>
  <anchor x="301" y="0" name="bottom"/>
  <anchor x="301" y="375" name="center"/>
  <anchor x="301" y="714" name="top"/>
  <anchor x="13" y="714" name="topleft"/>
  <anchor x="612" y="714" name="topright"/>
  <outline>
    <contour>
      <point x="81" y="0" type="line"/>
      <point x="107" y="0" type="line"/>
      <point x="107" y="363" type="line"/>
      <point x="496" y="363" type="line"/>
      <point x="496" y="0" type="line"/>
      <point x="522" y="0" type="line"/>
      <point x="522" y="714" type="line"/>
      <point x="496" y="714" type="line"/>
      <point x="496" y="388" type="line"/>
      <point x="107" y="388" type="line"/>
      <point x="107" y="714" type="line"/>
      <point x="81" y="714" type="line"/>
    </contour>
  </outline>
</glyph>
<glyph name="I" format="2">
  <advance width="620"/>
  <unicode hex="0049"/>
  <anchor x="301" y="0" name="bottom"/>
  <anchor x="341" y="10" name="ogonek"/>
  <anchor x="301" y="714" name="top"/>
  <anchor x="13" y="714" name="topleft"/>
  <anchor x="589" y="714" name="topright"/>
  <outline>
    <contour>
      <point x="150" y="0" type="line"/>
      <point x="452" y="0" type="line"/>
      <point x="452" y="20" type="line"/>
      <point x="314" y="23" type="line"/>
      <point x="314" y="690" type="line"/>
      <point x="452" y="694" type="line"/>
      <point x="452" y="714" type="line"/>
      <point x="150" y="714" type="line"/>
      <point x="150" y="694" type="line"/>
      <point x="288" y="690" type="line"/>
      <point x="288" y="23" type="line"/>
      <point x="150" y="20" type="line"/>
    </contour>
  </outline>
</glyph>
<glyph name="J" format="2">
  <advance width="620"/>
  <unicode hex="004A"/>
  <anchor x="301" y="0" name="bottom"/>
  <anchor x="417" y="714" name="top"/>
  <anchor x="589" y="714" name="topright"/>
  <outline>
    <contour>
      <point x="246" y="-15" type="curve" smooth="yes"/>
      <point x="385" y="-15"/>
      <point x="429" y="60"/>
      <point x="429" y="196" type="curve" smooth="yes"/>
      <point x="429" y="714" type="line"/>
      <point x="403" y="714" type="line"/>
      <point x="403" y="204" type="line" smooth="yes"/>
      <point x="403" y="73"/>
      <point x="365" y="10"/>
      <point x="247" y="10" type="curve" smooth="yes"/>
      <point x="180" y="10"/>
      <point x="132" y="28"/>
      <point x="89" y="50" type="curve"/>
      <point x="89" y="22" type="line"/>
      <point x="137" y="0"/>
      <point x="184" y="-15"/>
    </contour>
  </outline>
</glyph>
<glyph name="K" format="2">
  <advance width="620"/>
  <unicode hex="004B"/>
  <anchor x="312" y="0" name="bottom"/>
  <anchor x="301" y="714" name="top"/>
  <anchor x="589" y="714" name="topright"/>
  <outline>
    <contour>
      <point x="81" y="0" type="line"/>
      <point x="107" y="0" type="line"/>
      <point x="107" y="286" type="line"/>
      <point x="221" y="393" type="line"/>
      <point x="511" y="0" type="line"/>
      <point x="542" y="0" type="line"/>
      <point x="240" y="412" type="line"/>
      <point x="540" y="714" type="line"/>
      <point x="504" y="714" type="line"/>
      <point x="171" y="389" type="line" smooth="yes"/>
      <point x="144" y="361"/>
      <point x="129" y="345"/>
      <point x="107" y="321" type="curve"/>
      <point x="107" y="714" type="line"/>
      <point x="81" y="714" type="line"/>
    </contour>
  </outline>
</glyph>
<glyph name="L" format="2">
  <advance width="620"/>
  <unicode hex="004C"/>
  <anchor x="328" y="0" name="bottom"/>
  <anchor x="301" y="357" name="center"/>
  <anchor x="138" y="714" name="top"/>
  <anchor x="434" y="714" name="topright"/>
  <outline>
    <contour>
      <point x="126" y="0" type="line"/>
      <point x="505" y="0" type="line"/>
      <point x="505" y="25" type="line"/>
      <point x="152" y="25" type="line"/>
      <point x="152" y="714" type="line"/>
      <point x="126" y="714" type="line"/>
    </contour>
  </outline>
</glyph>
<glyph name="M" format="2">
  <advance width="620"/>
  <unicode hex="004D"/>
  <anchor x="301" y="0" name="bottom"/>
  <anchor x="306" y="714" name="top"/>
  <anchor x="612" y="714" name="topright"/>
  <outline>
    <contour>
      <point x="46" y="0" type="line"/>
      <point x="72" y="0" type="line"/>
      <point x="72" y="583" type="line" smooth="yes"/>
      <point x="72" y="612"/>
      <point x="73" y="625"/>
      <point x="71" y="672" type="curve"/>
      <point x="73" y="672" type="line"/>
      <point x="283" y="193" type="line"/>
      <point x="315" y="193" type="line"/>
      <point x="527" y="671" type="line"/>
      <point x="529" y="671" type="line"/>
      <point x="530" y="640"/>
      <point x="530" y="610"/>
      <point x="530" y="579" type="curve" smooth="yes"/>
      <point x="530" y="0" type="line"/>
      <point x="556" y="0" type="line"/>
      <point x="556" y="714" type="line"/>
      <point x="516" y="714" type="line"/>
      <point x="301" y="225" type="line"/>
      <point x="297" y="225" type="line"/>
      <point x="83" y="714" type="line"/>
      <point x="46" y="714" type="line"/>
    </contour>
  </outline>
</glyph>
<glyph name="N" format="2">
  <advance width="620"/>
  <unicode hex="004E"/>
  <anchor x="301" y="0" name="bottom"/>
  <anchor x="307" y="714" name="top"/>
  <anchor x="612" y="714" name="topright"/>
  <outline>
    <contour>
      <point x="81" y="0" type="line"/>
      <point x="107" y="0" type="line"/>
      <point x="107" y="542" type="line" smooth="yes"/>
      <point x="107" y="598"/>
      <point x="108" y="632"/>
      <point x="107" y="664" type="curve"/>
      <point x="109" y="664" type="line"/>
      <point x="495" y="0" type="line"/>
      <point x="522" y="0" type="line"/>
      <point x="522" y="714" type="line"/>
      <point x="495" y="714" type="line"/>
      <point x="495" y="184" type="line" smooth="yes"/>
      <point x="495" y="152"/>
      <point x="496" y="99"/>
      <point x="496" y="54" type="curve"/>
      <point x="494" y="54" type="line"/>
      <point x="108" y="714" type="line"/>
      <point x="81" y="714" type="line"/>
    </contour>
  </outline>
</glyph>
<glyph name="O" format="2">
  <advance width="620"/>
  <unicode hex="004F"/>
  <anchor x="301" y="0" name="bottom"/>
  <anchor x="301" y="357" name="center"/>
  <anchor x="303" y="10" name="ogonek"/>
  <anchor x="301" y="714" name="top"/>
  <anchor x="13" y="714" name="topleft"/>
  <anchor x="612" y="714" name="topright"/>
  <outline>
    <contour>
      <point x="302" y="-10" type="curve" smooth="yes"/>
      <point x="491" y="-10"/>
      <point x="552" y="161"/>
      <point x="552" y="358" type="curve" smooth="yes"/>
      <point x="552" y="573"/>
      <point x="477" y="724"/>
      <point x="303" y="724" type="curve" smooth="yes"/>
      <point x="142" y="724"/>
      <point x="50" y="597"/>
      <point x="50" y="358" type="curve" smooth="yes"/>
      <point x="50" y="168"/>
      <point x="113" y="-10"/>
    </contour>
    <contour>
      <point x="302" y="15" type="curve" smooth="yes"/>
      <point x="155" y="15"/>
      <point x="76" y="144"/>
      <point x="76" y="358" type="curve" smooth="yes"/>
      <point x="76" y="571"/>
      <point x="152" y="699"/>
      <point x="302" y="699" type="curve" smooth="yes"/>
      <point x="449" y="699"/>
      <point x="526" y="577"/>
      <point x="526" y="358" type="curve" smooth="yes"/>
      <point x="526" y="139"/>
      <point x="451" y="15"/>
    </contour>
  </outline>
</glyph>
<glyph name="P" format="2">
  <advance width="620"/>
  <unicode hex="0050"/>
  <anchor x="301" y="0" name="bottom"/>
  <anchor x="301" y="714" name="top"/>
  <anchor x="612" y="714" name="topright"/>
  <outline>
    <contour>
      <point x="110" y="0" type="line"/>
      <point x="136" y="0" type="line"/>
      <point x="136" y="306" type="line"/>
      <point x="291" y="306" type="line" smooth="yes"/>
      <point x="459" y="306"/>
      <point x="553" y="369"/>
      <point x="553" y="515" type="curve" smooth="yes"/>
      <point x="553" y="661"/>
      <point x="461" y="714"/>
      <point x="293" y="714" type="curve" smooth="yes"/>
      <point x="110" y="714" type="line"/>
    </contour>
    <contour>
      <point x="136" y="331" type="line"/>
      <point x="136" y="689" type="line"/>
      <point x="285" y="689" type="line" smooth="yes"/>
      <point x="450" y="689"/>
      <point x="525" y="643"/>
      <point x="525" y="516" type="curve" smooth="yes"/>
      <point x="525" y="380"/>
      <point x="436" y="331"/>
      <point x="284" y="331" type="curve" smooth="yes"/>
    </contour>
  </outline>
</glyph>
<glyph name="Q" format="2">
  <advance width="620"/>
  <unicode hex="0051"/>
  <anchor x="301" y="-210" name="bottom"/>
  <anchor x="301" y="714" name="top"/>
  <anchor x="612" y="714" name="topright"/>
  <anchor x="3" y="714" name="topleft"/>
  <anchor x="293" y="10" name="ogonek"/>
  <anchor x="291" y="357" name="center"/>
  <outline>
    <contour>
      <point x="481" y="-170" type="line"/>
      <point x="512" y="-170" type="line"/>
      <point x="400" y="16" type="line"/>
      <point x="373" y="12" type="line"/>
    </contour>
    <component base="O" xOffset="-10"/>
  </outline>
</glyph>
<glyph name="R" format="2">
  <advance width="620"/>
  <unicode hex="0052"/>
  <anchor x="338" y="0" name="bottom"/>
  <anchor x="301" y="714" name="top"/>
  <anchor x="589" y="714" name="topright"/>
  <outline>
    <contour>
      <point x="110" y="0" type="line"/>
      <point x="136" y="0" type="line"/>
      <point x="136" y="321" type="line"/>
      <point x="337" y="321" type="line"/>
      <point x="542" y="0" type="line"/>
      <point x="574" y="0" type="line"/>
      <point x="363" y="328" type="line"/>
      <point x="478" y="352"/>
      <point x="539" y="413"/>
      <point x="539" y="523" type="curve" smooth="yes"/>
      <point x="539" y="671"/>
      <point x="439" y="714"/>
      <point x="270" y="714" type="curve" smooth="yes"/>
      <point x="110" y="714" type="line"/>
    </contour>
    <contour>
      <point x="136" y="347" type="line"/>
      <point x="136" y="689" type="line"/>
      <point x="263" y="689" type="line" smooth="yes"/>
      <point x="427" y="689"/>
      <point x="512" y="647"/>
      <point x="512" y="525" type="curve" smooth="yes"/>
      <point x="512" y="402"/>
      <point x="417" y="347"/>
      <point x="293" y="347" type="curve" smooth="yes"/>
    </contour>
  </outline>
</glyph>
<glyph name="S" format="2">
  <advance width="620"/>
  <unicode hex="0053"/>
  <anchor x="301" y="0" name="bottom"/>
  <anchor x="316" y="714" name="top"/>
  <anchor x="589" y="714" name="topright"/>
  <outline>
    <contour>
      <point x="276" y="-10" type="curve" smooth="yes"/>
      <point x="423" y="-10"/>
      <point x="521" y="54"/>
      <point x="521" y="183" type="curve" smooth="yes"/>
      <point x="521" y="299"/>
      <point x="438" y="330"/>
      <point x="307" y="376" type="curve" smooth="yes"/>
      <point x="204" y="411"/>
      <point x="121" y="440"/>
      <point x="121" y="545" type="curve" smooth="yes"/>
      <point x="121" y="650"/>
      <point x="210" y="699"/>
      <point x="323" y="699" type="curve" smooth="yes"/>
      <point x="366" y="699"/>
      <point x="422" y="693"/>
      <point x="486" y="667" type="curve"/>
      <point x="498" y="691" type="line"/>
      <point x="440" y="712"/>
      <point x="381" y="724"/>
      <point x="323" y="724" type="curve" smooth="yes"/>
      <point x="191" y="724"/>
      <point x="94" y="665"/>
      <point x="94" y="542" type="curve" smooth="yes"/>
      <point x="94" y="427"/>
      <point x="176" y="394"/>
      <point x="294" y="353" type="curve" smooth="yes"/>
      <point x="422" y="308"/>
      <point x="494" y="282"/>
      <point x="494" y="182" type="curve" smooth="yes"/>
      <point x="494" y="71"/>
      <point x="405" y="16"/>
      <point x="276" y="16" type="curve" smooth="yes"/>
      <point x="214" y="16"/>
      <point x="142" y="30"/>
      <point x="89" y="46" type="curve"/>
      <point x="89" y="18" type="line"/>
      <point x="140" y="3"/>
      <point x="207" y="-10"/>
    </contour>
  </outline>
</glyph>
<glyph name="T" format="2">
  <advance width="620"/>
  <unicode hex="0054"/>
  <anchor x="301" y="0" name="bottom"/>
  <anchor x="301" y="357" name="center"/>
  <anchor x="301" y="714" name="top"/>
  <anchor x="589" y="714" name="topright"/>
  <outline>
    <contour>
      <point x="287" y="0" type="line"/>
      <point x="313" y="0" type="line"/>
      <point x="313" y="689" type="line"/>
      <point x="558" y="689" type="line"/>
      <point x="558" y="714" type="line"/>
      <point x="45" y="714" type="line"/>
      <point x="45" y="689" type="line"/>
      <point x="287" y="689" type="line"/>
    </contour>
  </outline>
</glyph>
<glyph name="U" format="2">
  <advance width="620"/>
  <unicode hex="0055"/>
  <anchor x="301" y="0" name="bottom"/>
  <anchor x="550" y="10" name="ogonek"/>
  <anchor x="301" y="714" name="top"/>
  <anchor x="589" y="714" name="topright"/>
  <outline>
    <contour>
      <point x="298" y="-10" type="curve" smooth="yes"/>
      <point x="431" y="-10"/>
      <point x="522" y="64"/>
      <point x="522" y="237" type="curve" smooth="yes"/>
      <point x="522" y="714" type="line"/>
      <point x="496" y="714" type="line"/>
      <point x="496" y="242" type="line" smooth="yes"/>
      <point x="496" y="83"/>
      <point x="420" y="15"/>
      <point x="300" y="15" type="curve" smooth="yes"/>
      <point x="172" y="15"/>
      <point x="107" y="89"/>
      <point x="107" y="245" type="curve" smooth="yes"/>
      <point x="107" y="714" type="line"/>
      <point x="81" y="714" type="line"/>
      <point x="81" y="242" type="line" smooth="yes"/>
      <point x="81" y="74"/>
      <point x="155" y="-10"/>
    </contour>
  </outline>
</glyph>
<glyph name="V" format="2">
  <advance width="620"/>
  <unicode hex="0056"/>
  <anchor x="301" y="0" name="bottom"/>
  <anchor x="301" y="714" name="top"/>
  <anchor x="589" y="714" name="topright"/>
  <outline>
    <contour>
      <point x="286" y="0" type="line"/>
      <point x="314" y="0" type="line"/>
      <point x="575" y="714" type="line"/>
      <point x="547" y="714" type="line"/>
      <point x="337" y="141" type="line" smooth="yes"/>
      <point x="322" y="100"/>
      <point x="311" y="66"/>
      <point x="301" y="34" type="curve"/>
      <point x="300" y="34" type="line"/>
      <point x="290" y="67"/>
      <point x="278" y="101"/>
      <point x="264" y="141" type="curve" smooth="yes"/>
      <point x="54" y="714" type="line"/>
      <point x="27" y="714" type="line"/>
    </contour>
  </outline>
</glyph>
<glyph name="W" format="2">
  <advance width="620"/>
  <unicode hex="0057"/>
  <anchor x="301" y="0" name="bottom"/>
  <anchor x="301" y="714" name="top"/>
  <anchor x="589" y="714" name="topright"/>
  <outline>
    <contour>
      <point x="151" y="0" type="line"/>
      <point x="190" y="0" type="line"/>
      <point x="278" y="380" type="line" smooth="yes"/>
      <point x="288" y="419"/>
      <point x="292" y="439"/>
      <point x="301" y="482" type="curve"/>
      <point x="303" y="482" type="line"/>
      <point x="310" y="439"/>
      <point x="313" y="418"/>
      <point x="323" y="380" type="curve" smooth="yes"/>
      <point x="411" y="0" type="line"/>
      <point x="448" y="0" type="line"/>
      <point x="575" y="714" type="line"/>
      <point x="547" y="714" type="line"/>
      <point x="515" y="526"/>
      <point x="482" y="340"/>
      <point x="450" y="153" type="curve" smooth="yes"/>
      <point x="443" y="109"/>
      <point x="439" y="73"/>
      <point x="432" y="27" type="curve"/>
      <point x="429" y="27" type="line"/>
      <point x="421" y="71"/>
      <point x="415" y="107"/>
      <point x="404" y="153" type="curve" smooth="yes"/>
      <point x="314" y="528" type="line"/>
      <point x="287" y="528" type="line"/>
      <point x="196" y="151" type="line" smooth="yes"/>
      <point x="183" y="101"/>
      <point x="180" y="70"/>
      <point x="172" y="29" type="curve"/>
      <point x="170" y="29" type="line"/>
      <point x="164" y="72"/>
      <point x="159" y="103"/>
      <point x="150" y="151" type="curve" smooth="yes"/>
      <point x="120" y="340"/>
      <point x="86" y="526"/>
      <point x="54" y="714" type="curve"/>
      <point x="27" y="714" type="line"/>
    </contour>
  </outline>
</glyph>
<glyph name="X" format="2">
  <advance width="620"/>
  <unicode hex="0058"/>
  <anchor x="308" y="0" name="bottom"/>
  <anchor x="308" y="714" name="top"/>
  <anchor x="589" y="714" name="topright"/>
  <outline>
    <contour>
      <point x="38" y="0" type="line"/>
      <point x="69" y="0" type="line"/>
      <point x="306" y="349" type="line"/>
      <point x="534" y="0" type="line"/>
      <point x="564" y="0" type="line"/>
      <point x="321" y="372" type="line"/>
      <point x="550" y="714" type="line"/>
      <point x="519" y="714" type="line"/>
      <point x="305" y="395" type="line"/>
      <point x="96" y="714" type="line"/>
      <point x="67" y="714" type="line"/>
      <point x="290" y="372" type="line"/>
    </contour>
  </outline>
</glyph>
<glyph name="Y" format="2">
  <advance width="620"/>
  <unicode hex="0059"/>
  <anchor x="301" y="0" name="bottom"/>
  <anchor x="301" y="714" name="top"/>
  <anchor x="13" y="714" name="topleft"/>
  <anchor x="589" y="714" name="topright"/>
  <outline>
    <contour>
      <point x="289" y="0" type="line"/>
      <point x="315" y="0" type="line"/>
      <point x="315" y="275" type="line"/>
      <point x="564" y="714" type="line"/>
      <point x="535" y="714" type="line"/>
      <point x="302" y="301" type="line"/>
      <point x="66" y="714" type="line"/>
      <point x="38" y="714" type="line"/>
      <point x="289" y="274" type="line"/>
    </contour>
  </outline>
</glyph>
<glyph name="Z" format="2">
  <advance width="620"/>
  <unicode hex="005A"/>
  <anchor x="329" y="0" name="bottom"/>
  <anchor x="319" y="714" name="top"/>
  <anchor x="589" y="714" name="topright"/>
  <outline>
    <contour>
      <point x="110" y="0" type="line"/>
      <point x="515" y="0" type="line"/>
      <point x="515" y="25" type="line"/>
      <point x="142" y="25" type="line"/>
      <point x="501" y="694" type="line"/>
      <point x="501" y="714" type="line"/>
      <point x="137" y="714" type="line"/>
      <point x="137" y="689" type="line"/>
      <point x="470" y="689" type="line"/>
      <point x="110" y="20" type="line"/>
    </contour>
  </outline>
</glyph>
<glyph name="bracketleft" format="2">
  <advance width="620"/>
  <unicode hex="005B"/>
  <outline>
    <contour>
      <point x="242" y="-158" type="line"/>
      <point x="465" y="-158" type="line"/>
      <point x="465" y="-134" type="line"/>
      <point x="267" y="-134" type="line"/>
      <point x="267" y="690" type="line"/>
      <point x="465" y="690" type="line"/>
      <point x="465" y="714" type="line"/>
      <point x="242" y="714" type="line"/>
    </contour>
  </outline>
</glyph>
<glyph name="asciicircum" format="2">
  <advance width="620"/>
  <unicode hex="005E"/>
  <outline>
    <contour>
      <point x="47" y="309" type="line"/>
      <point x="78" y="309" type="line"/>
      <point x="310" y="684" type="line"/>
      <point x="524" y="309" type="line"/>
      <point x="555" y="309" type="line"/>
      <point x="324" y="717" type="line"/>
      <point x="299" y="717" type="line"/>
    </contour>
  </outline>
</glyph>
<glyph name="grave" format="2">
  <advance width="620"/>
  <unicode hex="0060"/>
  <outline>
    <contour>
      <point x="360" y="606" type="curve"/>
      <point x="381" y="606" type="line"/>
      <point x="381" y="614" type="line"/>
      <point x="331" y="656"/>
      <point x="263" y="718"/>
      <point x="227" y="765" type="curve"/>
      <point x="197" y="765" type="line"/>
      <point x="197" y="758" type="line"/>
      <point x="237" y="711"/>
      <point x="305" y="648"/>
    </contour>
  </outline>
</glyph>
<glyph name="a" format="2">
  <advance width="620"/>
  <unicode hex="0061"/>
  <anchor x="305" y="0" name="bottom"/>
  <anchor x="550" y="10" name="ogonek"/>
  <anchor x="306" y="528" name="top"/>
  <anchor x="589" y="528" name="topright"/>
  <outline>
    <contour>
      <point x="259" y="-10" type="curve" smooth="yes"/>
      <point x="375" y="-10"/>
      <point x="437" y="42"/>
      <point x="464" y="100" type="curve"/>
      <point x="466" y="100" type="line"/>
      <point x="469" y="0" type="line"/>
      <point x="491" y="0" type="line"/>
      <point x="491" y="353" type="line" smooth="yes"/>
      <point x="491" y="483"/>
      <point x="432" y="537"/>
      <point x="309" y="537" type="curve" smooth="yes"/>
      <point x="251" y="537"/>
      <point x="193" y="524"/>
      <point x="139" y="500" type="curve"/>
      <point x="149" y="476" type="line"/>
      <point x="209" y="503"/>
      <point x="259" y="512"/>
      <point x="309" y="512" type="curve" smooth="yes"/>
      <point x="416" y="512"/>
      <point x="465" y="468"/>
      <point x="465" y="347" type="curve" smooth="yes"/>
      <point x="465" y="302" type="line"/>
      <point x="350" y="295" type="line" smooth="yes"/>
      <point x="188" y="285"/>
      <point x="87" y="236"/>
      <point x="87" y="129" type="curve" smooth="yes"/>
      <point x="87" y="49"/>
      <point x="144" y="-10"/>
    </contour>
    <contour>
      <point x="259" y="14" type="curve" smooth="yes"/>
      <point x="165" y="14"/>
      <point x="115" y="56"/>
      <point x="115" y="129" type="curve" smooth="yes"/>
      <point x="115" y="223"/>
      <point x="209" y="263"/>
      <point x="352" y="272" type="curve" smooth="yes"/>
      <point x="465" y="277" type="line"/>
      <point x="465" y="220" type="line" smooth="yes"/>
      <point x="465" y="98"/>
      <point x="400" y="14"/>
    </contour>
  </outline>
</glyph>
<glyph name="b" format="2">
  <advance width="620"/>
  <unicode hex="0062"/>
  <anchor x="301" y="0" name="bottom"/>
  <anchor x="301" y="760" name="top"/>
  <anchor x="589" y="760" name="topright"/>
  <outline>
    <contour>
      <point x="306" y="-10" type="curve" smooth="yes"/>
      <point x="471" y="-10"/>
      <point x="537" y="104"/>
      <point x="537" y="270" type="curve" smooth="yes"/>
      <point x="537" y="443"/>
      <point x="465" y="538"/>
      <point x="321" y="538" type="curve" smooth="yes"/>
      <point x="217" y="538"/>
      <point x="145" y="483"/>
      <point x="126" y="407" type="curve"/>
      <point x="123" y="407" type="line"/>
      <point x="124" y="438"/>
      <point x="125" y="481"/>
      <point x="125" y="510" type="curve" smooth="yes"/>
      <point x="125" y="760" type="line"/>
      <point x="99" y="760" type="line"/>
      <point x="99" y="0" type="line"/>
      <point x="121" y="0" type="line"/>
      <point x="125" y="102" type="line"/>
      <point x="127" y="102" type="line"/>
      <point x="151" y="36"/>
      <point x="208" y="-10"/>
    </contour>
    <contour>
      <point x="307" y="16" type="curve" smooth="yes"/>
      <point x="183" y="16"/>
      <point x="125" y="98"/>
      <point x="125" y="260" type="curve" smooth="yes"/>
      <point x="125" y="424"/>
      <point x="188" y="513"/>
      <point x="321" y="513" type="curve" smooth="yes"/>
      <point x="451" y="513"/>
      <point x="510" y="427"/>
      <point x="510" y="269" type="curve" smooth="yes"/>
      <point x="510" y="102"/>
      <point x="439" y="16"/>
    </contour>
  </outline>
</glyph>
<glyph name="c" format="2">
  <advance width="620"/>
  <unicode hex="0063"/>
  <anchor x="349" y="0" name="bottom"/>
  <anchor x="341" y="528" name="top"/>
  <anchor x="589" y="528" name="topright"/>
  <outline>
    <contour>
      <point x="359" y="-10" type="curve" smooth="yes"/>
      <point x="417" y="-10"/>
      <point x="473" y="0"/>
      <point x="507" y="13" type="curve"/>
      <point x="507" y="39" type="line"/>
      <point x="467" y="24"/>
      <point x="409" y="15"/>
      <point x="360" y="15" type="curve" smooth="yes"/>
      <point x="192" y="15"/>
      <point x="124" y="122"/>
      <point x="124" y="259" type="curve" smooth="yes"/>
      <point x="124" y="416"/>
      <point x="222" y="513"/>
      <point x="377" y="513" type="curve" smooth="yes"/>
      <point x="417" y="513"/>
      <point x="466" y="507"/>
      <point x="504" y="491" type="curve"/>
      <point x="511" y="516" type="line"/>
      <point x="473" y="531"/>
      <point x="428" y="538"/>
      <point x="378" y="538" type="curve" smooth="yes"/>
      <point x="202" y="538"/>
      <point x="97" y="429"/>
      <point x="97" y="258" type="curve" smooth="yes"/>
      <point x="97" y="103"/>
      <point x="175" y="-10"/>
    </contour>
  </outline>
</glyph>
<glyph name="d" format="2">
  <advance width="620"/>
  <unicode hex="0064"/>
  <anchor x="301" y="0" name="bottom"/>
  <anchor x="301" y="264" name="center"/>
  <anchor x="301" y="760" name="top"/>
  <anchor x="589" y="760" name="topright"/>
  <outline>
    <contour>
      <point x="280" y="-10" type="curve" smooth="yes"/>
      <point x="395" y="-10"/>
      <point x="452" y="47"/>
      <point x="477" y="111" type="curve"/>
      <point x="479" y="111" type="line"/>
      <point x="482" y="0" type="line"/>
      <point x="503" y="0" type="line"/>
      <point x="503" y="760" type="line"/>
      <point x="477" y="760" type="line"/>
      <point x="477" y="528" type="line" smooth="yes"/>
      <point x="477" y="493"/>
      <point x="478" y="456"/>
      <point x="479" y="417" type="curve"/>
      <point x="477" y="417" type="line"/>
      <point x="456" y="480"/>
      <point x="399" y="538"/>
      <point x="288" y="538" type="curve" smooth="yes"/>
      <point x="146" y="538"/>
      <point x="65" y="439"/>
      <point x="65" y="255" type="curve" smooth="yes"/>
      <point x="65" y="84"/>
      <point x="134" y="-10"/>
    </contour>
    <contour>
      <point x="281" y="15" type="curve" smooth="yes"/>
      <point x="153" y="15"/>
      <point x="92" y="98"/>
      <point x="92" y="255" type="curve" smooth="yes"/>
      <point x="92" y="426"/>
      <point x="162" y="513"/>
      <point x="288" y="513" type="curve" smooth="yes"/>
      <point x="415" y="513"/>
      <point x="477" y="428"/>
      <point x="477" y="283" type="curve" smooth="yes"/>
      <point x="477" y="249" type="line" smooth="yes"/>
      <point x="477" y="103"/>
      <point x="421" y="15"/>
    </contour>
  </outline>
</glyph>
<glyph name="e" format="2">
  <advance width="620"/>
  <unicode hex="0065"/>
  <anchor x="312" y="0" name="bottom"/>
  <anchor x="320" y="10" name="ogonek"/>
  <anchor x="309" y="528" name="top"/>
  <anchor x="589" y="528" name="topright"/>
  <outline>
    <contour>
      <point x="338" y="-10" type="curve" smooth="yes"/>
      <point x="403" y="-10"/>
      <point x="463" y="2"/>
      <point x="515" y="23" type="curve"/>
      <point x="515" y="51" type="line"/>
      <point x="457" y="26"/>
      <point x="405" y="15"/>
      <point x="338" y="15" type="curve" smooth="yes"/>
      <point x="176" y="15"/>
      <point x="102" y="104"/>
      <point x="102" y="269" type="curve"/>
      <point x="533" y="269" type="line"/>
      <point x="533" y="294" type="line" smooth="yes"/>
      <point x="533" y="427"/>
      <point x="473" y="538"/>
      <point x="317" y="538" type="curve" smooth="yes"/>
      <point x="151" y="538"/>
      <point x="75" y="416"/>
      <point x="75" y="259" type="curve" smooth="yes"/>
      <point x="75" y="101"/>
      <point x="151" y="-10"/>
    </contour>
    <contour>
      <point x="104" y="293" type="line"/>
      <point x="116" y="438"/>
      <point x="198" y="513"/>
      <point x="317" y="513" type="curve" smooth="yes"/>
      <point x="448" y="513"/>
      <point x="507" y="421"/>
      <point x="507" y="293" type="curve"/>
    </contour>
  </outline>
</glyph>
<glyph name="f" format="2">
  <advance width="620"/>
  <unicode hex="0066"/>
  <anchor x="301" y="0" name="bottom"/>
  <anchor x="423" y="763" name="top"/>
  <anchor x="589" y="765" name="topright"/>
  <outline>
    <contour>
      <point x="275" y="0" type="line"/>
      <point x="301" y="0" type="line"/>
      <point x="301" y="503" type="line"/>
      <point x="525" y="503" type="line"/>
      <point x="525" y="528" type="line"/>
      <point x="301" y="528" type="line"/>
      <point x="301" y="598" type="line" smooth="yes"/>
      <point x="301" y="701"/>
      <point x="346" y="741"/>
      <point x="456" y="741" type="curve" smooth="yes"/>
      <point x="489" y="741"/>
      <point x="525" y="737"/>
      <point x="552" y="729" type="curve"/>
      <point x="558" y="753" type="line"/>
      <point x="533" y="760"/>
      <point x="491" y="765"/>
      <point x="457" y="765" type="curve" smooth="yes"/>
      <point x="325" y="765"/>
      <point x="275" y="710"/>
      <point x="275" y="604" type="curve" smooth="yes"/>
      <point x="275" y="528" type="line"/>
      <point x="91" y="524" type="line"/>
      <point x="91" y="503" type="line"/>
      <point x="275" y="503" type="line"/>
    </contour>
  </outline>
</glyph>
<glyph name="g" format="2">
  <advance width="620"/>
  <unicode hex="0067"/>
  <anchor x="301" y="-243" name="bottom"/>
  <anchor x="301" y="528" name="top"/>
  <anchor x="589" y="528" name="topright"/>
  <outline>
    <contour>
      <point x="265" y="-243" type="curve" smooth="yes"/>
      <point x="437" y="-243"/>
      <point x="503" y="-163"/>
      <point x="503" y="-33" type="curve" smooth="yes"/>
      <point x="503" y="528" type="line"/>
      <point x="482" y="528" type="line"/>
      <point x="477" y="437" type="line"/>
      <point x="475" y="437" type="line"/>
      <point x="448" y="492"/>
      <point x="398" y="538"/>
      <point x="295" y="538" type="curve" smooth="yes"/>
      <point x="139" y="538"/>
      <point x="65" y="432"/>
      <point x="65" y="259" type="curve" smooth="yes"/>
      <point x="65" y="78"/>
      <point x="144" y="-10"/>
      <point x="280" y="-10" type="curve" smooth="yes"/>
      <point x="384" y="-10"/>
      <point x="454" y="41"/>
      <point x="477" y="117" type="curve"/>
      <point x="480" y="117" type="line"/>
      <point x="477" y="77"/>
      <point x="477" y="52"/>
      <point x="477" y="15" type="curve" smooth="yes"/>
      <point x="477" y="-30" type="line" smooth="yes"/>
      <point x="477" y="-150"/>
      <point x="417" y="-218"/>
      <point x="267" y="-218" type="curve" smooth="yes"/>
      <point x="193" y="-218"/>
      <point x="136" y="-201"/>
      <point x="88" y="-179" type="curve"/>
      <point x="88" y="-208" type="line"/>
      <point x="135" y="-228"/>
      <point x="191" y="-243"/>
    </contour>
    <contour>
      <point x="282" y="15" type="curve" smooth="yes"/>
      <point x="155" y="15"/>
      <point x="91" y="97"/>
      <point x="91" y="258" type="curve" smooth="yes"/>
      <point x="91" y="414"/>
      <point x="152" y="513"/>
      <point x="293" y="513" type="curve" smooth="yes"/>
      <point x="433" y="513"/>
      <point x="477" y="421"/>
      <point x="477" y="306" type="curve" smooth="yes"/>
      <point x="477" y="238" type="line" smooth="yes"/>
      <point x="477" y="133"/>
      <point x="437" y="15"/>
    </contour>
  </outline>
</glyph>
<glyph name="i" format="2">
  <advance width="620"/>
  <unicode hex="0069"/>
  <anchor x="317" y="0" name="bottom"/>
  <anchor x="314" y="734" name="top"/>
  <anchor x="500" y="734" name="topright"/>
  <outline>
    <contour>
      <point x="94" y="0" type="line"/>
      <point x="533" y="0" type="line"/>
      <point x="533" y="21" type="line"/>
      <point x="332" y="25" type="line"/>
      <point x="332" y="528" type="line"/>
      <point x="115" y="528" type="line"/>
      <point x="115" y="507" type="line"/>
      <point x="306" y="503" type="line"/>
      <point x="306" y="25" type="line"/>
      <point x="94" y="21" type="line"/>
    </contour>
    <contour>
      <point x="316" y="660" type="curve" smooth="yes"/>
      <point x="345" y="660"/>
      <point x="348" y="679"/>
      <point x="348" y="697" type="curve" smooth="yes"/>
      <point x="348" y="716"/>
      <point x="343" y="734"/>
      <point x="316" y="734" type="curve" smooth="yes"/>
      <point x="287" y="734"/>
      <point x="281" y="716"/>
      <point x="281" y="697" type="curve" smooth="yes"/>
      <point x="281" y="677"/>
      <point x="288" y="660"/>
    </contour>
  </outline>
</glyph>
<glyph name="j" format="2">
  <advance width="620"/>
  <unicode hex="006A"/>
  <anchor x="242" y="-248" name="bottom"/>
  <anchor x="348" y="727" name="top"/>
  <anchor x="589" y="727" name="topright"/>
  <outline>
    <contour>
      <point x="196" y="-248" type="curve" smooth="yes"/>
      <point x="295" y="-248"/>
      <point x="363" y="-196"/>
      <point x="363" y="-88" type="curve" smooth="yes"/>
      <point x="363" y="528" type="line"/>
      <point x="132" y="528" type="line"/>
      <point x="132" y="507" type="line"/>
      <point x="337" y="503" type="line"/>
      <point x="337" y="-81" type="line" smooth="yes"/>
      <point x="337" y="-168"/>
      <point x="291" y="-222"/>
      <point x="197" y="-222" type="curve" smooth="yes"/>
      <point x="153" y="-222"/>
      <point x="84" y="-210"/>
      <point x="63" y="-201" type="curve"/>
      <point x="63" y="-228" type="line"/>
      <point x="80" y="-234"/>
      <point x="140" y="-248"/>
    </contour>
    <contour>
      <point x="347" y="653" type="curve" smooth="yes"/>
      <point x="376" y="653"/>
      <point x="379" y="672"/>
      <point x="379" y="690" type="curve" smooth="yes"/>
      <point x="379" y="709"/>
      <point x="374" y="727"/>
      <point x="347" y="727" type="curve" smooth="yes"/>
      <point x="317" y="727"/>
      <point x="312" y="709"/>
      <point x="312" y="690" type="curve" smooth="yes"/>
      <point x="312" y="670"/>
      <point x="319" y="653"/>
    </contour>
  </outline>
</glyph>
<glyph name="k" format="2">
  <advance width="620"/>
  <unicode hex="006B"/>
  <anchor x="342" y="0" name="bottom"/>
  <anchor x="340" y="760" name="top"/>
  <anchor x="589" y="760" name="topright"/>
  <outline>
    <contour>
      <point x="140" y="0" type="line"/>
      <point x="166" y="0" type="line"/>
      <point x="166" y="179" type="line"/>
      <point x="291" y="290" type="line"/>
      <point x="526" y="0" type="line"/>
      <point x="556" y="0" type="line"/>
      <point x="310" y="308" type="line"/>
      <point x="536" y="528" type="line"/>
      <point x="503" y="528" type="line"/>
      <point x="231" y="274" type="line" smooth="yes"/>
      <point x="208" y="253"/>
      <point x="189" y="233"/>
      <point x="167" y="211" type="curve"/>
      <point x="165" y="211" type="line"/>
      <point x="166" y="270"/>
      <point x="166" y="319"/>
      <point x="166" y="377" type="curve" smooth="yes"/>
      <point x="166" y="760" type="line"/>
      <point x="140" y="760" type="line"/>
    </contour>
  </outline>
</glyph>
<glyph name="l" format="2">
  <advance width="620"/>
  <unicode hex="006C"/>
  <anchor x="311" y="0" name="bottom"/>
  <anchor x="311" y="377" name="center"/>
  <anchor x="301" y="760" name="top"/>
  <anchor x="487" y="760" name="topright"/>
  <outline>
    <contour>
      <point x="94" y="0" type="line"/>
      <point x="533" y="0" type="line"/>
      <point x="533" y="21" type="line"/>
      <point x="325" y="25" type="line"/>
      <point x="325" y="760" type="line"/>
      <point x="113" y="760" type="line"/>
      <point x="113" y="739" type="line"/>
      <point x="299" y="735" type="line"/>
      <point x="299" y="25" type="line"/>
      <point x="94" y="21" type="line"/>
    </contour>
  </outline>
</glyph>
<glyph name="m" format="2">
  <advance width="620"/>
  <unicode hex="006D"/>
  <anchor x="303" y="0" name="bottom"/>
  <anchor x="307" y="528" name="top"/>
  <anchor x="589" y="528" name="topright"/>
  <outline>
    <contour>
      <point x="62" y="0" type="line"/>
      <point x="89" y="0" type="line"/>
      <point x="89" y="353" type="line" smooth="yes"/>
      <point x="89" y="430"/>
      <point x="124" y="513"/>
      <point x="204" y="513" type="curve" smooth="yes"/>
      <point x="250" y="513"/>
      <point x="290" y="491"/>
      <point x="290" y="374" type="curve" smooth="yes"/>
      <point x="290" y="0" type="line"/>
      <point x="317" y="0" type="line"/>
      <point x="317" y="358" type="line" smooth="yes"/>
      <point x="317" y="453"/>
      <point x="361" y="513"/>
      <point x="429" y="513" type="curve" smooth="yes"/>
      <point x="477" y="513"/>
      <point x="516" y="487"/>
      <point x="516" y="391" type="curve" smooth="yes"/>
      <point x="516" y="0" type="line"/>
      <point x="543" y="0" type="line"/>
      <point x="543" y="396" type="line" smooth="yes"/>
      <point x="543" y="499"/>
      <point x="500" y="537"/>
      <point x="431" y="537" type="curve" smooth="yes"/>
      <point x="362" y="537"/>
      <point x="329" y="498"/>
      <point x="310" y="450" type="curve"/>
      <point x="307" y="450" type="line"/>
      <point x="301" y="493"/>
      <point x="274" y="537"/>
      <point x="204" y="537" type="curve" smooth="yes"/>
      <point x="126" y="537"/>
      <point x="100" y="486"/>
      <point x="86" y="448" type="curve"/>
      <point x="84" y="448" type="line"/>
      <point x="81" y="528" type="line"/>
      <point x="62" y="528" type="line"/>
    </contour>
  </outline>
</glyph>
<glyph name="n" format="2">
  <advance width="620"/>
  <unicode hex="006E"/>
  <anchor x="311" y="0" name="bottom"/>
  <anchor x="308" y="528" name="top"/>
  <anchor x="589" y="528" name="topright"/>
  <outline>
    <contour>
      <point x="99" y="0" type="line"/>
      <point x="125" y="0" type="line"/>
      <point x="125" y="305" type="line" smooth="yes"/>
      <point x="125" y="446"/>
      <point x="208" y="512"/>
      <point x="323" y="512" type="curve" smooth="yes"/>
      <point x="423" y="512"/>
      <point x="483" y="465"/>
      <point x="483" y="352" type="curve" smooth="yes"/>
      <point x="483" y="0" type="line"/>
      <point x="509" y="0" type="line"/>
      <point x="509" y="359" type="line" smooth="yes"/>
      <point x="509" y="481"/>
      <point x="440" y="537"/>
      <point x="322" y="537" type="curve" smooth="yes"/>
      <point x="204" y="537"/>
      <point x="147" y="476"/>
      <point x="125" y="416" type="curve"/>
      <point x="122" y="416" type="line"/>
      <point x="120" y="528" type="line"/>
      <point x="99" y="528" type="line"/>
    </contour>
  </outline>
</glyph>
<glyph name="o" format="2">
  <advance width="620"/>
  <unicode hex="006F"/>
  <anchor x="301" y="0" name="bottom"/>
  <anchor x="301" y="264" name="center"/>
  <anchor x="302" y="13" name="ogonek"/>
  <anchor x="301" y="528" name="top"/>
  <anchor x="589" y="528" name="topright"/>
  <outline>
    <contour>
      <point x="302" y="-10" type="curve" smooth="yes"/>
      <point x="465" y="-10"/>
      <point x="537" y="99"/>
      <point x="537" y="265" type="curve" smooth="yes"/>
      <point x="537" y="422"/>
      <point x="474" y="537"/>
      <point x="306" y="537" type="curve" smooth="yes"/>
      <point x="150" y="537"/>
      <point x="65" y="436"/>
      <point x="65" y="265" type="curve" smooth="yes"/>
      <point x="65" y="99"/>
      <point x="140" y="-10"/>
    </contour>
    <contour>
      <point x="302" y="15" type="curve" smooth="yes"/>
      <point x="158" y="15"/>
      <point x="91" y="112"/>
      <point x="91" y="265" type="curve" smooth="yes"/>
      <point x="91" y="422"/>
      <point x="167" y="512"/>
      <point x="306" y="512" type="curve" smooth="yes"/>
      <point x="457" y="512"/>
      <point x="511" y="407"/>
      <point x="511" y="265" type="curve" smooth="yes"/>
      <point x="511" y="111"/>
      <point x="447" y="15"/>
    </contour>
  </outline>
</glyph>
<glyph name="p" format="2">
  <advance width="620"/>
  <unicode hex="0070"/>
  <anchor x="331" y="-240" name="bottom"/>
  <anchor x="331" y="528" name="top"/>
  <anchor x="589" y="528" name="topright"/>
  <outline>
    <contour>
      <point x="99" y="-240" type="line"/>
      <point x="125" y="-240" type="line"/>
      <point x="125" y="2" type="line" smooth="yes"/>
      <point x="125" y="41"/>
      <point x="125" y="80"/>
      <point x="123" y="114" type="curve"/>
      <point x="125" y="114" type="line"/>
      <point x="146" y="50"/>
      <point x="204" y="-10"/>
      <point x="314" y="-10" type="curve" smooth="yes"/>
      <point x="454" y="-10"/>
      <point x="537" y="85"/>
      <point x="537" y="270" type="curve" smooth="yes"/>
      <point x="537" y="446"/>
      <point x="465" y="537"/>
      <point x="325" y="537" type="curve" smooth="yes"/>
      <point x="207" y="537"/>
      <point x="146" y="471"/>
      <point x="123" y="402" type="curve"/>
      <point x="121" y="402" type="line"/>
      <point x="120" y="528" type="line"/>
      <point x="99" y="528" type="line"/>
    </contour>
    <contour>
      <point x="316" y="15" type="curve" smooth="yes"/>
      <point x="202" y="15"/>
      <point x="125" y="95"/>
      <point x="125" y="248" type="curve" smooth="yes"/>
      <point x="125" y="274" type="line" smooth="yes"/>
      <point x="125" y="419"/>
      <point x="197" y="512"/>
      <point x="325" y="512" type="curve" smooth="yes"/>
      <point x="449" y="512"/>
      <point x="511" y="431"/>
      <point x="511" y="270" type="curve" smooth="yes"/>
      <point x="511" y="93"/>
      <point x="435" y="15"/>
    </contour>
  </outline>
</glyph>
<glyph name="q" format="2">
  <advance width="620"/>
  <unicode hex="0071"/>
  <anchor x="290" y="-235" name="bottom"/>
  <anchor x="290" y="528" name="top"/>
  <anchor x="589" y="528" name="topright"/>
  <outline>
    <contour>
      <point x="477" y="-235" type="line"/>
      <point x="503" y="-235" type="line"/>
      <point x="503" y="528" type="line"/>
      <point x="482" y="528" type="line"/>
      <point x="478" y="425" type="line"/>
      <point x="476" y="425" type="line"/>
      <point x="454" y="487"/>
      <point x="394" y="537"/>
      <point x="290" y="537" type="curve" smooth="yes"/>
      <point x="133" y="537"/>
      <point x="65" y="422"/>
      <point x="65" y="259" type="curve" smooth="yes"/>
      <point x="65" y="84"/>
      <point x="138" y="-11"/>
      <point x="279" y="-11" type="curve" smooth="yes"/>
      <point x="385" y="-11"/>
      <point x="450" y="44"/>
      <point x="477" y="119" type="curve"/>
      <point x="480" y="119" type="line"/>
      <point x="478" y="87"/>
      <point x="477" y="38"/>
      <point x="477" y="12" type="curve" smooth="yes"/>
    </contour>
    <contour>
      <point x="278" y="15" type="curve" smooth="yes"/>
      <point x="157" y="15"/>
      <point x="92" y="96"/>
      <point x="92" y="259" type="curve" smooth="yes"/>
      <point x="92" y="420"/>
      <point x="160" y="511"/>
      <point x="289" y="511" type="curve" smooth="yes"/>
      <point x="411" y="511"/>
      <point x="477" y="433"/>
      <point x="477" y="291" type="curve" smooth="yes"/>
      <point x="477" y="248" type="line" smooth="yes"/>
      <point x="477" y="106"/>
      <point x="409" y="15"/>
    </contour>
  </outline>
</glyph>
<glyph name="r" format="2">
  <advance width="620"/>
  <unicode hex="0072"/>
  <anchor x="279" y="0" name="bottom"/>
  <anchor x="343" y="528" name="top"/>
  <anchor x="589" y="528" name="topright"/>
  <outline>
    <contour>
      <point x="84" y="0" type="line"/>
      <point x="496" y="0" type="line"/>
      <point x="496" y="21" type="line"/>
      <point x="292" y="25" type="line"/>
      <point x="292" y="293" type="line" smooth="yes"/>
      <point x="292" y="428"/>
      <point x="353" y="510"/>
      <point x="472" y="510" type="curve" smooth="yes"/>
      <point x="504" y="510"/>
      <point x="538" y="505"/>
      <point x="565" y="497" type="curve"/>
      <point x="571" y="523" type="line"/>
      <point x="548" y="530"/>
      <point x="507" y="536"/>
      <point x="472" y="536" type="curve" smooth="yes"/>
      <point x="374" y="536"/>
      <point x="314" y="482"/>
      <point x="295" y="420" type="curve"/>
      <point x="292" y="420" type="line"/>
      <point x="291" y="528" type="line"/>
      <point x="105" y="528" type="line"/>
      <point x="105" y="507" type="line"/>
      <point x="266" y="503" type="line"/>
      <point x="266" y="25" type="line"/>
      <point x="84" y="21" type="line"/>
    </contour>
  </outline>
</glyph>
<glyph name="s" format="2">
  <advance width="620"/>
  <unicode hex="0073"/>
  <anchor x="306" y="0" name="bottom"/>
  <anchor x="306" y="528" name="top"/>
  <anchor x="589" y="528" name="topright"/>
  <outline>
    <contour>
      <point x="293" y="-10" type="curve" smooth="yes"/>
      <point x="427" y="-10"/>
      <point x="489" y="44"/>
      <point x="489" y="130" type="curve" smooth="yes"/>
      <point x="489" y="225"/>
      <point x="409" y="250"/>
      <point x="311" y="284" type="curve" smooth="yes"/>
      <point x="224" y="315"/>
      <point x="162" y="334"/>
      <point x="162" y="407" type="curve" smooth="yes"/>
      <point x="162" y="477"/>
      <point x="223" y="512"/>
      <point x="321" y="512" type="curve" smooth="yes"/>
      <point x="374" y="512"/>
      <point x="428" y="502"/>
      <point x="465" y="485" type="curve"/>
      <point x="478" y="509" type="line"/>
      <point x="436" y="526"/>
      <point x="383" y="537"/>
      <point x="322" y="537" type="curve" smooth="yes"/>
      <point x="201" y="537"/>
      <point x="135" y="486"/>
      <point x="135" y="407" type="curve" smooth="yes"/>
      <point x="135" y="315"/>
      <point x="215" y="292"/>
      <point x="305" y="259" type="curve" smooth="yes"/>
      <point x="392" y="229"/>
      <point x="462" y="208"/>
      <point x="462" y="130" type="curve" smooth="yes"/>
      <point x="462" y="58"/>
      <point x="413" y="16"/>
      <point x="293" y="16" type="curve" smooth="yes"/>
      <point x="232" y="16"/>
      <point x="173" y="30"/>
      <point x="120" y="53" type="curve"/>
      <point x="120" y="23" type="line"/>
      <point x="158" y="7"/>
      <point x="221" y="-10"/>
    </contour>
  </outline>
</glyph>
<glyph name="t" format="2">
  <advance width="620"/>
  <unicode hex="0074"/>
  <anchor x="392" y="0" name="bottom"/>
  <anchor x="272" y="281" name="center"/>
  <anchor x="275" y="659" name="top"/>
  <anchor x="589" y="659" name="topright"/>
  <outline>
    <contour>
      <point x="422" y="-10" type="curve" smooth="yes"/>
      <point x="462" y="-10"/>
      <point x="486" y="-4"/>
      <point x="510" y="3" type="curve"/>
      <point x="510" y="28" type="line"/>
      <point x="486" y="20"/>
      <point x="459" y="15"/>
      <point x="422" y="15" type="curve" smooth="yes"/>
      <point x="314" y="15"/>
      <point x="285" y="75"/>
      <point x="285" y="183" type="curve" smooth="yes"/>
      <point x="285" y="503" type="line"/>
      <point x="508" y="503" type="line"/>
      <point x="508" y="528" type="line"/>
      <point x="285" y="528" type="line"/>
      <point x="285" y="659" type="line"/>
      <point x="263" y="659" type="line"/>
      <point x="258" y="528" type="line"/>
      <point x="88" y="524" type="line"/>
      <point x="88" y="503" type="line"/>
      <point x="259" y="503" type="line"/>
      <point x="259" y="180" type="line" smooth="yes"/>
      <point x="259" y="62"/>
      <point x="294" y="-10"/>
    </contour>
  </outline>
</glyph>
<glyph name="u" format="2">
  <advance width="620"/>
  <unicode hex="0075"/>
  <anchor x="301" y="0" name="bottom"/>
  <anchor x="550" y="10" name="ogonek"/>
  <anchor x="301" y="528" name="top"/>
  <anchor x="589" y="528" name="topright"/>
  <outline>
    <contour>
      <point x="282" y="-10" type="curve" smooth="yes"/>
      <point x="399" y="-10"/>
      <point x="456" y="52"/>
      <point x="478" y="112" type="curve"/>
      <point x="480" y="112" type="line"/>
      <point x="483" y="0" type="line"/>
      <point x="503" y="0" type="line"/>
      <point x="503" y="528" type="line"/>
      <point x="477" y="528" type="line"/>
      <point x="477" y="227" type="line" smooth="yes"/>
      <point x="477" y="82"/>
      <point x="395" y="15"/>
      <point x="282" y="15" type="curve" smooth="yes"/>
      <point x="179" y="15"/>
      <point x="119" y="66"/>
      <point x="119" y="184" type="curve" smooth="yes"/>
      <point x="119" y="528" type="line"/>
      <point x="93" y="528" type="line"/>
      <point x="93" y="179" type="line" smooth="yes"/>
      <point x="93" y="54"/>
      <point x="157" y="-10"/>
    </contour>
  </outline>
</glyph>
<glyph name="v" format="2">
  <advance width="620"/>
  <unicode hex="0076"/>
  <anchor x="301" y="0" name="bottom"/>
  <anchor x="301" y="528" name="top"/>
  <anchor x="589" y="528" name="topright"/>
  <outline>
    <contour>
      <point x="289" y="0" type="line"/>
      <point x="312" y="0" type="line"/>
      <point x="526" y="528" type="line"/>
      <point x="499" y="528" type="line"/>
      <point x="341" y="143" type="line" smooth="yes"/>
      <point x="325" y="102"/>
      <point x="314" y="71"/>
      <point x="302" y="36" type="curve"/>
      <point x="299" y="36" type="line"/>
      <point x="288" y="71"/>
      <point x="277" y="102"/>
      <point x="260" y="143" type="curve" smooth="yes"/>
      <point x="103" y="528" type="line"/>
      <point x="76" y="528" type="line"/>
    </contour>
  </outline>
</glyph>
<glyph name="x" format="2">
  <advance width="620"/>
  <unicode hex="0078"/>
  <anchor x="301" y="0" name="bottom"/>
  <anchor x="301" y="528" name="top"/>
  <anchor x="589" y="528" name="topright"/>
  <outline>
    <contour>
      <point x="76" y="0" type="line"/>
      <point x="106" y="0" type="line"/>
      <point x="301" y="252" type="line"/>
      <point x="495" y="0" type="line"/>
      <point x="526" y="0" type="line"/>
      <point x="317" y="270" type="line"/>
      <point x="514" y="528" type="line"/>
      <point x="485" y="528" type="line"/>
      <point x="301" y="290" type="line"/>
      <point x="118" y="528" type="line"/>
      <point x="88" y="528" type="line"/>
      <point x="285" y="271" type="line"/>
    </contour>
  </outline>
</glyph>
<glyph name="y" format="2">
  <advance width="620"/>
  <unicode hex="0079"/>
  <anchor x="301" y="-244" name="bottom"/>
  <anchor x="301" y="528" name="top"/>
  <anchor x="589" y="528" name="topright"/>
  <outline>
    <contour>
      <point x="130" y="-244" type="curve" smooth="yes"/>
      <point x="200" y="-244"/>
      <point x="238" y="-203"/>
      <point x="273" y="-114" type="curve" smooth="yes"/>
      <point x="526" y="528" type="line"/>
      <point x="499" y="528" type="line"/>
      <point x="353" y="160" type="line" smooth="yes"/>
      <point x="332" y="110"/>
      <point x="321" y="82"/>
      <point x="308" y="45" type="curve"/>
      <point x="306" y="45" type="line"/>
      <point x="295" y="73"/>
      <point x="286" y="97"/>
      <point x="262" y="158" type="curve" smooth="yes"/>
      <point x="113" y="528" type="line"/>
      <point x="86" y="528" type="line"/>
      <point x="294" y="9" type="line"/>
      <point x="249" y="-110" type="line" smooth="yes"/>
      <point x="216" y="-192"/>
      <point x="182" y="-219"/>
      <point x="130" y="-219" type="curve" smooth="yes"/>
      <point x="111" y="-219"/>
      <point x="95" y="-215"/>
      <point x="75" y="-208" type="curve"/>
      <point x="75" y="-235" type="line"/>
      <point x="95" y="-241"/>
      <point x="111" y="-244"/>
    </contour>
  </outline>
</glyph>
<glyph name="z" format="2">
  <advance width="620"/>
  <unicode hex="007A"/>
  <anchor x="312" y="0" name="bottom"/>
  <anchor x="312" y="528" name="top"/>
  <anchor x="589" y="528" name="topright"/>
  <outline>
    <contour>
      <point x="110" y="0" type="line"/>
      <point x="489" y="0" type="line"/>
      <point x="489" y="25" type="line"/>
      <point x="144" y="25" type="line"/>
      <point x="492" y="510" type="line"/>
      <point x="492" y="528" type="line"/>
      <point x="138" y="528" type="line"/>
      <point x="138" y="503" type="line"/>
      <point x="455" y="503" type="line"/>
      <point x="110" y="20" type="line"/>
    </contour>
  </outline>
</glyph>
<glyph name="braceleft" format="2">
  <advance width="620"/>
  <unicode hex="007B"/>
  <outline>
    <contour>
      <point x="459" y="-158" type="curve"/>
      <point x="459" y="-136" type="line"/>
      <point x="344" y="-136"/>
      <point x="306" y="-106"/>
      <point x="306" y="-18" type="curve" smooth="yes"/>
      <point x="306" y="157" type="line" smooth="yes"/>
      <point x="306" y="229"/>
      <point x="284" y="267"/>
      <point x="218" y="277" type="curve"/>
      <point x="218" y="279" type="line"/>
      <point x="284" y="288"/>
      <point x="306" y="330"/>
      <point x="306" y="400" type="curve" smooth="yes"/>
      <point x="306" y="574" type="line" smooth="yes"/>
      <point x="306" y="659"/>
      <point x="348" y="692"/>
      <point x="459" y="692" type="curve"/>
      <point x="459" y="714" type="line"/>
      <point x="335" y="714"/>
      <point x="280" y="672"/>
      <point x="280" y="579" type="curve" smooth="yes"/>
      <point x="280" y="406" type="line" smooth="yes"/>
      <point x="280" y="317"/>
      <point x="246" y="289"/>
      <point x="157" y="289" type="curve"/>
      <point x="157" y="266" type="line"/>
      <point x="253" y="266"/>
      <point x="280" y="237"/>
      <point x="280" y="150" type="curve" smooth="yes"/>
      <point x="280" y="-24" type="line" smooth="yes"/>
      <point x="280" y="-123"/>
      <point x="329" y="-157"/>
    </contour>
  </outline>
</glyph>
<glyph name="asciitilde" format="2">
  <advance width="620"/>
  <unicode hex="007E"/>
  <outline>
    <contour>
      <point x="57" y="310" type="line"/>
      <point x="98" y="352"/>
      <point x="140" y="371"/>
      <point x="186" y="371" type="curve" smooth="yes"/>
      <point x="234" y="371"/>
      <point x="263" y="358"/>
      <point x="301" y="341" type="curve" smooth="yes"/>
      <point x="339" y="324"/>
      <point x="372" y="311"/>
      <point x="422" y="311" type="curve" smooth="yes"/>
      <point x="474" y="311"/>
      <point x="518" y="333"/>
      <point x="545" y="358" type="curve"/>
      <point x="545" y="389" type="line"/>
      <point x="504" y="350"/>
      <point x="461" y="335"/>
      <point x="422" y="335" type="curve" smooth="yes"/>
      <point x="378" y="335"/>
      <point x="349" y="348"/>
      <point x="311" y="365" type="curve" smooth="yes"/>
      <point x="272" y="383"/>
      <point x="241" y="396"/>
      <point x="185" y="396" type="curve" smooth="yes"/>
      <point x="134" y="396"/>
      <point x="89" y="372"/>
      <point x="57" y="342" type="curve"/>
    </contour>
  </outline>
</glyph>
<glyph name="cent" format="2">
  <advance width="620"/>
  <unicode hex="00A2"/>
  <outline>
    <contour>
      <point x="342" y="-10" type="line"/>
      <point x="369" y="-10" type="line"/>
      <point x="369" y="91" type="line"/>
      <point x="418" y="93"/>
      <point x="461" y="102"/>
      <point x="489" y="113" type="curve"/>
      <point x="489" y="138" type="line"/>
      <point x="451" y="125"/>
      <point x="404" y="117"/>
      <point x="356" y="117" type="curve" smooth="yes"/>
      <point x="196" y="117"/>
      <point x="125" y="217"/>
      <point x="125" y="360" type="curve" smooth="yes"/>
      <point x="125" y="510"/>
      <point x="215" y="613"/>
      <point x="371" y="613" type="curve" smooth="yes"/>
      <point x="407" y="613"/>
      <point x="447" y="607"/>
      <point x="486" y="592" type="curve"/>
      <point x="492" y="616" type="line"/>
      <point x="454" y="630"/>
      <point x="417" y="637"/>
      <point x="366" y="638" type="curve"/>
      <point x="366" y="724" type="line"/>
      <point x="341" y="724" type="line"/>
      <point x="341" y="637" type="line"/>
      <point x="187" y="624"/>
      <point x="99" y="518"/>
      <point x="99" y="360" type="curve" smooth="yes"/>
      <point x="99" y="205"/>
      <point x="173" y="99"/>
      <point x="342" y="91" type="curve"/>
    </contour>
  </outline>
</glyph>
<glyph name="sterling" format="2">
  <advance width="620"/>
  <unicode hex="00A3"/>
  <outline>
    <contour>
      <point x="62" y="0" type="line"/>
      <point x="538" y="0" type="line"/>
      <point x="538" y="25" type="line"/>
      <point x="129" y="25" type="line"/>
      <point x="180" y="47"/>
      <point x="217" y="96"/>
      <point x="217" y="181" type="curve" smooth="yes"/>
      <point x="217" y="337" type="line"/>
      <point x="417" y="337" type="line"/>
      <point x="417" y="362" type="line"/>
      <point x="217" y="362" type="line"/>
      <point x="217" y="522" type="line" smooth="yes"/>
      <point x="217" y="644"/>
      <point x="269" y="699"/>
      <point x="382" y="699" type="curve" smooth="yes"/>
      <point x="431" y="699"/>
      <point x="471" y="689"/>
      <point x="518" y="666" type="curve"/>
      <point x="529" y="689" type="line"/>
      <point x="490" y="709"/>
      <point x="444" y="724"/>
      <point x="383" y="724" type="curve" smooth="yes"/>
      <point x="251" y="724"/>
      <point x="191" y="653"/>
      <point x="191" y="526" type="curve" smooth="yes"/>
      <point x="191" y="362" type="line"/>
      <point x="76" y="362" type="line"/>
      <point x="76" y="337" type="line"/>
      <point x="191" y="337" type="line"/>
      <point x="191" y="185" type="line" smooth="yes"/>
      <point x="191" y="89"/>
      <point x="147" y="39"/>
      <point x="62" y="23" type="curve"/>
    </contour>
  </outline>
</glyph>
<glyph name="currency" format="2">
  <advance width="620"/>
  <unicode hex="00A4"/>
  <outline>
    <contour>
      <point x="542" y="128" type="line"/>
      <point x="559" y="144" type="line"/>
      <point x="471" y="221" type="line"/>
      <point x="511" y="260"/>
      <point x="529" y="309"/>
      <point x="529" y="354" type="curve" smooth="yes"/>
      <point x="529" y="402"/>
      <point x="511" y="448"/>
      <point x="471" y="486" type="curve"/>
      <point x="560" y="561" type="line"/>
      <point x="543" y="578" type="line"/>
      <point x="455" y="502" type="line"/>
      <point x="411" y="536"/>
      <point x="354" y="552"/>
      <point x="300" y="552" type="curve" smooth="yes"/>
      <point x="245" y="552"/>
      <point x="191" y="536"/>
      <point x="147" y="502" type="curve"/>
      <point x="58" y="579" type="line"/>
      <point x="41" y="562" type="line"/>
      <point x="129" y="485" type="line"/>
      <point x="92" y="450"/>
      <point x="74" y="402"/>
      <point x="74" y="354" type="curve" smooth="yes"/>
      <point x="74" y="307"/>
      <point x="93" y="260"/>
      <point x="131" y="222" type="curve"/>
      <point x="44" y="147" type="line"/>
      <point x="60" y="130" type="line"/>
      <point x="149" y="205" type="line"/>
      <point x="193" y="171"/>
      <point x="246" y="156"/>
      <point x="301" y="156" type="curve" smooth="yes"/>
      <point x="355" y="156"/>
      <point x="410" y="171"/>
      <point x="453" y="204" type="curve"/>
    </contour>
    <contour>
      <point x="301" y="181" type="curve" smooth="yes"/>
      <point x="192" y="181"/>
      <point x="100" y="252"/>
      <point x="100" y="354" type="curve" smooth="yes"/>
      <point x="100" y="455"/>
      <point x="188" y="528"/>
      <point x="302" y="528" type="curve" smooth="yes"/>
      <point x="416" y="528"/>
      <point x="503" y="452"/>
      <point x="503" y="354" type="curve" smooth="yes"/>
      <point x="503" y="256"/>
      <point x="412" y="181"/>
    </contour>
  </outline>
</glyph>
<glyph name="yen" format="2">
  <advance width="620"/>
  <unicode hex="00A5"/>
  <outline>
    <contour>
      <point x="288" y="0" type="line"/>
      <point x="314" y="0" type="line"/>
      <point x="314" y="160" type="line"/>
      <point x="499" y="160" type="line"/>
      <point x="499" y="184" type="line"/>
      <point x="314" y="184" type="line"/>
      <point x="314" y="296" type="line"/>
      <point x="499" y="296" type="line"/>
      <point x="499" y="320" type="line"/>
      <point x="320" y="320" type="line"/>
      <point x="560" y="714" type="line"/>
      <point x="531" y="714" type="line"/>
      <point x="301" y="338" type="line"/>
      <point x="71" y="714" type="line"/>
      <point x="41" y="714" type="line"/>
      <point x="282" y="320" type="line"/>
      <point x="104" y="320" type="line"/>
      <point x="104" y="296" type="line"/>
      <point x="288" y="296" type="line"/>
      <point x="288" y="184" type="line"/>
      <point x="104" y="184" type="line"/>
      <point x="104" y="160" type="line"/>
      <point x="288" y="160" type="line"/>
    </contour>
  </outline>
</glyph>
<glyph name="brokenbar" format="2">
  <advance width="620"/>
  <unicode hex="00A6"/>
  <outline>
    <contour>
      <point x="273" y="389" type="line"/>
      <point x="298" y="389" type="line"/>
      <point x="298" y="762" type="line"/>
      <point x="273" y="762" type="line"/>
    </contour>
    <contour>
      <point x="273" y="-249" type="line"/>
      <point x="298" y="-249" type="line"/>
      <point x="298" y="126" type="line"/>
      <point x="273" y="126" type="line"/>
    </contour>
  </outline>
</glyph>
<glyph name="section" format="2">
  <advance width="620"/>
  <unicode hex="00A7"/>
  <outline>
    <contour>
      <point x="282" y="-8" type="curve" smooth="yes"/>
      <point x="419" y="-8"/>
      <point x="488" y="50"/>
      <point x="488" y="132" type="curve" smooth="yes"/>
      <point x="488" y="188"/>
      <point x="453" y="215"/>
      <point x="397" y="239" type="curve"/>
      <point x="456" y="266"/>
      <point x="499" y="310"/>
      <point x="499" y="375" type="curve" smooth="yes"/>
      <point x="499" y="467"/>
      <point x="410" y="493"/>
      <point x="318" y="523" type="curve" smooth="yes"/>
      <point x="227" y="554"/>
      <point x="166" y="583"/>
      <point x="166" y="643" type="curve" smooth="yes"/>
      <point x="166" y="709"/>
      <point x="230" y="740"/>
      <point x="327" y="740" type="curve" smooth="yes"/>
      <point x="383" y="740"/>
      <point x="439" y="728"/>
      <point x="473" y="713" type="curve"/>
      <point x="486" y="735" type="line"/>
      <point x="445" y="752"/>
      <point x="389" y="764"/>
      <point x="328" y="764" type="curve" smooth="yes"/>
      <point x="211" y="764"/>
      <point x="141" y="717"/>
      <point x="141" y="642" type="curve" smooth="yes"/>
      <point x="141" y="580"/>
      <point x="190" y="547"/>
      <point x="254" y="520" type="curve"/>
      <point x="181" y="499"/>
      <point x="128" y="458"/>
      <point x="128" y="390" type="curve" smooth="yes"/>
      <point x="128" y="308"/>
      <point x="200" y="282"/>
      <point x="293" y="252" type="curve" smooth="yes"/>
      <point x="392" y="218"/>
      <point x="462" y="200"/>
      <point x="462" y="131" type="curve" smooth="yes"/>
      <point x="462" y="65"/>
      <point x="405" y="15"/>
      <point x="283" y="15" type="curve" smooth="yes"/>
      <point x="221" y="15"/>
      <point x="160" y="29"/>
      <point x="111" y="51" type="curve"/>
      <point x="111" y="22" type="line"/>
      <point x="148" y="7"/>
      <point x="212" y="-8"/>
    </contour>
    <contour>
      <point x="371" y="251" type="curve"/>
      <point x="302" y="273" type="line" smooth="yes"/>
      <point x="217" y="300"/>
      <point x="154" y="321"/>
      <point x="154" y="391" type="curve" smooth="yes"/>
      <point x="154" y="457"/>
      <point x="212" y="491"/>
      <point x="287" y="508" type="curve"/>
      <point x="406" y="476"/>
      <point x="473" y="443"/>
      <point x="473" y="373" type="curve" smooth="yes"/>
      <point x="473" y="313"/>
      <point x="429" y="271"/>
    </contour>
  </outline>
</glyph>
<glyph name="dieresis" format="2">
  <advance width="620"/>
  <unicode hex="00A8"/>
  <anchor x="301" y="528" name="_top"/>
  <anchor x="301" y="638" name="top"/>
  <outline>
    <contour>
      <point x="400" y="638" type="curve" smooth="yes"/>
      <point x="424" y="638"/>
      <point x="429" y="653"/>
      <point x="429" y="673" type="curve" smooth="yes"/>
      <point x="429" y="692"/>
      <point x="424" y="708"/>
      <point x="400" y="708" type="curve" smooth="yes"/>
      <point x="378" y="708"/>
      <point x="371" y="692"/>
      <point x="371" y="673" type="curve" smooth="yes"/>
      <point x="371" y="654"/>
      <point x="378" y="638"/>
    </contour>
    <contour>
      <point x="200" y="638" type="curve" smooth="yes"/>
      <point x="225" y="638"/>
      <point x="230" y="654"/>
      <point x="230" y="673" type="curve" smooth="yes"/>
      <point x="230" y="691"/>
      <point x="225" y="708"/>
      <point x="200" y="708" type="curve" smooth="yes"/>
      <point x="179" y="708"/>
      <point x="172" y="691"/>
      <point x="172" y="673" type="curve" smooth="yes"/>
      <point x="172" y="654"/>
      <point x="179" y="638"/>
    </contour>
  </outline>
</glyph>
<glyph name="copyright" format="2">
  <advance width="620"/>
  <unicode hex="00A9"/>
  <outline>
    <contour>
      <point x="297" y="131" type="curve" smooth="yes"/>
      <point x="448" y="131"/>
      <point x="569" y="223"/>
      <point x="569" y="360" type="curve" smooth="yes"/>
      <point x="569" y="491"/>
      <point x="456" y="590"/>
      <point x="301" y="590" type="curve" smooth="yes"/>
      <point x="154" y="590"/>
      <point x="32" y="498"/>
      <point x="32" y="359" type="curve" smooth="yes"/>
      <point x="32" y="224"/>
      <point x="145" y="131"/>
    </contour>
    <contour>
      <point x="310" y="216" type="curve" smooth="yes"/>
      <point x="343" y="216"/>
      <point x="371" y="221"/>
      <point x="397" y="229" type="curve"/>
      <point x="397" y="252" type="line"/>
      <point x="367" y="241"/>
      <point x="340" y="238"/>
      <point x="318" y="238" type="curve" smooth="yes"/>
      <point x="229" y="238"/>
      <point x="174" y="277"/>
      <point x="174" y="357" type="curve" smooth="yes"/>
      <point x="174" y="435"/>
      <point x="227" y="481"/>
      <point x="318" y="481" type="curve" smooth="yes"/>
      <point x="348" y="481"/>
      <point x="377" y="475"/>
      <point x="401" y="467" type="curve"/>
      <point x="408" y="488" type="line"/>
      <point x="384" y="500"/>
      <point x="352" y="504"/>
      <point x="320" y="504" type="curve" smooth="yes"/>
      <point x="210" y="504"/>
      <point x="148" y="447"/>
      <point x="148" y="357" type="curve" smooth="yes"/>
      <point x="148" y="264"/>
      <point x="214" y="216"/>
    </contour>
    <contour>
      <point x="299" y="154" type="curve" smooth="yes"/>
      <point x="157" y="154"/>
      <point x="58" y="243"/>
      <point x="58" y="361" type="curve" smooth="yes"/>
      <point x="58" y="481"/>
      <point x="165" y="565"/>
      <point x="301" y="565" type="curve" smooth="yes"/>
      <point x="442" y="565"/>
      <point x="543" y="476"/>
      <point x="543" y="360" type="curve" smooth="yes"/>
      <point x="543" y="240"/>
      <point x="438" y="154"/>
    </contour>
  </outline>
</glyph>
<glyph name="ordfeminine" format="2">
  <advance width="620"/>
  <unicode hex="00AA"/>
  <outline>
    <contour>
      <point x="281" y="395" type="curve" smooth="yes"/>
      <point x="344" y="395"/>
      <point x="388" y="417"/>
      <point x="406" y="450" type="curve"/>
      <point x="410" y="399" type="line"/>
      <point x="432" y="399" type="line"/>
      <point x="432" y="627" type="line" smooth="yes"/>
      <point x="432" y="688"/>
      <point x="390" y="724"/>
      <point x="305" y="724" type="curve" smooth="yes"/>
      <point x="259" y="724"/>
      <point x="224" y="713"/>
      <point x="192" y="699" type="curve"/>
      <point x="202" y="678" type="line"/>
      <point x="233" y="693"/>
      <point x="264" y="701"/>
      <point x="302" y="701" type="curve" smooth="yes"/>
      <point x="368" y="701"/>
      <point x="406" y="677"/>
      <point x="407" y="621" type="curve" smooth="yes"/>
      <point x="408" y="585" type="line"/>
      <point x="333" y="582" type="line" smooth="yes"/>
      <point x="222" y="578"/>
      <point x="165" y="548"/>
      <point x="165" y="483" type="curve" smooth="yes"/>
      <point x="165" y="424"/>
      <point x="214" y="395"/>
    </contour>
    <contour>
      <point x="284" y="417" type="curve" smooth="yes"/>
      <point x="227" y="417"/>
      <point x="189" y="440"/>
      <point x="189" y="483" type="curve" smooth="yes"/>
      <point x="189" y="536"/>
      <point x="239" y="559"/>
      <point x="335" y="561" type="curve" smooth="yes"/>
      <point x="408" y="563" type="line"/>
      <point x="408" y="524" type="line" smooth="yes"/>
      <point x="408" y="460"/>
      <point x="365" y="417"/>
    </contour>
  </outline>
</glyph>
<glyph name="guillemotleft" format="2">
  <advance width="620"/>
  <unicode hex="00AB"/>
  <outline>
    <contour>
      <point x="467" y="82" type="line"/>
      <point x="484" y="92" type="line"/>
      <point x="331" y="270" type="line"/>
      <point x="484" y="448" type="line"/>
      <point x="467" y="459" type="line"/>
      <point x="298" y="276" type="line"/>
      <point x="298" y="263" type="line"/>
    </contour>
    <contour>
      <point x="275" y="82" type="line"/>
      <point x="292" y="92" type="line"/>
      <point x="139" y="270" type="line"/>
      <point x="291" y="448" type="line"/>
      <point x="275" y="459" type="line"/>
      <point x="106" y="276" type="line"/>
      <point x="106" y="263" type="line"/>
    </contour>
  </outline>
</glyph>
<glyph name="logicalnot" format="2">
  <advance width="620"/>
  <unicode hex="00AC"/>
  <outline>
    <contour>
      <point x="487" y="128" type="line"/>
      <point x="512" y="128" type="line"/>
      <point x="512" y="364" type="line"/>
      <point x="43" y="364" type="line"/>
      <point x="43" y="340" type="line"/>
      <point x="487" y="340" type="line"/>
    </contour>
  </outline>
</glyph>
<glyph name="registered" format="2">
  <advance width="620"/>
  <unicode hex="00AE"/>
  <outline>
    <contour>
      <point x="297" y="131" type="curve" smooth="yes"/>
      <point x="448" y="131"/>
      <point x="569" y="223"/>
      <point x="569" y="360" type="curve" smooth="yes"/>
      <point x="569" y="491"/>
      <point x="456" y="590"/>
      <point x="301" y="590" type="curve" smooth="yes"/>
      <point x="154" y="590"/>
      <point x="32" y="498"/>
      <point x="32" y="359" type="curve" smooth="yes"/>
      <point x="32" y="224"/>
      <point x="145" y="131"/>
    </contour>
    <contour>
      <point x="299" y="154" type="curve" smooth="yes"/>
      <point x="157" y="154"/>
      <point x="58" y="243"/>
      <point x="58" y="361" type="curve" smooth="yes"/>
      <point x="58" y="481"/>
      <point x="165" y="565"/>
      <point x="301" y="565" type="curve" smooth="yes"/>
      <point x="442" y="565"/>
      <point x="543" y="476"/>
      <point x="543" y="360" type="curve" smooth="yes"/>
      <point x="543" y="240"/>
      <point x="438" y="154"/>
    </contour>
    <contour>
      <point x="209" y="213" type="line"/>
      <point x="234" y="213" type="line"/>
      <point x="234" y="338" type="line"/>
      <point x="320" y="338" type="line"/>
      <point x="406" y="213" type="line"/>
      <point x="436" y="213" type="line"/>
      <point x="347" y="342" type="line"/>
      <point x="391" y="353"/>
      <point x="424" y="376"/>
      <point x="424" y="425" type="curve" smooth="yes"/>
      <point x="424" y="483"/>
      <point x="376" y="509"/>
      <point x="309" y="509" type="curve" smooth="yes"/>
      <point x="209" y="509" type="line"/>
    </contour>
    <contour>
      <point x="233" y="359" type="line"/>
      <point x="233" y="488" type="line"/>
      <point x="308" y="488" type="line" smooth="yes"/>
      <point x="362" y="488"/>
      <point x="398" y="471"/>
      <point x="398" y="424" type="curve" smooth="yes"/>
      <point x="398" y="376"/>
      <point x="359" y="359"/>
      <point x="306" y="359" type="curve" smooth="yes"/>
    </contour>
  </outline>
</glyph>
<glyph name="overscore" format="2">
  <advance width="620"/>
  <unicode hex="00AF"/>
  <outline>
    <contour>
      <point x="164" y="622" type="line"/>
      <point x="437" y="622" type="line"/>
      <point x="437" y="646" type="line"/>
      <point x="164" y="646" type="line"/>
    </contour>
  </outline>
</glyph>
<glyph name="degree" format="2">
  <advance width="620"/>
  <unicode hex="00B0"/>
  <outline>
    <contour>
      <point x="301" y="454" type="curve" smooth="yes"/>
      <point x="388" y="454"/>
      <point x="456" y="505"/>
      <point x="456" y="588" type="curve" smooth="yes"/>
      <point x="456" y="672"/>
      <point x="386" y="724"/>
      <point x="300" y="724" type="curve" smooth="yes"/>
      <point x="217" y="724"/>
      <point x="146" y="674"/>
      <point x="146" y="589" type="curve" smooth="yes"/>
      <point x="146" y="502"/>
      <point x="219" y="454"/>
    </contour>
    <contour>
      <point x="300" y="477" type="curve" smooth="yes"/>
      <point x="228" y="477"/>
      <point x="172" y="520"/>
      <point x="172" y="589" type="curve" smooth="yes"/>
      <point x="172" y="656"/>
      <point x="226" y="701"/>
      <point x="300" y="701" type="curve" smooth="yes"/>
      <point x="375" y="701"/>
      <point x="429" y="656"/>
      <point x="429" y="588" type="curve" smooth="yes"/>
      <point x="429" y="519"/>
      <point x="373" y="477"/>
    </contour>
  </outline>
</glyph>
<glyph name="plusminus" format="2">
  <advance width="620"/>
  <unicode hex="00B1"/>
  <outline>
    <contour>
      <point x="284" y="123" type="line"/>
      <point x="309" y="123" type="line"/>
      <point x="309" y="340" type="line"/>
      <point x="541" y="340" type="line"/>
      <point x="541" y="364" type="line"/>
      <point x="309" y="364" type="line"/>
      <point x="309" y="583" type="line"/>
      <point x="284" y="583" type="line"/>
      <point x="284" y="364" type="line"/>
      <point x="52" y="364" type="line"/>
      <point x="52" y="340" type="line"/>
      <point x="284" y="340" type="line"/>
    </contour>
    <contour>
      <point x="51" y="1" type="line"/>
      <point x="537" y="1" type="line"/>
      <point x="537" y="26" type="line"/>
      <point x="51" y="26" type="line"/>
    </contour>
  </outline>
</glyph>
<glyph name="twosuperior" format="2">
  <advance width="620"/>
  <unicode hex="00B2"/>
  <outline>
    <contour>
      <point x="144" y="415" type="line"/>
      <point x="446" y="415" type="line"/>
      <point x="446" y="439" type="line"/>
      <point x="181" y="439" type="line"/>
      <point x="293" y="544" type="line" smooth="yes"/>
      <point x="380" y="628"/>
      <point x="433" y="674"/>
      <point x="433" y="742" type="curve" smooth="yes"/>
      <point x="433" y="807"/>
      <point x="383" y="854"/>
      <point x="294" y="854" type="curve" smooth="yes"/>
      <point x="242" y="854"/>
      <point x="197" y="837"/>
      <point x="158" y="809" type="curve"/>
      <point x="172" y="790" type="line"/>
      <point x="212" y="816"/>
      <point x="249" y="830"/>
      <point x="294" y="830" type="curve" smooth="yes"/>
      <point x="368" y="830"/>
      <point x="405" y="792"/>
      <point x="405" y="742" type="curve" smooth="yes"/>
      <point x="405" y="680"/>
      <point x="350" y="632"/>
      <point x="274" y="560" type="curve" smooth="yes"/>
      <point x="144" y="437" type="line"/>
    </contour>
  </outline>
</glyph>
<glyph name="threesuperior" format="2">
  <advance width="620"/>
  <unicode hex="00B3"/>
  <outline>
    <contour>
      <point x="271" y="411" type="curve" smooth="yes"/>
      <point x="377" y="411"/>
      <point x="440" y="456"/>
      <point x="440" y="536" type="curve" smooth="yes"/>
      <point x="440" y="593"/>
      <point x="406" y="628"/>
      <point x="342" y="642" type="curve"/>
      <point x="342" y="643" type="line"/>
      <point x="391" y="655"/>
      <point x="428" y="691"/>
      <point x="428" y="748" type="curve" smooth="yes"/>
      <point x="428" y="814"/>
      <point x="374" y="851"/>
      <point x="292" y="851" type="curve" smooth="yes"/>
      <point x="236" y="851"/>
      <point x="189" y="835"/>
      <point x="150" y="811" type="curve"/>
      <point x="161" y="790" type="line"/>
      <point x="200" y="812"/>
      <point x="240" y="827"/>
      <point x="292" y="827" type="curve" smooth="yes"/>
      <point x="363" y="827"/>
      <point x="401" y="797"/>
      <point x="401" y="747" type="curve" smooth="yes"/>
      <point x="401" y="689"/>
      <point x="356" y="652"/>
      <point x="277" y="652" type="curve" smooth="yes"/>
      <point x="211" y="652" type="line"/>
      <point x="211" y="628" type="line"/>
      <point x="277" y="628" type="line" smooth="yes"/>
      <point x="368" y="628"/>
      <point x="413" y="596"/>
      <point x="413" y="536" type="curve" smooth="yes"/>
      <point x="413" y="473"/>
      <point x="364" y="435"/>
      <point x="270" y="435" type="curve" smooth="yes"/>
      <point x="224" y="435"/>
      <point x="182" y="445"/>
      <point x="142" y="462" type="curve"/>
      <point x="142" y="434" type="line"/>
      <point x="177" y="420"/>
      <point x="223" y="411"/>
    </contour>
  </outline>
</glyph>
<glyph name="acute" format="2">
  <advance width="620"/>
  <unicode hex="00B4"/>
  <outline>
    <contour>
      <point x="272" y="606" type="line"/>
      <point x="291" y="606" type="line"/>
      <point x="348" y="648"/>
      <point x="414" y="712"/>
      <point x="455" y="758" type="curve"/>
      <point x="455" y="765" type="line"/>
      <point x="425" y="765" type="line"/>
      <point x="390" y="719"/>
      <point x="324" y="659"/>
      <point x="272" y="614" type="curve"/>
    </contour>
  </outline>
</glyph>
<glyph name="paragraph" format="2">
  <advance width="620"/>
  <unicode hex="00B6"/>
  <outline>
    <contour>
      <point x="280" y="-127" type="line"/>
      <point x="307" y="-127" type="line"/>
      <point x="307" y="734" type="line"/>
      <point x="459" y="734" type="line"/>
      <point x="459" y="-127" type="line"/>
      <point x="485" y="-127" type="line"/>
      <point x="485" y="760" type="line"/>
      <point x="241" y="760" type="line" smooth="yes"/>
      <point x="121" y="760"/>
      <point x="71" y="684"/>
      <point x="71" y="556" type="curve" smooth="yes"/>
      <point x="71" y="438"/>
      <point x="116" y="346"/>
      <point x="221" y="346" type="curve" smooth="yes"/>
      <point x="243" y="346"/>
      <point x="260" y="349"/>
      <point x="280" y="355" type="curve"/>
    </contour>
  </outline>
</glyph>
<glyph name="cedilla" format="2">
  <advance width="620"/>
  <unicode hex="00B8"/>
  <outline>
    <contour>
      <point x="276" y="-240" type="curve" smooth="yes"/>
      <point x="355" y="-240"/>
      <point x="407" y="-203"/>
      <point x="407" y="-146" type="curve" smooth="yes"/>
      <point x="407" y="-98"/>
      <point x="369" y="-69"/>
      <point x="304" y="-64" type="curve"/>
      <point x="340" y="0" type="line"/>
      <point x="312" y="0" type="line"/>
      <point x="265" y="-83" type="line"/>
      <point x="343" y="-84"/>
      <point x="381" y="-102"/>
      <point x="381" y="-146" type="curve" smooth="yes"/>
      <point x="381" y="-192"/>
      <point x="341" y="-217"/>
      <point x="274" y="-217" type="curve" smooth="yes"/>
      <point x="257" y="-217"/>
      <point x="237" y="-215"/>
      <point x="218" y="-210" type="curve"/>
      <point x="218" y="-234" type="line"/>
      <point x="235" y="-238"/>
      <point x="257" y="-240"/>
    </contour>
  </outline>
</glyph>
<glyph name="onesuperior" format="2">
  <advance width="620"/>
  <unicode hex="00B9"/>
  <outline>
    <contour>
      <point x="299" y="416" type="line"/>
      <point x="327" y="416" type="line"/>
      <point x="327" y="843" type="line"/>
      <point x="307" y="843" type="line"/>
      <point x="157" y="769" type="line"/>
      <point x="168" y="748" type="line"/>
      <point x="230" y="780" type="line" smooth="yes"/>
      <point x="260" y="794"/>
      <point x="278" y="802"/>
      <point x="301" y="814" type="curve"/>
      <point x="300" y="782"/>
      <point x="299" y="739"/>
      <point x="299" y="704" type="curve" smooth="yes"/>
    </contour>
    <contour>
      <point x="176" y="416" type="line"/>
      <point x="444" y="416" type="line"/>
      <point x="444" y="435" type="line"/>
      <point x="326" y="440" type="line"/>
      <point x="300" y="440" type="line"/>
      <point x="176" y="435" type="line"/>
    </contour>
  </outline>
</glyph>
<glyph name="ordmasculine" format="2">
  <advance width="620"/>
  <unicode hex="00BA"/>
  <outline>
    <contour>
      <point x="301" y="396" type="curve" smooth="yes"/>
      <point x="401" y="396"/>
      <point x="447" y="467"/>
      <point x="447" y="561" type="curve" smooth="yes"/>
      <point x="447" y="653"/>
      <point x="404" y="725"/>
      <point x="304" y="725" type="curve" smooth="yes"/>
      <point x="212" y="725"/>
      <point x="156" y="661"/>
      <point x="156" y="559" type="curve" smooth="yes"/>
      <point x="156" y="464"/>
      <point x="204" y="396"/>
    </contour>
    <contour>
      <point x="301" y="417" type="curve" smooth="yes"/>
      <point x="222" y="417"/>
      <point x="181" y="476"/>
      <point x="181" y="559" type="curve" smooth="yes"/>
      <point x="181" y="649"/>
      <point x="229" y="703"/>
      <point x="304" y="703" type="curve" smooth="yes"/>
      <point x="385" y="703"/>
      <point x="421" y="638"/>
      <point x="421" y="560" type="curve" smooth="yes"/>
      <point x="421" y="477"/>
      <point x="382" y="417"/>
    </contour>
  </outline>
</glyph>
<glyph name="AE" format="2">
  <advance width="620"/>
  <unicode hex="00C6"/>
  <anchor x="301" y="0" name="bottom"/>
  <anchor x="366" y="714" name="top"/>
  <outline>
    <contour>
      <point x="13" y="0" type="line"/>
      <point x="41" y="0" type="line"/>
      <point x="280" y="689" type="line"/>
      <point x="317" y="689" type="line"/>
      <point x="317" y="0" type="line"/>
      <point x="591" y="0" type="line"/>
      <point x="591" y="25" type="line"/>
      <point x="343" y="25" type="line"/>
      <point x="343" y="364" type="line"/>
      <point x="573" y="364" type="line"/>
      <point x="573" y="389" type="line"/>
      <point x="343" y="389" type="line"/>
      <point x="343" y="689" type="line"/>
      <point x="591" y="689" type="line"/>
      <point x="591" y="714" type="line"/>
      <point x="264" y="714" type="line"/>
    </contour>
    <contour>
      <point x="126" y="275" type="line"/>
      <point x="330" y="275" type="line"/>
      <point x="331" y="300" type="line"/>
      <point x="130" y="300" type="line"/>
    </contour>
  </outline>
</glyph>
<glyph name="Eth" format="2">
  <advance width="620"/>
  <unicode hex="00D0"/>
  <anchor x="301" y="0" name="bottom"/>
  <anchor x="301" y="714" name="top"/>
  <anchor x="612" y="714" name="topright"/>
  <anchor x="291" y="357" name="center"/>
  <outline>
    <contour>
      <point x="-10" y="353" type="line"/>
      <point x="293" y="353" type="line"/>
      <point x="293" y="378" type="line"/>
      <point x="-10" y="378" type="line"/>
    </contour>
    <component base="D"/>
  </outline>
</glyph>
<glyph name="multiply" format="2">
  <advance width="620"/>
  <unicode hex="00D7"/>
  <outline>
    <contour>
      <point x="82" y="157" type="line"/>
      <point x="293" y="337" type="line"/>
      <point x="502" y="157" type="line"/>
      <point x="519" y="174" type="line"/>
      <point x="309" y="354" type="line"/>
      <point x="520" y="534" type="line"/>
      <point x="502" y="550" type="line"/>
      <point x="293" y="370" type="line"/>
      <point x="83" y="550" type="line"/>
      <point x="65" y="533" type="line"/>
      <point x="275" y="354" type="line"/>
      <point x="65" y="174" type="line"/>
    </contour>
  </outline>
</glyph>
<glyph name="Oslash" format="2">
  <advance width="620"/>
  <unicode hex="00D8"/>
  <anchor x="301" y="0" name="bottom"/>
  <anchor x="301" y="714" name="top"/>
  <anchor x="3" y="714" name="topleft"/>
  <anchor x="293" y="10" name="ogonek"/>
  <anchor x="291" y="357" name="center"/>
  <anchor x="602" y="714" name="topright"/>
  <outline>
    <contour>
      <point x="59" y="-28" type="line"/>
      <point x="552" y="724" type="line"/>
      <point x="530" y="737" type="line"/>
      <point x="36" y="-15" type="line"/>
    </contour>
    <component base="O" xOffset="-10"/>
  </outline>
</glyph>
<glyph name="Thorn" format="2">
  <advance width="620"/>
  <unicode hex="00DE"/>
  <anchor x="301" y="0" name="bottom"/>
  <anchor x="301" y="714" name="top"/>
  <outline>
    <contour>
      <point x="110" y="0" type="line"/>
      <point x="136" y="0" type="line"/>
      <point x="136" y="171" type="line"/>
      <point x="290" y="171" type="line" smooth="yes"/>
      <point x="456" y="171"/>
      <point x="553" y="236"/>
      <point x="553" y="380" type="curve" smooth="yes"/>
      <point x="553" y="526"/>
      <point x="463" y="580"/>
      <point x="298" y="580" type="curve" smooth="yes"/>
      <point x="136" y="580" type="line"/>
      <point x="136" y="714" type="line"/>
      <point x="110" y="714" type="line"/>
    </contour>
    <contour>
      <point x="136" y="196" type="line"/>
      <point x="136" y="555" type="line"/>
      <point x="289" y="555" type="line" smooth="yes"/>
      <point x="452" y="555"/>
      <point x="525" y="509"/>
      <point x="525" y="381" type="curve" smooth="yes"/>
      <point x="525" y="248"/>
      <point x="436" y="196"/>
      <point x="282" y="196" type="curve" smooth="yes"/>
    </contour>
  </outline>
</glyph>
<glyph name="germandbls" format="2">
  <advance width="620"/>
  <unicode hex="00DF"/>
  <anchor x="301" y="0" name="bottom"/>
  <anchor x="301" y="765" name="top"/>
  <outline>
    <contour>
      <point x="364" y="-10" type="curve" smooth="yes"/>
      <point x="485" y="-10"/>
      <point x="540" y="58"/>
      <point x="540" y="135" type="curve" smooth="yes"/>
      <point x="540" y="218"/>
      <point x="491" y="256"/>
      <point x="430" y="299" type="curve" smooth="yes"/>
      <point x="371" y="340"/>
      <point x="331" y="368"/>
      <point x="331" y="423" type="curve" smooth="yes"/>
      <point x="331" y="522"/>
      <point x="473" y="519"/>
      <point x="473" y="641" type="curve" smooth="yes"/>
      <point x="473" y="713"/>
      <point x="418" y="765"/>
      <point x="313" y="765" type="curve" smooth="yes"/>
      <point x="185" y="765"/>
      <point x="117" y="694"/>
      <point x="117" y="569" type="curve" smooth="yes"/>
      <point x="117" y="0" type="line"/>
      <point x="143" y="0" type="line"/>
      <point x="143" y="565" type="line" smooth="yes"/>
      <point x="143" y="676"/>
      <point x="195" y="740"/>
      <point x="313" y="740" type="curve" smooth="yes"/>
      <point x="401" y="740"/>
      <point x="446" y="700"/>
      <point x="446" y="641" type="curve" smooth="yes"/>
      <point x="446" y="531"/>
      <point x="303" y="535"/>
      <point x="303" y="423" type="curve" smooth="yes"/>
      <point x="303" y="357"/>
      <point x="355" y="325"/>
      <point x="414" y="281" type="curve" smooth="yes"/>
      <point x="468" y="242"/>
      <point x="512" y="206"/>
      <point x="512" y="135" type="curve" smooth="yes"/>
      <point x="512" y="64"/>
      <point x="461" y="15"/>
      <point x="364" y="15" type="curve" smooth="yes"/>
      <point x="315" y="15"/>
      <point x="274" y="24"/>
      <point x="229" y="43" type="curve"/>
      <point x="229" y="15" type="line"/>
      <point x="265" y="1"/>
      <point x="303" y="-10"/>
    </contour>
  </outline>
</glyph>
<glyph name="ae" format="2">
  <advance width="620"/>
  <unicode hex="00E6"/>
  <anchor x="301" y="0" name="bottom"/>
  <anchor x="301" y="528" name="top"/>
  <outline>
    <contour>
      <point x="154" y="-10" type="curve" smooth="yes"/>
      <point x="246" y="-10"/>
      <point x="287" y="51"/>
      <point x="300" y="137" type="curve"/>
      <point x="318" y="51"/>
      <point x="361" y="-10"/>
      <point x="453" y="-10" type="curve" smooth="yes"/>
      <point x="487" y="-10"/>
      <point x="521" y="0"/>
      <point x="557" y="22" type="curve"/>
      <point x="557" y="50" type="line"/>
      <point x="509" y="21"/>
      <point x="479" y="15"/>
      <point x="455" y="15" type="curve" smooth="yes"/>
      <point x="353" y="15"/>
      <point x="311" y="119"/>
      <point x="311" y="270" type="curve"/>
      <point x="577" y="270" type="line"/>
      <point x="577" y="297" type="line" smooth="yes"/>
      <point x="577" y="440"/>
      <point x="539" y="538"/>
      <point x="442" y="538" type="curve" smooth="yes"/>
      <point x="365" y="538"/>
      <point x="321" y="477"/>
      <point x="304" y="395" type="curve"/>
      <point x="297" y="490"/>
      <point x="252" y="537"/>
      <point x="170" y="537" type="curve" smooth="yes"/>
      <point x="123" y="537"/>
      <point x="83" y="523"/>
      <point x="46" y="502" type="curve"/>
      <point x="56" y="479" type="line"/>
      <point x="99" y="504"/>
      <point x="135" y="512"/>
      <point x="168" y="512" type="curve" smooth="yes"/>
      <point x="242" y="512"/>
      <point x="281" y="465"/>
      <point x="281" y="357" type="curve" smooth="yes"/>
      <point x="281" y="296" type="line"/>
      <point x="231" y="293" type="line" smooth="yes"/>
      <point x="102" y="285"/>
      <point x="23" y="237"/>
      <point x="23" y="128" type="curve" smooth="yes"/>
      <point x="23" y="48"/>
      <point x="64" y="-10"/>
    </contour>
    <contour>
      <point x="152" y="15" type="curve" smooth="yes"/>
      <point x="84" y="15"/>
      <point x="52" y="61"/>
      <point x="52" y="127" type="curve" smooth="yes"/>
      <point x="52" y="216"/>
      <point x="108" y="262"/>
      <point x="227" y="269" type="curve" smooth="yes"/>
      <point x="281" y="271" type="line"/>
      <point x="281" y="200" type="line" smooth="yes"/>
      <point x="281" y="107"/>
      <point x="247" y="15"/>
    </contour>
    <contour>
      <point x="311" y="295" type="line"/>
      <point x="317" y="429"/>
      <point x="366" y="513"/>
      <point x="442" y="513" type="curve" smooth="yes"/>
      <point x="518" y="513"/>
      <point x="551" y="426"/>
      <point x="551" y="295" type="curve"/>
    </contour>
  </outline>
</glyph>
<glyph name="eth" format="2">
  <advance width="620"/>
  <unicode hex="00F0"/>
  <anchor x="301" y="0" name="bottom"/>
  <anchor x="301" y="264" name="center"/>
  <anchor x="301" y="757" name="top"/>
  <anchor x="589" y="760" name="topright"/>
  <outline>
    <contour>
      <point x="299" y="-10" type="curve" smooth="yes"/>
      <point x="456" y="-10"/>
      <point x="537" y="91"/>
      <point x="537" y="269" type="curve" smooth="yes"/>
      <point x="537" y="453"/>
      <point x="452" y="665"/>
      <point x="218" y="757" type="curve"/>
      <point x="203" y="739" type="line"/>
      <point x="360" y="676"/>
      <point x="466" y="543"/>
      <point x="499" y="386" type="curve"/>
      <point x="496" y="386" type="line"/>
      <point x="464" y="430"/>
      <point x="400" y="464"/>
      <point x="309" y="464" type="curve" smooth="yes"/>
      <point x="166" y="464"/>
      <point x="65" y="373"/>
      <point x="65" y="224" type="curve" smooth="yes"/>
      <point x="65" y="91"/>
      <point x="145" y="-10"/>
    </contour>
    <contour>
      <point x="296" y="15" type="curve" smooth="yes"/>
      <point x="175" y="15"/>
      <point x="91" y="94"/>
      <point x="91" y="225" type="curve" smooth="yes"/>
      <point x="91" y="358"/>
      <point x="180" y="439"/>
      <point x="313" y="439" type="curve" smooth="yes"/>
      <point x="454" y="439"/>
      <point x="510" y="352"/>
      <point x="510" y="246" type="curve" smooth="yes"/>
      <point x="510" y="111"/>
      <point x="430" y="15"/>
    </contour>
    <contour>
      <point x="199" y="594" type="line"/>
      <point x="466" y="733" type="line"/>
      <point x="453" y="754" type="line"/>
      <point x="186" y="614" type="line"/>
    </contour>
  </outline>
</glyph>
<glyph name="divide" format="2">
  <advance width="620"/>
  <unicode hex="00F7"/>
  <outline>
    <contour>
      <point x="56" y="341" type="line"/>
      <point x="546" y="341" type="line"/>
      <point x="546" y="365" type="line"/>
      <point x="56" y="365" type="line"/>
    </contour>
    <contour>
      <point x="301" y="142" type="curve" smooth="yes"/>
      <point x="326" y="142"/>
      <point x="329" y="157"/>
      <point x="329" y="176" type="curve" smooth="yes"/>
      <point x="329" y="193"/>
      <point x="326" y="208"/>
      <point x="301" y="208" type="curve" smooth="yes"/>
      <point x="279" y="208"/>
      <point x="274" y="193"/>
      <point x="274" y="175" type="curve" smooth="yes"/>
      <point x="274" y="158"/>
      <point x="278" y="142"/>
    </contour>
    <contour>
      <point x="301" y="498" type="curve" smooth="yes"/>
      <point x="326" y="498"/>
      <point x="329" y="512"/>
      <point x="329" y="530" type="curve" smooth="yes"/>
      <point x="329" y="548"/>
      <point x="326" y="564"/>
      <point x="301" y="564" type="curve" smooth="yes"/>
      <point x="278" y="564"/>
      <point x="274" y="548"/>
      <point x="274" y="531" type="curve" smooth="yes"/>
      <point x="274" y="512"/>
      <point x="278" y="498"/>
    </contour>
  </outline>
</glyph>
<glyph name="oslash" format="2">
  <advance width="620"/>
  <unicode hex="00F8"/>
  <anchor x="301" y="0" name="bottom"/>
  <anchor x="301" y="528" name="top"/>
  <anchor x="292" y="13" name="ogonek"/>
  <anchor x="579" y="528" name="topright"/>
  <anchor x="291" y="264" name="center"/>
  <outline>
    <contour>
      <point x="68" y="-45" type="line"/>
      <point x="559" y="551" type="line"/>
      <point x="539" y="565" type="line"/>
      <point x="48" y="-30" type="line"/>
    </contour>
    <component base="o" xOffset="-10"/>
  </outline>
</glyph>
<glyph name="dcaron" format="2">
  <advance width="620"/>
  <unicode hex="010F"/>
  <anchor x="259" y="0" name="bottom"/>
  <anchor x="258" y="264" name="center"/>
  <anchor x="321" y="760" name="top"/>
  <anchor x="563" y="760" name="topright"/>
  <outline>
    <contour>
      <point x="253" y="-10" type="curve" smooth="yes"/>
      <point x="354" y="-10"/>
      <point x="405" y="43"/>
      <point x="432" y="111" type="curve"/>
      <point x="434" y="111" type="line"/>
      <point x="436" y="0" type="line"/>
      <point x="458" y="0" type="line"/>
      <point x="458" y="760" type="line"/>
      <point x="432" y="760" type="line"/>
      <point x="432" y="528" type="line" smooth="yes"/>
      <point x="432" y="493"/>
      <point x="432" y="456"/>
      <point x="434" y="417" type="curve"/>
      <point x="432" y="417" type="line"/>
      <point x="411" y="480"/>
      <point x="360" y="538"/>
      <point x="259" y="538" type="curve" smooth="yes"/>
      <point x="129" y="538"/>
      <point x="53" y="439"/>
      <point x="53" y="255" type="curve" smooth="yes"/>
      <point x="53" y="84"/>
      <point x="118" y="-10"/>
    </contour>
    <contour>
      <point x="255" y="15" type="curve" smooth="yes"/>
      <point x="136" y="15"/>
      <point x="80" y="97"/>
      <point x="80" y="255" type="curve" smooth="yes"/>
      <point x="80" y="427"/>
      <point x="145" y="513"/>
      <point x="261" y="513" type="curve" smooth="yes"/>
      <point x="375" y="513"/>
      <point x="432" y="428"/>
      <point x="432" y="283" type="curve" smooth="yes"/>
      <point x="432" y="249" type="line" smooth="yes"/>
      <point x="432" y="104"/>
      <point x="381" y="15"/>
    </contour>
    <component base="caroncommaaccent" xOffset="266" yOffset="16"/>
  </outline>
</glyph>
<glyph name="eogonek" format="2">
  <advance width="620"/>
  <unicode hex="0119"/>
  <anchor x="317" y="-217" name="bottom"/>
  <anchor x="301" y="528" name="top"/>
  <anchor x="310" y="10" name="ogonek"/>
  <anchor x="579" y="528" name="topright"/>
  <outline>
    <contour>
      <point x="444" y="-217" type="curve" smooth="yes"/>
      <point x="466" y="-217"/>
      <point x="487" y="-213"/>
      <point x="499" y="-209" type="curve"/>
      <point x="499" y="-185" type="line"/>
      <point x="487" y="-189"/>
      <point x="465" y="-192"/>
      <point x="447" y="-192" type="curve" smooth="yes"/>
      <point x="398" y="-192"/>
      <point x="377" y="-170"/>
      <point x="377" y="-132" type="curve" smooth="yes"/>
      <point x="377" y="-64"/>
      <point x="453" y="-16"/>
      <point x="515" y="23" type="curve"/>
      <point x="496" y="34" type="line"/>
      <point x="418" y="-14"/>
      <point x="350" y="-65"/>
      <point x="350" y="-133" type="curve" smooth="yes"/>
      <point x="350" y="-191"/>
      <point x="391" y="-217"/>
    </contour>
    <component base="e" xOffset="-10"/>
  </outline>
</glyph>
<glyph name="Hbar" format="2">
  <advance width="620"/>
  <unicode hex="0126"/>
  <anchor x="301" y="0" name="bottom"/>
  <anchor x="301" y="357" name="center"/>
  <anchor x="301" y="714" name="top"/>
  <anchor x="13" y="714" name="topleft"/>
  <outline>
    <contour>
      <point x="-10" y="541" type="line"/>
      <point x="612" y="541" type="line"/>
      <point x="612" y="566" type="line"/>
      <point x="-10" y="566" type="line"/>
    </contour>
    <contour>
      <point x="81" y="0" type="line"/>
      <point x="107" y="0" type="line"/>
      <point x="107" y="363" type="line"/>
      <point x="495" y="363" type="line"/>
      <point x="495" y="0" type="line"/>
      <point x="521" y="0" type="line"/>
      <point x="521" y="714" type="line"/>
      <point x="495" y="714" type="line"/>
      <point x="495" y="388" type="line"/>
      <point x="107" y="388" type="line"/>
      <point x="107" y="714" type="line"/>
      <point x="81" y="714" type="line"/>
    </contour>
  </outline>
</glyph>
<glyph name="hbar" format="2">
  <advance width="620"/>
  <unicode hex="0127"/>
  <anchor x="301" y="0" name="bottom"/>
  <anchor x="301" y="264" name="center"/>
  <anchor x="109" y="760" name="top"/>
  <outline>
    <contour>
      <point x="-10" y="632" type="line"/>
      <point x="351" y="632" type="line"/>
      <point x="351" y="657" type="line"/>
      <point x="-10" y="657" type="line"/>
    </contour>
    <contour>
      <point x="99" y="0" type="line"/>
      <point x="125" y="0" type="line"/>
      <point x="125" y="300" type="line" smooth="yes"/>
      <point x="125" y="447"/>
      <point x="208" y="513"/>
      <point x="324" y="513" type="curve" smooth="yes"/>
      <point x="422" y="513"/>
      <point x="483" y="465"/>
      <point x="483" y="350" type="curve" smooth="yes"/>
      <point x="483" y="0" type="line"/>
      <point x="509" y="0" type="line"/>
      <point x="509" y="354" type="line" smooth="yes"/>
      <point x="509" y="479"/>
      <point x="441" y="538"/>
      <point x="323" y="538" type="curve" smooth="yes"/>
      <point x="204" y="538"/>
      <point x="146" y="478"/>
      <point x="125" y="418" type="curve"/>
      <point x="122" y="418" type="line"/>
      <point x="124" y="445"/>
      <point x="125" y="464"/>
      <point x="125" y="494" type="curve" smooth="yes"/>
      <point x="125" y="760" type="line"/>
      <point x="99" y="760" type="line"/>
    </contour>
  </outline>
</glyph>
<glyph name="IJ" format="2">
  <advance width="620"/>
  <unicode hex="0132"/>
  <anchor x="301" y="0" name="bottom"/>
  <anchor x="-10" y="0" name="caret_1"/>
  <anchor x="301" y="714" name="top"/>
  <anchor x="13" y="714" name="topleft"/>
  <outline>
    <contour>
      <point x="285" y="-15" type="curve" smooth="yes"/>
      <point x="429" y="-15"/>
      <point x="476" y="59"/>
      <point x="476" y="183" type="curve" smooth="yes"/>
      <point x="476" y="714" type="line"/>
      <point x="450" y="714" type="line"/>
      <point x="450" y="191" type="line" smooth="yes"/>
      <point x="450" y="70"/>
      <point x="409" y="9"/>
      <point x="287" y="9" type="curve" smooth="yes"/>
      <point x="216" y="9"/>
      <point x="153" y="34"/>
      <point x="122" y="55" type="curve"/>
      <point x="122" y="27" type="line"/>
      <point x="158" y="4"/>
      <point x="218" y="-15"/>
    </contour>
    <contour>
      <point x="119" y="147" type="line"/>
      <point x="145" y="147" type="line"/>
      <point x="145" y="714" type="line"/>
      <point x="119" y="714" type="line"/>
    </contour>
  </outline>
</glyph>
<glyph name="ij" format="2">
  <advance width="620"/>
  <unicode hex="0133"/>
  <anchor x="311" y="-248" name="bottom"/>
  <anchor x="-10" y="0" name="caret_1"/>
  <anchor x="305" y="727" name="top"/>
  <outline>
    <contour>
      <point x="281" y="-248" type="curve" smooth="yes"/>
      <point x="391" y="-248"/>
      <point x="461" y="-196"/>
      <point x="461" y="-88" type="curve" smooth="yes"/>
      <point x="461" y="528" type="line"/>
      <point x="435" y="528" type="line"/>
      <point x="435" y="-81" type="line" smooth="yes"/>
      <point x="435" y="-168"/>
      <point x="387" y="-222"/>
      <point x="282" y="-222" type="curve" smooth="yes"/>
      <point x="232" y="-222"/>
      <point x="164" y="-210"/>
      <point x="135" y="-198" type="curve"/>
      <point x="135" y="-225" type="line"/>
      <point x="160" y="-234"/>
      <point x="219" y="-248"/>
    </contour>
    <contour>
      <point x="142" y="0" type="line"/>
      <point x="168" y="0" type="line"/>
      <point x="168" y="528" type="line"/>
      <point x="142" y="528" type="line"/>
    </contour>
    <contour>
      <point x="156" y="653" type="curve" smooth="yes"/>
      <point x="186" y="653"/>
      <point x="189" y="672"/>
      <point x="189" y="690" type="curve" smooth="yes"/>
      <point x="189" y="710"/>
      <point x="184" y="727"/>
      <point x="156" y="727" type="curve" smooth="yes"/>
      <point x="128" y="727"/>
      <point x="122" y="709"/>
      <point x="122" y="690" type="curve" smooth="yes"/>
      <point x="122" y="670"/>
      <point x="129" y="653"/>
    </contour>
    <contour>
      <point x="448" y="653" type="curve" smooth="yes"/>
      <point x="478" y="653"/>
      <point x="480" y="672"/>
      <point x="480" y="690" type="curve" smooth="yes"/>
      <point x="480" y="710"/>
      <point x="475" y="727"/>
      <point x="448" y="727" type="curve" smooth="yes"/>
      <point x="419" y="727"/>
      <point x="413" y="709"/>
      <point x="413" y="690" type="curve" smooth="yes"/>
      <point x="413" y="670"/>
      <point x="420" y="653"/>
    </contour>
  </outline>
</glyph>
<glyph name="kgreenlandic" format="2">
  <advance width="620"/>
  <unicode hex="0138"/>
  <anchor x="301" y="0" name="bottom"/>
  <anchor x="301" y="528" name="top"/>
  <outline>
    <contour>
      <point x="140" y="0" type="line"/>
      <point x="166" y="0" type="line"/>
      <point x="166" y="179" type="line"/>
      <point x="292" y="290" type="line"/>
      <point x="527" y="0" type="line"/>
      <point x="556" y="0" type="line"/>
      <point x="310" y="310" type="line"/>
      <point x="536" y="528" type="line"/>
      <point x="503" y="528" type="line"/>
      <point x="231" y="274" type="line" smooth="yes"/>
      <point x="209" y="253"/>
      <point x="189" y="233"/>
      <point x="167" y="211" type="curve"/>
      <point x="165" y="211" type="line"/>
      <point x="166" y="270"/>
      <point x="166" y="319"/>
      <point x="166" y="377" type="curve" smooth="yes"/>
      <point x="166" y="528" type="line"/>
      <point x="140" y="528" type="line"/>
    </contour>
  </outline>
</glyph>
<glyph name="Lslash" format="2">
  <advance width="620"/>
  <unicode hex="0141"/>
  <anchor x="377" y="0" name="bottom"/>
  <anchor x="190" y="714" name="top"/>
  <anchor x="434" y="714" name="topright"/>
  <anchor x="301" y="357" name="center"/>
  <outline>
    <contour>
      <point x="44" y="316" type="line"/>
      <point x="400" y="487" type="line"/>
      <point x="400" y="510" type="line"/>
      <point x="44" y="339" type="line"/>
    </contour>
    <component base="L"/>
  </outline>
</glyph>
<glyph name="lslash" format="2">
  <advance width="620"/>
  <unicode hex="0142"/>
  <anchor x="301" y="0" name="bottom"/>
  <anchor x="301" y="760" name="top"/>
  <anchor x="487" y="760" name="topright"/>
  <anchor x="311" y="377" name="center"/>
  <outline>
    <contour>
      <point x="139" y="316" type="line"/>
      <point x="495" y="487" type="line"/>
      <point x="495" y="510" type="line"/>
      <point x="139" y="339" type="line"/>
    </contour>
    <component base="l"/>
  </outline>
</glyph>
<glyph name="napostrophe" format="2">
  <advance width="620"/>
  <unicode hex="0149"/>
  <anchor x="315" y="0" name="bottom"/>
  <anchor x="309" y="528" name="top"/>
  <outline>
    <contour>
      <point x="116" y="0" type="line"/>
      <point x="142" y="0" type="line"/>
      <point x="142" y="305" type="line" smooth="yes"/>
      <point x="142" y="447"/>
      <point x="222" y="512"/>
      <point x="333" y="512" type="curve" smooth="yes"/>
      <point x="427" y="512"/>
      <point x="483" y="465"/>
      <point x="483" y="352" type="curve" smooth="yes"/>
      <point x="483" y="0" type="line"/>
      <point x="509" y="0" type="line"/>
      <point x="509" y="359" type="line" smooth="yes"/>
      <point x="509" y="481"/>
      <point x="443" y="537"/>
      <point x="333" y="537" type="curve" smooth="yes"/>
      <point x="217" y="537"/>
      <point x="165" y="478"/>
      <point x="142" y="416" type="curve"/>
      <point x="140" y="416" type="line"/>
      <point x="137" y="528" type="line"/>
      <point x="116" y="528" type="line"/>
    </contour>
    <component base="quoteright" xOffset="-283"/>
  </outline>
</glyph>
<glyph name="Eng" format="2">
  <advance width="620"/>
  <unicode hex="014A"/>
  <anchor x="347" y="-175" name="bottom"/>
  <anchor x="317" y="714" name="top"/>
  <anchor x="612" y="714" name="topright"/>
  <outline>
    <contour>
      <point x="370" y="-175" type="curve" smooth="yes"/>
      <point x="470" y="-175"/>
      <point x="521" y="-119"/>
      <point x="521" y="0" type="curve" smooth="yes"/>
      <point x="521" y="36" type="line"/>
      <point x="495" y="36" type="line"/>
      <point x="495" y="2" type="line" smooth="yes"/>
      <point x="495" y="-104"/>
      <point x="453" y="-150"/>
      <point x="368" y="-150" type="curve" smooth="yes"/>
      <point x="338" y="-150"/>
      <point x="306" y="-144"/>
      <point x="285" y="-137" type="curve"/>
      <point x="285" y="-162" type="line"/>
      <point x="302" y="-169"/>
      <point x="337" y="-175"/>
    </contour>
    <component base="N"/>
  </outline>
</glyph>
<glyph name="eng" format="2">
  <advance width="620"/>
  <unicode hex="014B"/>
  <anchor x="314" y="-241" name="bottom"/>
  <anchor x="308" y="528" name="top"/>
  <anchor x="589" y="528" name="topright"/>
  <outline>
    <contour>
      <point x="391" y="-241" type="curve" smooth="yes"/>
      <point x="458" y="-241"/>
      <point x="509" y="-200"/>
      <point x="509" y="-110" type="curve" smooth="yes"/>
      <point x="498" y="237" type="line"/>
      <point x="494" y="234" type="line" smooth="yes"/>
      <point x="474" y="-38" type="line" smooth="yes"/>
      <point x="428" y="-140"/>
      <point x="454" y="-216"/>
      <point x="392" y="-216" type="curve" smooth="yes"/>
      <point x="369" y="-216"/>
      <point x="341" y="-214"/>
      <point x="319" y="-206" type="curve"/>
      <point x="319" y="-232" type="line"/>
      <point x="336" y="-238"/>
      <point x="362" y="-241"/>
    </contour>
    <component base="n"/>
  </outline>
</glyph>
<glyph name="OE" format="2">
  <advance width="620"/>
  <unicode hex="0152"/>
  <anchor x="301" y="0" name="bottom"/>
  <anchor x="301" y="714" name="top"/>
  <outline>
    <contour>
      <point x="311" y="-2" type="curve" smooth="yes"/>
      <point x="337" y="-2"/>
      <point x="357" y="0"/>
      <point x="376" y="0" type="curve" smooth="yes"/>
      <point x="580" y="0" type="line"/>
      <point x="580" y="25" type="line"/>
      <point x="336" y="25" type="line"/>
      <point x="336" y="363" type="line"/>
      <point x="565" y="363" type="line"/>
      <point x="565" y="388" type="line"/>
      <point x="336" y="388" type="line"/>
      <point x="336" y="690" type="line"/>
      <point x="580" y="690" type="line"/>
      <point x="580" y="714" type="line"/>
      <point x="381" y="714" type="line"/>
      <point x="359" y="714"/>
      <point x="336" y="714"/>
      <point x="314" y="714" type="curve" smooth="yes"/>
      <point x="106" y="714"/>
      <point x="50" y="571"/>
      <point x="50" y="359" type="curve" smooth="yes"/>
      <point x="50" y="121"/>
      <point x="134" y="-2"/>
    </contour>
    <contour>
      <point x="304" y="23" type="curve" smooth="yes"/>
      <point x="146" y="23"/>
      <point x="76" y="153"/>
      <point x="76" y="359" type="curve" smooth="yes"/>
      <point x="76" y="545"/>
      <point x="121" y="690"/>
      <point x="304" y="690" type="curve" smooth="yes"/>
      <point x="306" y="690"/>
      <point x="307" y="690"/>
      <point x="310" y="690" type="curve"/>
      <point x="310" y="23" type="line"/>
      <point x="307" y="23"/>
      <point x="308" y="23"/>
    </contour>
  </outline>
</glyph>
<glyph name="oe" format="2">
  <advance width="620"/>
  <unicode hex="0153"/>
  <anchor x="301" y="0" name="bottom"/>
  <anchor x="301" y="528" name="top"/>
  <outline>
    <contour>
      <point x="170" y="-10" type="curve" smooth="yes"/>
      <point x="252" y="-10"/>
      <point x="297" y="53"/>
      <point x="311" y="148" type="curve"/>
      <point x="328" y="48"/>
      <point x="373" y="-10"/>
      <point x="465" y="-10" type="curve" smooth="yes"/>
      <point x="502" y="-10"/>
      <point x="531" y="-2"/>
      <point x="567" y="19" type="curve"/>
      <point x="567" y="45" type="line"/>
      <point x="526" y="21"/>
      <point x="503" y="13"/>
      <point x="467" y="13" type="curve" smooth="yes"/>
      <point x="372" y="13"/>
      <point x="328" y="103"/>
      <point x="328" y="268" type="curve"/>
      <point x="571" y="268" type="line"/>
      <point x="571" y="296" type="line" smooth="yes"/>
      <point x="571" y="426"/>
      <point x="539" y="537"/>
      <point x="447" y="537" type="curve" smooth="yes"/>
      <point x="369" y="537"/>
      <point x="328" y="464"/>
      <point x="312" y="373" type="curve"/>
      <point x="301" y="469"/>
      <point x="258" y="537"/>
      <point x="175" y="537" type="curve" smooth="yes"/>
      <point x="78" y="537"/>
      <point x="22" y="445"/>
      <point x="22" y="259" type="curve" smooth="yes"/>
      <point x="22" y="95"/>
      <point x="66" y="-10"/>
    </contour>
    <contour>
      <point x="170" y="14" type="curve" smooth="yes"/>
      <point x="87" y="14"/>
      <point x="49" y="113"/>
      <point x="49" y="264" type="curve" smooth="yes"/>
      <point x="49" y="421"/>
      <point x="91" y="513"/>
      <point x="174" y="513" type="curve" smooth="yes"/>
      <point x="262" y="513"/>
      <point x="296" y="404"/>
      <point x="296" y="265" type="curve" smooth="yes"/>
      <point x="296" y="124"/>
      <point x="258" y="14"/>
    </contour>
    <contour>
      <point x="328" y="294" type="line"/>
      <point x="332" y="405"/>
      <point x="374" y="513"/>
      <point x="447" y="513" type="curve" smooth="yes"/>
      <point x="514" y="513"/>
      <point x="544" y="422"/>
      <point x="544" y="294" type="curve"/>
    </contour>
  </outline>
</glyph>
<glyph name="tbar" format="2">
  <advance width="620"/>
  <unicode hex="0167"/>
  <anchor x="339" y="0" name="bottom"/>
  <anchor x="275" y="659" name="top"/>
  <anchor x="589" y="659" name="topright"/>
  <anchor x="272" y="281" name="center"/>
  <outline>
    <contour>
      <point x="88" y="285" type="line"/>
      <point x="515" y="285" type="line"/>
      <point x="515" y="310" type="line"/>
      <point x="88" y="310" type="line"/>
    </contour>
    <component base="t"/>
  </outline>
</glyph>
<glyph name="Uogonek" format="2">
  <advance width="620"/>
  <unicode hex="0172"/>
  <anchor x="316" y="-217" name="bottom"/>
  <anchor x="301" y="714" name="top"/>
  <anchor x="550" y="10" name="ogonek"/>
  <anchor x="589" y="714" name="topright"/>
  <outline>
    <contour>
      <point x="329" y="-217" type="curve" smooth="yes"/>
      <point x="348" y="-217"/>
      <point x="367" y="-214"/>
      <point x="378" y="-210" type="curve"/>
      <point x="378" y="-187" type="line"/>
      <point x="367" y="-190"/>
      <point x="346" y="-193"/>
      <point x="330" y="-193" type="curve" smooth="yes"/>
      <point x="286" y="-193"/>
      <point x="265" y="-172"/>
      <point x="265" y="-135" type="curve" smooth="yes"/>
      <point x="265" y="-73"/>
      <point x="336" y="-30"/>
      <point x="408" y="14" type="curve"/>
      <point x="383" y="23" type="line"/>
      <point x="294" y="-29"/>
      <point x="237" y="-74"/>
      <point x="237" y="-138" type="curve" smooth="yes"/>
      <point x="237" y="-191"/>
      <point x="276" y="-217"/>
    </contour>
    <component base="U"/>
  </outline>
</glyph>
<glyph name="longs" format="2">
  <advance width="620"/>
  <unicode hex="017F"/>
  <anchor x="301" y="0" name="bottom"/>
  <anchor x="423" y="765" name="top"/>
  <outline>
    <contour>
      <point x="272" y="0" type="line"/>
      <point x="298" y="0" type="line"/>
      <point x="298" y="572" type="line" smooth="yes"/>
      <point x="298" y="689"/>
      <point x="351" y="741"/>
      <point x="456" y="741" type="curve" smooth="yes"/>
      <point x="484" y="741"/>
      <point x="505" y="738"/>
      <point x="526" y="732" type="curve"/>
      <point x="530" y="757" type="line"/>
      <point x="507" y="762"/>
      <point x="482" y="765"/>
      <point x="456" y="765" type="curve" smooth="yes"/>
      <point x="329" y="765"/>
      <point x="272" y="692"/>
      <point x="272" y="575" type="curve" smooth="yes"/>
    </contour>
  </outline>
</glyph>
<glyph name="uni0180" format="2">
  <advance width="620"/>
  <unicode hex="0180"/>
  <anchor x="301" y="0" name="bottom"/>
  <anchor x="258" y="760" name="top"/>
  <anchor x="579" y="760" name="topright"/>
  <outline>
    <contour>
      <point x="0" y="630" type="line"/>
      <point x="329" y="630" type="line"/>
      <point x="329" y="655" type="line"/>
      <point x="0" y="655" type="line"/>
    </contour>
    <component base="b" xOffset="-10"/>
  </outline>
</glyph>
<glyph name="uni0181" format="2">
  <advance width="620"/>
  <unicode hex="0181"/>
  <anchor x="292" y="0" name="bottom"/>
  <anchor x="292" y="714" name="top"/>
  <outline>
    <contour>
      <point x="133" y="0" type="line"/>
      <point x="297" y="0" type="line" smooth="yes"/>
      <point x="463" y="0"/>
      <point x="561" y="63"/>
      <point x="561" y="201" type="curve" smooth="yes"/>
      <point x="561" y="293"/>
      <point x="517" y="357"/>
      <point x="392" y="376" type="curve"/>
      <point x="392" y="377" type="line"/>
      <point x="489" y="392"/>
      <point x="542" y="460"/>
      <point x="542" y="545" type="curve" smooth="yes"/>
      <point x="542" y="658"/>
      <point x="470" y="714"/>
      <point x="290" y="714" type="curve" smooth="yes"/>
      <point x="133" y="714" type="line"/>
    </contour>
    <contour>
      <point x="159" y="25" type="line"/>
      <point x="159" y="363" type="line"/>
      <point x="292" y="363" type="line" smooth="yes"/>
      <point x="450" y="363"/>
      <point x="534" y="324"/>
      <point x="534" y="201" type="curve" smooth="yes"/>
      <point x="534" y="80"/>
      <point x="443" y="25"/>
      <point x="296" y="25" type="curve" smooth="yes"/>
    </contour>
    <contour>
      <point x="10" y="540" type="curve"/>
      <point x="36" y="540" type="line"/>
      <point x="33" y="551"/>
      <point x="27" y="573"/>
      <point x="27" y="593" type="curve" smooth="yes"/>
      <point x="27" y="652"/>
      <point x="62" y="689"/>
      <point x="128" y="689" type="curve" smooth="yes"/>
      <point x="147" y="689" type="line"/>
      <point x="147" y="714" type="line"/>
      <point x="125" y="714" type="line" smooth="yes"/>
      <point x="44" y="714"/>
      <point x="1" y="663"/>
      <point x="1" y="593" type="curve" smooth="yes"/>
      <point x="1" y="575"/>
      <point x="4" y="555"/>
    </contour>
    <contour>
      <point x="159" y="388" type="line"/>
      <point x="159" y="689" type="line"/>
      <point x="281" y="689" type="line" smooth="yes"/>
      <point x="458" y="689"/>
      <point x="515" y="645"/>
      <point x="515" y="545" type="curve" smooth="yes"/>
      <point x="515" y="441"/>
      <point x="441" y="388"/>
      <point x="294" y="388" type="curve" smooth="yes"/>
    </contour>
  </outline>
</glyph>
<glyph name="uni0183" format="2">
  <advance width="620"/>
  <unicode hex="0183"/>
  <anchor x="301" y="0" name="bottom"/>
  <anchor x="301" y="760" name="top"/>
  <anchor x="579" y="760" name="topright"/>
  <outline>
    <contour>
      <point x="111" y="735" type="line"/>
      <point x="466" y="735" type="line"/>
      <point x="466" y="760" type="line"/>
      <point x="112" y="760" type="line"/>
    </contour>
    <component base="b" xOffset="-10"/>
  </outline>
</glyph>
<glyph name="uni0184" format="2">
  <advance width="620"/>
  <unicode hex="0184"/>
  <anchor x="301" y="0" name="bottom"/>
  <anchor x="301" y="760" name="top"/>
  <outline>
    <contour>
      <point x="323" y="-3" type="curve" smooth="yes"/>
      <point x="467" y="-3"/>
      <point x="544" y="76"/>
      <point x="544" y="201" type="curve" smooth="yes"/>
      <point x="544" y="337"/>
      <point x="451" y="393"/>
      <point x="295" y="393" type="curve" smooth="yes"/>
      <point x="136" y="393" type="line"/>
      <point x="136" y="714" type="line"/>
      <point x="110" y="714" type="line"/>
      <point x="110" y="214" type="line" smooth="yes"/>
      <point x="110" y="60"/>
      <point x="193" y="-3"/>
    </contour>
    <contour>
      <point x="324" y="22" type="curve" smooth="yes"/>
      <point x="212" y="22"/>
      <point x="136" y="72"/>
      <point x="136" y="221" type="curve" smooth="yes"/>
      <point x="136" y="368" type="line"/>
      <point x="288" y="368" type="line" smooth="yes"/>
      <point x="437" y="368"/>
      <point x="517" y="319"/>
      <point x="517" y="201" type="curve" smooth="yes"/>
      <point x="517" y="85"/>
      <point x="447" y="22"/>
    </contour>
  </outline>
</glyph>
<glyph name="uni0185" format="2">
  <advance width="620"/>
  <unicode hex="0185"/>
  <anchor x="301" y="0" name="bottom"/>
  <anchor x="301" y="760" name="top"/>
  <outline>
    <contour>
      <point x="307" y="-10" type="curve" smooth="yes"/>
      <point x="469" y="-10"/>
      <point x="536" y="104"/>
      <point x="536" y="268" type="curve" smooth="yes"/>
      <point x="536" y="445"/>
      <point x="463" y="538"/>
      <point x="316" y="538" type="curve" smooth="yes"/>
      <point x="216" y="538"/>
      <point x="145" y="483"/>
      <point x="124" y="410" type="curve"/>
      <point x="122" y="410" type="line"/>
      <point x="123" y="437"/>
      <point x="123" y="482"/>
      <point x="123" y="510" type="curve" smooth="yes"/>
      <point x="123" y="760" type="line"/>
      <point x="97" y="760" type="line"/>
      <point x="97" y="239" type="line" smooth="yes"/>
      <point x="97" y="75"/>
      <point x="172" y="-10"/>
    </contour>
    <contour>
      <point x="307" y="15" type="curve" smooth="yes"/>
      <point x="187" y="15"/>
      <point x="123" y="88"/>
      <point x="123" y="251" type="curve" smooth="yes"/>
      <point x="123" y="263" type="line" smooth="yes"/>
      <point x="123" y="424"/>
      <point x="187" y="513"/>
      <point x="317" y="513" type="curve" smooth="yes"/>
      <point x="447" y="513"/>
      <point x="509" y="430"/>
      <point x="509" y="268" type="curve" smooth="yes"/>
      <point x="509" y="103"/>
      <point x="440" y="15"/>
    </contour>
  </outline>
</glyph>
<glyph name="uni0187" format="2">
  <advance width="620"/>
  <unicode hex="0187"/>
  <anchor x="377" y="0" name="bottom"/>
  <anchor x="377" y="855" name="top"/>
  <anchor x="579" y="714" name="topright"/>
  <outline>
    <contour>
      <point x="541" y="690" type="line"/>
      <point x="566" y="690" type="line"/>
      <point x="566" y="767" type="line" smooth="yes"/>
      <point x="566" y="816"/>
      <point x="587" y="831"/>
      <point x="622" y="831" type="curve" smooth="yes"/>
      <point x="645" y="831"/>
      <point x="662" y="825"/>
      <point x="670" y="820" type="curve"/>
      <point x="670" y="846" type="line"/>
      <point x="659" y="851"/>
      <point x="642" y="855"/>
      <point x="620" y="855" type="curve" smooth="yes"/>
      <point x="572" y="855"/>
      <point x="541" y="830"/>
      <point x="541" y="767" type="curve" smooth="yes"/>
    </contour>
    <component base="C" xOffset="-10"/>
  </outline>
</glyph>
<glyph name="uni0188" format="2">
  <advance width="620"/>
  <unicode hex="0188"/>
  <anchor x="301" y="0" name="bottom"/>
  <anchor x="301" y="769" name="top"/>
  <anchor x="579" y="528" name="topright"/>
  <outline>
    <contour>
      <point x="485" y="516" type="line"/>
      <point x="511" y="516" type="line"/>
      <point x="511" y="675" type="line" smooth="yes"/>
      <point x="511" y="731"/>
      <point x="532" y="746"/>
      <point x="571" y="746" type="curve" smooth="yes"/>
      <point x="589" y="746"/>
      <point x="601" y="743"/>
      <point x="614" y="737" type="curve"/>
      <point x="614" y="761" type="line"/>
      <point x="602" y="766"/>
      <point x="590" y="769"/>
      <point x="569" y="769" type="curve" smooth="yes"/>
      <point x="515" y="769"/>
      <point x="485" y="740"/>
      <point x="485" y="674" type="curve" smooth="yes"/>
    </contour>
    <component base="c" xOffset="-10"/>
  </outline>
</glyph>
<glyph name="uni018A" format="2">
  <advance width="620"/>
  <unicode hex="018A"/>
  <anchor x="301" y="0" name="bottom"/>
  <anchor x="301" y="714" name="top"/>
  <outline>
    <contour>
      <point x="133" y="0" type="line"/>
      <point x="254" y="0" type="line" smooth="yes"/>
      <point x="464" y="0"/>
      <point x="557" y="124"/>
      <point x="557" y="362" type="curve" smooth="yes"/>
      <point x="557" y="594"/>
      <point x="468" y="714"/>
      <point x="259" y="714" type="curve" smooth="yes"/>
      <point x="133" y="714" type="line"/>
    </contour>
    <contour>
      <point x="159" y="25" type="line"/>
      <point x="159" y="689" type="line"/>
      <point x="250" y="689" type="line" smooth="yes"/>
      <point x="459" y="689"/>
      <point x="530" y="571"/>
      <point x="530" y="360" type="curve" smooth="yes"/>
      <point x="530" y="139"/>
      <point x="447" y="25"/>
      <point x="245" y="25" type="curve" smooth="yes"/>
    </contour>
    <contour>
      <point x="10" y="540" type="curve"/>
      <point x="36" y="540" type="line"/>
      <point x="33" y="551"/>
      <point x="27" y="573"/>
      <point x="27" y="593" type="curve" smooth="yes"/>
      <point x="27" y="652"/>
      <point x="62" y="689"/>
      <point x="128" y="689" type="curve" smooth="yes"/>
      <point x="147" y="689" type="line"/>
      <point x="147" y="714" type="line"/>
      <point x="125" y="714" type="line" smooth="yes"/>
      <point x="44" y="714"/>
      <point x="1" y="663"/>
      <point x="1" y="593" type="curve" smooth="yes"/>
      <point x="1" y="575"/>
      <point x="4" y="555"/>
    </contour>
  </outline>
</glyph>
<glyph name="uni0191" format="2">
  <advance width="620"/>
  <unicode hex="0191"/>
  <anchor x="301" y="-154" name="bottom"/>
  <anchor x="313" y="714" name="top"/>
  <outline>
    <contour>
      <point x="32" y="-157" type="curve" smooth="yes"/>
      <point x="97" y="-157"/>
      <point x="136" y="-113"/>
      <point x="136" y="-24" type="curve" smooth="yes"/>
      <point x="136" y="329" type="line"/>
      <point x="485" y="329" type="line"/>
      <point x="485" y="354" type="line"/>
      <point x="136" y="354" type="line"/>
      <point x="136" y="689" type="line"/>
      <point x="505" y="689" type="line"/>
      <point x="505" y="714" type="line"/>
      <point x="110" y="714" type="line"/>
      <point x="110" y="-19" type="line" smooth="yes"/>
      <point x="110" y="-93"/>
      <point x="85" y="-132"/>
      <point x="33" y="-132" type="curve" smooth="yes"/>
      <point x="6" y="-132"/>
      <point x="-11" y="-125"/>
      <point x="-31" y="-119" type="curve"/>
      <point x="-31" y="-146" type="line"/>
      <point x="-13" y="-153"/>
      <point x="6" y="-157"/>
    </contour>
  </outline>
</glyph>
<glyph name="florin" format="2">
  <advance width="620"/>
  <unicode hex="0192"/>
  <anchor x="282" y="-240" name="bottom"/>
  <anchor x="380" y="724" name="top"/>
  <outline>
    <contour>
      <point x="162" y="-240" type="curve" smooth="yes"/>
      <point x="254" y="-240"/>
      <point x="292" y="-178"/>
      <point x="292" y="-88" type="curve" smooth="yes"/>
      <point x="292" y="422" type="line"/>
      <point x="437" y="422" type="line"/>
      <point x="437" y="447" type="line"/>
      <point x="293" y="447" type="line"/>
      <point x="293" y="541" type="line" smooth="yes"/>
      <point x="293" y="652"/>
      <point x="331" y="700"/>
      <point x="419" y="700" type="curve" smooth="yes"/>
      <point x="451" y="700"/>
      <point x="477" y="696"/>
      <point x="500" y="687" type="curve"/>
      <point x="508" y="711" type="line"/>
      <point x="478" y="721"/>
      <point x="452" y="724"/>
      <point x="422" y="724" type="curve" smooth="yes"/>
      <point x="313" y="724"/>
      <point x="266" y="660"/>
      <point x="266" y="545" type="curve" smooth="yes"/>
      <point x="266" y="447" type="line"/>
      <point x="145" y="444" type="line"/>
      <point x="145" y="422" type="line"/>
      <point x="266" y="422" type="line"/>
      <point x="266" y="-88" type="line" smooth="yes"/>
      <point x="266" y="-170"/>
      <point x="234" y="-215"/>
      <point x="161" y="-215" type="curve" smooth="yes"/>
      <point x="135" y="-215"/>
      <point x="113" y="-211"/>
      <point x="89" y="-205" type="curve"/>
      <point x="89" y="-232" type="line"/>
      <point x="107" y="-236"/>
      <point x="130" y="-240"/>
    </contour>
  </outline>
</glyph>
<glyph name="uni0193" format="2">
  <advance width="620"/>
  <unicode hex="0193"/>
  <anchor x="306" y="0" name="bottom"/>
  <anchor x="306" y="856" name="top"/>
  <anchor x="579" y="714" name="topright"/>
  <outline>
    <contour>
      <point x="481" y="682" type="line"/>
      <point x="506" y="682" type="line"/>
      <point x="506" y="767" type="line" smooth="yes"/>
      <point x="506" y="817"/>
      <point x="527" y="832"/>
      <point x="562" y="832" type="curve" smooth="yes"/>
      <point x="585" y="832"/>
      <point x="602" y="825"/>
      <point x="611" y="821" type="curve"/>
      <point x="611" y="847" type="line"/>
      <point x="599" y="852"/>
      <point x="583" y="856"/>
      <point x="561" y="856" type="curve" smooth="yes"/>
      <point x="512" y="856"/>
      <point x="481" y="831"/>
      <point x="481" y="768" type="curve" smooth="yes"/>
    </contour>
    <component base="G" xOffset="-10"/>
  </outline>
</glyph>
<glyph name="uni0194" format="2">
  <advance width="620"/>
  <unicode hex="0194"/>
  <anchor x="301" y="-242" name="bottom"/>
  <anchor x="301" y="714" name="top"/>
  <outline>
    <contour>
      <point x="301" y="-242" type="curve" smooth="yes"/>
      <point x="369" y="-242"/>
      <point x="400" y="-193"/>
      <point x="400" y="-131" type="curve" smooth="yes"/>
      <point x="400" y="-61"/>
      <point x="366" y="12"/>
      <point x="312" y="124" type="curve"/>
      <point x="564" y="714" type="line"/>
      <point x="537" y="714" type="line"/>
      <point x="333" y="233" type="line" smooth="yes"/>
      <point x="322" y="210"/>
      <point x="311" y="184"/>
      <point x="300" y="160" type="curve"/>
      <point x="290" y="185"/>
      <point x="279" y="208"/>
      <point x="268" y="233" type="curve" smooth="yes"/>
      <point x="64" y="714" type="line"/>
      <point x="38" y="714" type="line"/>
      <point x="288" y="125" type="line"/>
      <point x="242" y="33"/>
      <point x="202" y="-50"/>
      <point x="202" y="-130" type="curve" smooth="yes"/>
      <point x="202" y="-192"/>
      <point x="234" y="-242"/>
    </contour>
    <contour>
      <point x="302" y="-219" type="curve" smooth="yes"/>
      <point x="251" y="-219"/>
      <point x="227" y="-178"/>
      <point x="227" y="-127" type="curve" smooth="yes"/>
      <point x="227" y="-59"/>
      <point x="257" y="5"/>
      <point x="300" y="90" type="curve"/>
      <point x="346" y="-2"/>
      <point x="375" y="-63"/>
      <point x="375" y="-129" type="curve" smooth="yes"/>
      <point x="375" y="-178"/>
      <point x="354" y="-219"/>
    </contour>
  </outline>
</glyph>
<glyph name="uni0195" format="2">
  <advance width="620"/>
  <unicode hex="0195"/>
  <anchor x="306" y="0" name="bottom"/>
  <anchor x="69" y="759" name="top"/>
  <outline>
    <contour>
      <point x="423" y="-9" type="curve" smooth="yes"/>
      <point x="501" y="-9"/>
      <point x="552" y="32"/>
      <point x="552" y="126" type="curve" smooth="yes"/>
      <point x="552" y="527" type="line"/>
      <point x="526" y="527" type="line"/>
      <point x="526" y="129" type="line" smooth="yes"/>
      <point x="526" y="48"/>
      <point x="486" y="16"/>
      <point x="423" y="16" type="curve" smooth="yes"/>
      <point x="357" y="16"/>
      <point x="320" y="50"/>
      <point x="320" y="132" type="curve" smooth="yes"/>
      <point x="320" y="408" type="line" smooth="yes"/>
      <point x="320" y="499"/>
      <point x="274" y="537"/>
      <point x="203" y="537" type="curve" smooth="yes"/>
      <point x="130" y="537"/>
      <point x="95" y="499"/>
      <point x="82" y="455" type="curve"/>
      <point x="80" y="455" type="line"/>
      <point x="82" y="477"/>
      <point x="82" y="492"/>
      <point x="82" y="523" type="curve" smooth="yes"/>
      <point x="82" y="760" type="line"/>
      <point x="55" y="760" type="line"/>
      <point x="55" y="0" type="line"/>
      <point x="82" y="0" type="line"/>
      <point x="82" y="329" type="line" smooth="yes"/>
      <point x="82" y="478"/>
      <point x="143" y="512"/>
      <point x="203" y="512" type="curve" smooth="yes"/>
      <point x="254" y="512"/>
      <point x="293" y="484"/>
      <point x="293" y="402" type="curve" smooth="yes"/>
      <point x="293" y="128" type="line" smooth="yes"/>
      <point x="293" y="31"/>
      <point x="347" y="-9"/>
    </contour>
  </outline>
</glyph>
<glyph name="uni0196" format="2">
  <advance width="620"/>
  <unicode hex="0196"/>
  <anchor x="339" y="0" name="bottom"/>
  <anchor x="217" y="714" name="top"/>
  <outline>
    <contour>
      <point x="369" y="-10" type="curve" smooth="yes"/>
      <point x="401" y="-10"/>
      <point x="445" y="-5"/>
      <point x="481" y="4" type="curve"/>
      <point x="481" y="29" type="line"/>
      <point x="439" y="20"/>
      <point x="407" y="15"/>
      <point x="374" y="15" type="curve" smooth="yes"/>
      <point x="284" y="15"/>
      <point x="231" y="50"/>
      <point x="231" y="175" type="curve" smooth="yes"/>
      <point x="231" y="714" type="line"/>
      <point x="205" y="714" type="line"/>
      <point x="205" y="166" type="line" smooth="yes"/>
      <point x="205" y="37"/>
      <point x="269" y="-10"/>
    </contour>
  </outline>
</glyph>
<glyph name="uni0197" format="2">
  <advance width="620"/>
  <unicode hex="0197"/>
  <anchor x="301" y="0" name="bottom"/>
  <anchor x="301" y="714" name="top"/>
  <anchor x="3" y="714" name="topleft"/>
  <anchor x="331" y="10" name="ogonek"/>
  <anchor x="579" y="714" name="topright"/>
  <outline>
    <contour>
      <point x="162" y="363" type="line"/>
      <point x="440" y="363" type="line"/>
      <point x="440" y="388" type="line"/>
      <point x="162" y="388" type="line"/>
    </contour>
    <component base="I" xOffset="-10"/>
  </outline>
</glyph>
<glyph name="uni0198" format="2">
  <advance width="620"/>
  <unicode hex="0198"/>
  <anchor x="301" y="0" name="bottom"/>
  <anchor x="301" y="714" name="top"/>
  <outline>
    <contour>
      <point x="81" y="0" type="line"/>
      <point x="107" y="0" type="line"/>
      <point x="107" y="286" type="line"/>
      <point x="222" y="394" type="line"/>
      <point x="512" y="0" type="line"/>
      <point x="542" y="0" type="line"/>
      <point x="239" y="413" type="line"/>
      <point x="464" y="634" type="line" smooth="yes"/>
      <point x="508" y="679"/>
      <point x="535" y="693"/>
      <point x="568" y="693" type="curve" smooth="yes"/>
      <point x="580" y="693"/>
      <point x="591" y="691"/>
      <point x="599" y="688" type="curve"/>
      <point x="599" y="714" type="line"/>
      <point x="590" y="717"/>
      <point x="581" y="718"/>
      <point x="568" y="718" type="curve" smooth="yes"/>
      <point x="527" y="718"/>
      <point x="493" y="702"/>
      <point x="435" y="645" type="curve" smooth="yes"/>
      <point x="170" y="389" type="line" smooth="yes"/>
      <point x="144" y="361"/>
      <point x="129" y="345"/>
      <point x="107" y="321" type="curve"/>
      <point x="107" y="714" type="line"/>
      <point x="81" y="714" type="line"/>
    </contour>
  </outline>
</glyph>
<glyph name="uni0199" format="2">
  <advance width="620"/>
  <unicode hex="0199"/>
  <anchor x="301" y="0" name="bottom"/>
  <anchor x="301" y="765" name="top"/>
  <outline>
    <contour>
      <point x="140" y="0" type="line"/>
      <point x="166" y="0" type="line"/>
      <point x="166" y="179" type="line"/>
      <point x="292" y="290" type="line"/>
      <point x="527" y="0" type="line"/>
      <point x="556" y="0" type="line"/>
      <point x="310" y="310" type="line"/>
      <point x="536" y="528" type="line"/>
      <point x="503" y="528" type="line"/>
      <point x="231" y="274" type="line" smooth="yes"/>
      <point x="210" y="254"/>
      <point x="190" y="234"/>
      <point x="167" y="211" type="curve"/>
      <point x="165" y="211" type="line"/>
      <point x="166" y="270"/>
      <point x="166" y="319"/>
      <point x="166" y="377" type="curve" smooth="yes"/>
      <point x="166" y="650" type="line" smooth="yes"/>
      <point x="166" y="711"/>
      <point x="196" y="740"/>
      <point x="254" y="740" type="curve" smooth="yes"/>
      <point x="273" y="740"/>
      <point x="285" y="738"/>
      <point x="298" y="733" type="curve"/>
      <point x="298" y="759" type="line"/>
      <point x="288" y="762"/>
      <point x="274" y="765"/>
      <point x="254" y="765" type="curve" smooth="yes"/>
      <point x="185" y="765"/>
      <point x="140" y="730"/>
      <point x="140" y="653" type="curve" smooth="yes"/>
    </contour>
  </outline>
</glyph>
<glyph name="uni019B" format="2">
  <advance width="620"/>
  <unicode hex="019B"/>
  <anchor x="283" y="0" name="bottom"/>
  <anchor x="290" y="766" name="top"/>
  <outline>
    <contour>
      <point x="146" y="568" type="line"/>
      <point x="415" y="642" type="line"/>
      <point x="407" y="666" type="line"/>
      <point x="138" y="592" type="line"/>
    </contour>
    <component base="lambda" xOffset="-32"/>
  </outline>
</glyph>
<glyph name="uni019C" format="2">
  <advance width="620"/>
  <unicode hex="019C"/>
  <anchor x="301" y="0" name="bottom"/>
  <anchor x="301" y="357" name="center"/>
  <anchor x="301" y="714" name="top"/>
  <anchor x="13" y="714" name="topleft"/>
  <outline>
    <contour>
      <point x="164" y="-9" type="curve" smooth="yes"/>
      <point x="238" y="-9"/>
      <point x="274" y="30"/>
      <point x="293" y="77" type="curve"/>
      <point x="296" y="77" type="line"/>
      <point x="303" y="35"/>
      <point x="331" y="-9"/>
      <point x="407" y="-9" type="curve" smooth="yes"/>
      <point x="488" y="-9"/>
      <point x="518" y="41"/>
      <point x="532" y="80" type="curve"/>
      <point x="534" y="80" type="line"/>
      <point x="537" y="0" type="line"/>
      <point x="556" y="0" type="line"/>
      <point x="556" y="714" type="line"/>
      <point x="530" y="714" type="line"/>
      <point x="530" y="174" type="line" smooth="yes"/>
      <point x="530" y="97"/>
      <point x="491" y="15"/>
      <point x="407" y="15" type="curve" smooth="yes"/>
      <point x="353" y="15"/>
      <point x="313" y="36"/>
      <point x="313" y="153" type="curve" smooth="yes"/>
      <point x="313" y="714" type="line"/>
      <point x="286" y="714" type="line"/>
      <point x="286" y="170" type="line" smooth="yes"/>
      <point x="286" y="75"/>
      <point x="240" y="15"/>
      <point x="166" y="15" type="curve" smooth="yes"/>
      <point x="115" y="15"/>
      <point x="73" y="40"/>
      <point x="73" y="136" type="curve" smooth="yes"/>
      <point x="73" y="714" type="line"/>
      <point x="46" y="714" type="line"/>
      <point x="46" y="130" type="line" smooth="yes"/>
      <point x="46" y="29"/>
      <point x="93" y="-9"/>
    </contour>
  </outline>
</glyph>
<glyph name="uni019D" format="2">
  <advance width="620"/>
  <unicode hex="019D"/>
  <anchor x="304" y="-144" name="bottom"/>
  <anchor x="304" y="714" name="top"/>
  <anchor x="602" y="714" name="topright"/>
  <outline>
    <contour>
      <point x="26" y="-144" type="curve" smooth="yes"/>
      <point x="75" y="-144"/>
      <point x="107" y="-109"/>
      <point x="107" y="-34" type="curve" smooth="yes"/>
      <point x="107" y="68" type="line"/>
      <point x="81" y="68" type="line"/>
      <point x="81" y="-30" type="line" smooth="yes"/>
      <point x="81" y="-90"/>
      <point x="63" y="-119"/>
      <point x="26" y="-119" type="curve" smooth="yes"/>
      <point x="11" y="-119"/>
      <point x="-9" y="-116"/>
      <point x="-24" y="-110" type="curve"/>
      <point x="-24" y="-136" type="line"/>
      <point x="-11" y="-141"/>
      <point x="5" y="-144"/>
    </contour>
    <component base="N" xOffset="-10"/>
  </outline>
</glyph>
<glyph name="uni01A2" format="2">
  <advance width="620"/>
  <unicode hex="01A2"/>
  <anchor x="106" y="0" name="bottom"/>
  <anchor x="119" y="10" name="ogonek"/>
  <anchor x="326" y="714" name="top"/>
  <anchor x="-177" y="714" name="topleft"/>
  <anchor x="843" y="714" name="topright"/>
  <outline>
    <contour>
      <point x="104" y="-10" type="curve" smooth="yes"/>
      <point x="306" y="-10"/>
      <point x="398" y="149"/>
      <point x="398" y="361" type="curve" smooth="yes"/>
      <point x="398" y="555"/>
      <point x="320" y="724"/>
      <point x="109" y="724" type="curve" smooth="yes"/>
      <point x="-86" y="724"/>
      <point x="-198" y="583"/>
      <point x="-198" y="359" type="curve" smooth="yes"/>
      <point x="-198" y="154"/>
      <point x="-102" y="-10"/>
    </contour>
    <contour>
      <point x="105" y="15" type="curve" smooth="yes"/>
      <point x="-77" y="15"/>
      <point x="-171" y="153"/>
      <point x="-171" y="356" type="curve" smooth="yes"/>
      <point x="-171" y="561"/>
      <point x="-75" y="700"/>
      <point x="106" y="700" type="curve" smooth="yes"/>
      <point x="275" y="700"/>
      <point x="371" y="577"/>
      <point x="371" y="358" type="curve" smooth="yes"/>
      <point x="371" y="149"/>
      <point x="284" y="15"/>
    </contour>
    <contour>
      <point x="774" y="0" type="line"/>
      <point x="800" y="0" type="line"/>
      <point x="800" y="503" type="line" smooth="yes"/>
      <point x="800" y="649"/>
      <point x="710" y="724"/>
      <point x="562" y="724" type="curve" smooth="yes"/>
      <point x="450" y="724"/>
      <point x="371" y="678"/>
      <point x="324" y="620" type="curve"/>
      <point x="337" y="596" type="line"/>
      <point x="383" y="658"/>
      <point x="462" y="699"/>
      <point x="563" y="699" type="curve" smooth="yes"/>
      <point x="693" y="699"/>
      <point x="774" y="634"/>
      <point x="774" y="497" type="curve" smooth="yes"/>
    </contour>
  </outline>
</glyph>
<glyph name="uni01A3" format="2">
  <advance width="620"/>
  <unicode hex="01A3"/>
  <anchor x="189" y="0" name="bottom"/>
  <anchor x="189" y="277" name="center"/>
  <anchor x="193" y="10" name="ogonek"/>
  <anchor x="300" y="528" name="top"/>
  <outline>
    <contour>
      <point x="516" y="-232" type="line"/>
      <point x="543" y="-232" type="line"/>
      <point x="543" y="414" type="line" smooth="yes"/>
      <point x="543" y="497"/>
      <point x="501" y="538"/>
      <point x="431" y="538" type="curve" smooth="yes"/>
      <point x="365" y="538"/>
      <point x="331" y="501"/>
      <point x="310" y="470" type="curve"/>
      <point x="286" y="514"/>
      <point x="247" y="538"/>
      <point x="192" y="538" type="curve" smooth="yes"/>
      <point x="86" y="538"/>
      <point x="35" y="455"/>
      <point x="35" y="266" type="curve" smooth="yes"/>
      <point x="35" y="73"/>
      <point x="82" y="-10"/>
      <point x="193" y="-10" type="curve" smooth="yes"/>
      <point x="295" y="-10"/>
      <point x="346" y="70"/>
      <point x="346" y="264" type="curve" smooth="yes"/>
      <point x="346" y="334"/>
      <point x="341" y="402"/>
      <point x="321" y="446" type="curve"/>
      <point x="341" y="475"/>
      <point x="370" y="513"/>
      <point x="429" y="513" type="curve" smooth="yes"/>
      <point x="486" y="513"/>
      <point x="516" y="481"/>
      <point x="516" y="405" type="curve" smooth="yes"/>
    </contour>
    <contour>
      <point x="191" y="15" type="curve" smooth="yes"/>
      <point x="103" y="15"/>
      <point x="61" y="89"/>
      <point x="61" y="266" type="curve" smooth="yes"/>
      <point x="61" y="442"/>
      <point x="105" y="513"/>
      <point x="192" y="513" type="curve" smooth="yes"/>
      <point x="288" y="513"/>
      <point x="320" y="421"/>
      <point x="320" y="265" type="curve" smooth="yes"/>
      <point x="320" y="81"/>
      <point x="274" y="15"/>
    </contour>
  </outline>
</glyph>
<glyph name="uni01A4" format="2">
  <advance width="620"/>
  <unicode hex="01A4"/>
  <anchor x="337" y="0" name="bottom"/>
  <anchor x="337" y="714" name="top"/>
  <outline>
    <contour>
      <point x="161" y="0" type="line"/>
      <point x="187" y="0" type="line"/>
      <point x="187" y="306" type="line"/>
      <point x="289" y="306" type="line" smooth="yes"/>
      <point x="458" y="306"/>
      <point x="553" y="369"/>
      <point x="553" y="514" type="curve" smooth="yes"/>
      <point x="553" y="661"/>
      <point x="460" y="714"/>
      <point x="291" y="714" type="curve" smooth="yes"/>
      <point x="160" y="714" type="line" smooth="yes"/>
      <point x="71" y="714"/>
      <point x="24" y="662"/>
      <point x="24" y="593" type="curve" smooth="yes"/>
      <point x="24" y="575"/>
      <point x="26" y="555"/>
      <point x="32" y="540" type="curve"/>
      <point x="59" y="540" type="line"/>
      <point x="56" y="551"/>
      <point x="50" y="573"/>
      <point x="50" y="593" type="curve" smooth="yes"/>
      <point x="50" y="651"/>
      <point x="88" y="687"/>
      <point x="161" y="689" type="curve"/>
    </contour>
    <contour>
      <point x="187" y="331" type="line"/>
      <point x="187" y="689" type="line"/>
      <point x="284" y="689" type="line" smooth="yes"/>
      <point x="450" y="689"/>
      <point x="525" y="643"/>
      <point x="525" y="516" type="curve" smooth="yes"/>
      <point x="525" y="380"/>
      <point x="435" y="331"/>
      <point x="282" y="331" type="curve" smooth="yes"/>
    </contour>
  </outline>
</glyph>
<glyph name="uni01A5" format="2">
  <advance width="620"/>
  <unicode hex="01A5"/>
  <anchor x="324" y="-240" name="bottom"/>
  <anchor x="324" y="766" name="top"/>
  <outline>
    <contour>
      <point x="99" y="-240" type="line"/>
      <point x="125" y="-240" type="line"/>
      <point x="125" y="2" type="line" smooth="yes"/>
      <point x="125" y="41"/>
      <point x="125" y="80"/>
      <point x="123" y="114" type="curve"/>
      <point x="125" y="114" type="line"/>
      <point x="146" y="50"/>
      <point x="204" y="-10"/>
      <point x="314" y="-10" type="curve" smooth="yes"/>
      <point x="454" y="-10"/>
      <point x="537" y="85"/>
      <point x="537" y="270" type="curve" smooth="yes"/>
      <point x="537" y="446"/>
      <point x="465" y="537"/>
      <point x="325" y="537" type="curve" smooth="yes"/>
      <point x="207" y="537"/>
      <point x="146" y="471"/>
      <point x="123" y="402" type="curve"/>
      <point x="121" y="402" type="line"/>
      <point x="124" y="436"/>
      <point x="125" y="472"/>
      <point x="125" y="506" type="curve" smooth="yes"/>
      <point x="125" y="651" type="line" smooth="yes"/>
      <point x="125" y="712"/>
      <point x="160" y="741"/>
      <point x="213" y="741" type="curve" smooth="yes"/>
      <point x="236" y="741"/>
      <point x="254" y="738"/>
      <point x="269" y="732" type="curve"/>
      <point x="269" y="758" type="line"/>
      <point x="257" y="762"/>
      <point x="239" y="766"/>
      <point x="212" y="766" type="curve" smooth="yes"/>
      <point x="145" y="766"/>
      <point x="99" y="731"/>
      <point x="99" y="654" type="curve" smooth="yes"/>
    </contour>
    <contour>
      <point x="316" y="15" type="curve" smooth="yes"/>
      <point x="202" y="15"/>
      <point x="125" y="95"/>
      <point x="125" y="248" type="curve" smooth="yes"/>
      <point x="125" y="274" type="line" smooth="yes"/>
      <point x="125" y="419"/>
      <point x="197" y="512"/>
      <point x="325" y="512" type="curve" smooth="yes"/>
      <point x="449" y="512"/>
      <point x="511" y="431"/>
      <point x="511" y="270" type="curve" smooth="yes"/>
      <point x="511" y="93"/>
      <point x="435" y="15"/>
    </contour>
  </outline>
</glyph>
<glyph name="uni01A6" format="2">
  <advance width="620"/>
  <unicode hex="01A6"/>
  <anchor x="324" y="-100" name="bottom"/>
  <anchor x="324" y="714" name="top"/>
  <outline>
    <contour>
      <point x="546" y="-100" type="line"/>
      <point x="577" y="-100" type="line"/>
      <point x="354" y="225" type="line"/>
      <point x="489" y="251"/>
      <point x="539" y="318"/>
      <point x="539" y="422" type="curve" smooth="yes"/>
      <point x="539" y="571"/>
      <point x="434" y="614"/>
      <point x="251" y="614" type="curve" smooth="yes"/>
      <point x="136" y="614" type="line"/>
      <point x="136" y="714" type="line"/>
      <point x="110" y="714" type="line"/>
      <point x="110" y="0" type="line"/>
      <point x="136" y="0" type="line"/>
      <point x="136" y="220" type="line"/>
      <point x="326" y="220" type="line"/>
    </contour>
    <contour>
      <point x="136" y="245" type="line"/>
      <point x="136" y="589" type="line"/>
      <point x="246" y="589" type="line" smooth="yes"/>
      <point x="418" y="589"/>
      <point x="512" y="550"/>
      <point x="512" y="424" type="curve" smooth="yes"/>
      <point x="512" y="301"/>
      <point x="417" y="245"/>
      <point x="284" y="245" type="curve" smooth="yes"/>
    </contour>
  </outline>
</glyph>
<glyph name="uni01AA" format="2">
  <advance width="620"/>
  <unicode hex="01AA"/>
  <anchor x="316" y="-240" name="bottom"/>
  <anchor x="316" y="770" name="top"/>
  <outline>
    <contour>
      <point x="454" y="-237" type="curve" smooth="yes"/>
      <point x="480" y="-237"/>
      <point x="507" y="-233"/>
      <point x="528" y="-226" type="curve"/>
      <point x="528" y="-201" type="line"/>
      <point x="507" y="-208"/>
      <point x="482" y="-212"/>
      <point x="452" y="-212" type="curve" smooth="yes"/>
      <point x="377" y="-212"/>
      <point x="330" y="-179"/>
      <point x="330" y="-84" type="curve" smooth="yes"/>
      <point x="330" y="634" type="line" smooth="yes"/>
      <point x="330" y="714"/>
      <point x="278" y="765"/>
      <point x="191" y="765" type="curve" smooth="yes"/>
      <point x="105" y="765"/>
      <point x="50" y="717"/>
      <point x="50" y="652" type="curve" smooth="yes"/>
      <point x="50" y="577"/>
      <point x="110" y="539"/>
      <point x="200" y="539" type="curve" smooth="yes"/>
      <point x="304" y="539" type="line"/>
      <point x="304" y="-91" type="line" smooth="yes"/>
      <point x="304" y="-190"/>
      <point x="357" y="-237"/>
    </contour>
    <contour>
      <point x="206" y="564" type="line" smooth="yes"/>
      <point x="118" y="564"/>
      <point x="78" y="594"/>
      <point x="78" y="653" type="curve" smooth="yes"/>
      <point x="78" y="703"/>
      <point x="118" y="740"/>
      <point x="189" y="740" type="curve" smooth="yes"/>
      <point x="260" y="740"/>
      <point x="304" y="705"/>
      <point x="304" y="623" type="curve" smooth="yes"/>
      <point x="304" y="564" type="line"/>
    </contour>
  </outline>
</glyph>
<glyph name="uni01AB" format="2">
  <advance width="620"/>
  <unicode hex="01AB"/>
  <anchor x="399" y="-240" name="bottom"/>
  <anchor x="301" y="659" name="top"/>
  <anchor x="579" y="659" name="topright"/>
  <anchor x="262" y="281" name="center"/>
  <outline>
    <contour>
      <point x="405" y="-242" type="curve" smooth="yes"/>
      <point x="470" y="-242"/>
      <point x="511" y="-204"/>
      <point x="511" y="-141" type="curve" smooth="yes"/>
      <point x="511" y="16" type="line"/>
      <point x="485" y="8" type="line"/>
      <point x="485" y="-138" type="line" smooth="yes"/>
      <point x="485" y="-184"/>
      <point x="460" y="-217"/>
      <point x="407" y="-217" type="curve" smooth="yes"/>
      <point x="380" y="-217"/>
      <point x="361" y="-212"/>
      <point x="344" y="-205" type="curve"/>
      <point x="344" y="-232" type="line"/>
      <point x="358" y="-237"/>
      <point x="375" y="-242"/>
    </contour>
    <component base="t" xOffset="-10"/>
  </outline>
</glyph>
<glyph name="uni01AC" format="2">
  <advance width="620"/>
  <unicode hex="01AC"/>
  <anchor x="301" y="0" name="bottom"/>
  <anchor x="301" y="714" name="top"/>
  <outline>
    <contour>
      <point x="284" y="0" type="line"/>
      <point x="310" y="0" type="line"/>
      <point x="310" y="689" type="line"/>
      <point x="557" y="689" type="line"/>
      <point x="557" y="714" type="line"/>
      <point x="171" y="714" type="line" smooth="yes"/>
      <point x="81" y="714"/>
      <point x="36" y="662"/>
      <point x="36" y="594" type="curve" smooth="yes"/>
      <point x="36" y="573"/>
      <point x="41" y="553"/>
      <point x="46" y="539" type="curve"/>
      <point x="73" y="539" type="line"/>
      <point x="70" y="550"/>
      <point x="63" y="572"/>
      <point x="63" y="593" type="curve" smooth="yes"/>
      <point x="63" y="652"/>
      <point x="100" y="689"/>
      <point x="174" y="689" type="curve" smooth="yes"/>
      <point x="284" y="689" type="line"/>
    </contour>
  </outline>
</glyph>
<glyph name="uni01AD" format="2">
  <advance width="620"/>
  <unicode hex="01AD"/>
  <anchor x="301" y="0" name="bottom"/>
  <anchor x="301" y="765" name="top"/>
  <outline>
    <contour>
      <point x="422" y="-10" type="curve" smooth="yes"/>
      <point x="462" y="-10"/>
      <point x="486" y="-4"/>
      <point x="510" y="3" type="curve"/>
      <point x="510" y="28" type="line"/>
      <point x="486" y="20"/>
      <point x="459" y="15"/>
      <point x="423" y="15" type="curve" smooth="yes"/>
      <point x="314" y="15"/>
      <point x="285" y="75"/>
      <point x="285" y="183" type="curve" smooth="yes"/>
      <point x="285" y="503" type="line"/>
      <point x="508" y="503" type="line"/>
      <point x="508" y="528" type="line"/>
      <point x="285" y="528" type="line"/>
      <point x="285" y="616" type="line" smooth="yes"/>
      <point x="285" y="702"/>
      <point x="321" y="740"/>
      <point x="388" y="740" type="curve" smooth="yes"/>
      <point x="416" y="740"/>
      <point x="439" y="735"/>
      <point x="457" y="728" type="curve"/>
      <point x="457" y="754" type="line"/>
      <point x="442" y="759"/>
      <point x="421" y="765"/>
      <point x="389" y="765" type="curve" smooth="yes"/>
      <point x="305" y="765"/>
      <point x="259" y="713"/>
      <point x="259" y="620" type="curve" smooth="yes"/>
      <point x="259" y="528" type="line"/>
      <point x="88" y="524" type="line"/>
      <point x="88" y="503" type="line"/>
      <point x="259" y="503" type="line"/>
      <point x="259" y="180" type="line" smooth="yes"/>
      <point x="259" y="62"/>
      <point x="294" y="-10"/>
    </contour>
  </outline>
</glyph>
<glyph name="uni01AE" format="2">
  <advance width="620"/>
  <unicode hex="01AE"/>
  <anchor x="381" y="-152" name="bottom"/>
  <anchor x="301" y="714" name="top"/>
  <outline>
    <contour>
      <point x="415" y="-152" type="curve" smooth="yes"/>
      <point x="443" y="-152"/>
      <point x="467" y="-147"/>
      <point x="485" y="-140" type="curve"/>
      <point x="485" y="-115" type="line"/>
      <point x="466" y="-122"/>
      <point x="443" y="-127"/>
      <point x="415" y="-127" type="curve" smooth="yes"/>
      <point x="349" y="-127"/>
      <point x="313" y="-90"/>
      <point x="313" y="-4" type="curve" smooth="yes"/>
      <point x="313" y="689" type="line"/>
      <point x="558" y="689" type="line"/>
      <point x="558" y="714" type="line"/>
      <point x="45" y="714" type="line"/>
      <point x="45" y="689" type="line"/>
      <point x="287" y="689" type="line"/>
      <point x="287" y="-12" type="line" smooth="yes"/>
      <point x="287" y="-107"/>
      <point x="331" y="-152"/>
    </contour>
  </outline>
</glyph>
<glyph name="uni01B2" format="2">
  <advance width="620"/>
  <unicode hex="01B2"/>
  <anchor x="302" y="0" name="bottom"/>
  <anchor x="550" y="10" name="ogonek"/>
  <anchor x="301" y="714" name="top"/>
  <anchor x="589" y="714" name="topright"/>
  <outline>
    <contour>
      <point x="298" y="-10" type="curve" smooth="yes"/>
      <point x="431" y="-10"/>
      <point x="522" y="64"/>
      <point x="522" y="237" type="curve" smooth="yes"/>
      <point x="522" y="627" type="line" smooth="yes"/>
      <point x="522" y="694"/>
      <point x="483" y="724"/>
      <point x="430" y="724" type="curve" smooth="yes"/>
      <point x="399" y="724"/>
      <point x="378" y="716"/>
      <point x="366" y="709" type="curve"/>
      <point x="366" y="683" type="line"/>
      <point x="376" y="690"/>
      <point x="400" y="700"/>
      <point x="429" y="700" type="curve" smooth="yes"/>
      <point x="469" y="700"/>
      <point x="496" y="677"/>
      <point x="496" y="626" type="curve" smooth="yes"/>
      <point x="496" y="242" type="line" smooth="yes"/>
      <point x="496" y="83"/>
      <point x="420" y="15"/>
      <point x="300" y="15" type="curve" smooth="yes"/>
      <point x="172" y="15"/>
      <point x="107" y="89"/>
      <point x="107" y="245" type="curve" smooth="yes"/>
      <point x="107" y="714" type="line"/>
      <point x="81" y="714" type="line"/>
      <point x="81" y="242" type="line" smooth="yes"/>
      <point x="81" y="74"/>
      <point x="155" y="-10"/>
    </contour>
  </outline>
</glyph>
<glyph name="uni01B3" format="2">
  <advance width="620"/>
  <unicode hex="01B3"/>
  <anchor x="301" y="0" name="bottom"/>
  <anchor x="301" y="714" name="top"/>
  <outline>
    <contour>
      <point x="290" y="0" type="line"/>
      <point x="316" y="0" type="line"/>
      <point x="316" y="274" type="line"/>
      <point x="564" y="714" type="line"/>
      <point x="535" y="714" type="line"/>
      <point x="303" y="301" type="line"/>
      <point x="112" y="644" type="line" smooth="yes"/>
      <point x="84" y="697"/>
      <point x="64" y="721"/>
      <point x="20" y="721" type="curve" smooth="yes"/>
      <point x="5" y="721"/>
      <point x="-7" y="718"/>
      <point x="-16" y="715" type="curve"/>
      <point x="-16" y="691" type="line"/>
      <point x="-7" y="694"/>
      <point x="4" y="697"/>
      <point x="17" y="697" type="curve" smooth="yes"/>
      <point x="52" y="697"/>
      <point x="66" y="677"/>
      <point x="91" y="631" type="curve" smooth="yes"/>
      <point x="290" y="274" type="line"/>
    </contour>
  </outline>
</glyph>
